<svg width="18" height="19" viewBox="0 0 18 19" fill="none" xmlns="http://www.w3.org/2000/svg">
<path d="M16.6 18.4395H0.586051L2.10009 5.63672H15.0859L16.6 18.4395Z" stroke="white" stroke-miterlimit="10" stroke-linecap="round"/>
<mask id="path-2-inside-1" fill="white">
<path d="M12.2634 7.11047C12.2634 6.62106 12.2634 4.44495 12.2634 3.95554C12.2634 1.99515 10.6192 0.40625 8.59067 0.40625C6.56212 0.40625 4.91797 1.99515 4.91797 3.95554C4.91797 4.44495 4.91797 6.62106 4.91797 7.11047"/>
</mask>
<path d="M11.2634 7.11047C11.2634 7.66275 11.7111 8.11047 12.2634 8.11047C12.8157 8.11047 13.2634 7.66275 13.2634 7.11047H11.2634ZM3.91797 7.11047C3.91797 7.66275 4.36568 8.11047 4.91797 8.11047C5.47025 8.11047 5.91797 7.66275 5.91797 7.11047H3.91797ZM13.2634 7.11047C13.2634 7.10951 13.2634 7.10855 13.2634 7.10758C13.2634 7.10661 13.2634 7.10564 13.2634 7.10465C13.2634 7.10367 13.2634 7.10269 13.2634 7.10169C13.2634 7.1007 13.2634 7.0997 13.2634 7.09869C13.2634 7.09768 13.2634 7.09667 13.2634 7.09565C13.2634 7.09463 13.2634 7.0936 13.2634 7.09257C13.2634 7.09154 13.2634 7.0905 13.2634 7.08946C13.2634 7.08841 13.2634 7.08736 13.2634 7.0863C13.2634 7.08525 13.2634 7.08418 13.2634 7.08311C13.2634 7.08204 13.2634 7.08097 13.2634 7.07989C13.2634 7.0788 13.2634 7.07772 13.2634 7.07662C13.2634 7.07553 13.2634 7.07443 13.2634 7.07332C13.2634 7.07221 13.2634 7.0711 13.2634 7.06998C13.2634 7.06886 13.2634 7.06774 13.2634 7.06661C13.2634 7.06547 13.2634 7.06434 13.2634 7.06319C13.2634 7.06205 13.2634 7.0609 13.2634 7.05975C13.2634 7.05859 13.2634 7.05743 13.2634 7.05626C13.2634 7.05509 13.2634 7.05392 13.2634 7.05274C13.2634 7.05156 13.2634 7.05038 13.2634 7.04919C13.2634 7.04799 13.2634 7.0468 13.2634 7.04559C13.2634 7.04439 13.2634 7.04318 13.2634 7.04197C13.2634 7.04075 13.2634 7.03953 13.2634 7.0383C13.2634 7.03708 13.2634 7.03584 13.2634 7.03461C13.2634 7.03337 13.2634 7.03212 13.2634 7.03087C13.2634 7.02962 13.2634 7.02837 13.2634 7.0271C13.2634 7.02584 13.2634 7.02458 13.2634 7.0233C13.2634 7.02203 13.2634 7.02075 13.2634 7.01946C13.2634 7.01818 13.2634 7.01689 13.2634 7.01559C13.2634 7.0143 13.2634 7.01299 13.2634 7.01169C13.2634 7.01038 13.2634 7.00906 13.2634 7.00774C13.2634 7.00642 13.2634 7.0051 13.2634 7.00377C13.2634 7.00244 13.2634 7.0011 13.2634 6.99976C13.2634 6.99842 13.2634 6.99707 13.2634 6.99572C13.2634 6.99436 13.2634 6.99301 13.2634 6.99164C13.2634 6.99028 13.2634 6.98891 13.2634 6.98753C13.2634 6.98616 13.2634 6.98478 13.2634 6.98339C13.2634 6.982 13.2634 6.98061 13.2634 6.97921C13.2634 6.97781 13.2634 6.97641 13.2634 6.975C13.2634 6.97359 13.2634 6.97218 13.2634 6.97076C13.2634 6.96934 13.2634 6.96792 13.2634 6.96649C13.2634 6.96506 13.2634 6.96362 13.2634 6.96218C13.2634 6.96074 13.2634 6.95929 13.2634 6.95784C13.2634 6.95639 13.2634 6.95493 13.2634 6.95347C13.2634 6.952 13.2634 6.95054 13.2634 6.94906C13.2634 6.94759 13.2634 6.94611 13.2634 6.94463C13.2634 6.94314 13.2634 6.94165 13.2634 6.94016C13.2634 6.93866 13.2634 6.93716 13.2634 6.93566C13.2634 6.93415 13.2634 6.93264 13.2634 6.93113C13.2634 6.92961 13.2634 6.92809 13.2634 6.92656C13.2634 6.92504 13.2634 6.92351 13.2634 6.92197C13.2634 6.92043 13.2634 6.91889 13.2634 6.91735C13.2634 6.9158 13.2634 6.91425 13.2634 6.91269C13.2634 6.91113 13.2634 6.90957 13.2634 6.908C13.2634 6.90644 13.2634 6.90486 13.2634 6.90329C13.2634 6.90171 13.2634 6.90013 13.2634 6.89854C13.2634 6.89695 13.2634 6.89536 13.2634 6.89376C13.2634 6.89216 13.2634 6.89056 13.2634 6.88895C13.2634 6.88734 13.2634 6.88573 13.2634 6.88411C13.2634 6.8825 13.2634 6.88087 13.2634 6.87925C13.2634 6.87762 13.2634 6.87599 13.2634 6.87435C13.2634 6.87271 13.2634 6.87107 13.2634 6.86942C13.2634 6.86777 13.2634 6.86612 13.2634 6.86446C13.2634 6.86281 13.2634 6.86115 13.2634 6.85948C13.2634 6.85781 13.2634 6.85614 13.2634 6.85446C13.2634 6.85279 13.2634 6.85111 13.2634 6.84942C13.2634 6.84773 13.2634 6.84604 13.2634 6.84435C13.2634 6.84265 13.2634 6.84095 13.2634 6.83925C13.2634 6.83754 13.2634 6.83583 13.2634 6.83412C13.2634 6.8324 13.2634 6.83068 13.2634 6.82896C13.2634 6.82723 13.2634 6.8255 13.2634 6.82377C13.2634 6.82204 13.2634 6.8203 13.2634 6.81856C13.2634 6.81681 13.2634 6.81507 13.2634 6.81331C13.2634 6.81156 13.2634 6.8098 13.2634 6.80804C13.2634 6.80628 13.2634 6.80452 13.2634 6.80275C13.2634 6.80098 13.2634 6.7992 13.2634 6.79742C13.2634 6.79564 13.2634 6.79386 13.2634 6.79207C13.2634 6.79028 13.2634 6.78849 13.2634 6.78669C13.2634 6.78489 13.2634 6.78309 13.2634 6.78128C13.2634 6.77947 13.2634 6.77766 13.2634 6.77585C13.2634 6.77403 13.2634 6.77221 13.2634 6.77039C13.2634 6.76856 13.2634 6.76673 13.2634 6.7649C13.2634 6.76307 13.2634 6.76123 13.2634 6.75939C13.2634 6.75755 13.2634 6.7557 13.2634 6.75385C13.2634 6.752 13.2634 6.75014 13.2634 6.74828C13.2634 6.74642 13.2634 6.74456 13.2634 6.74269C13.2634 6.74082 13.2634 6.73895 13.2634 6.73707C13.2634 6.7352 13.2634 6.73332 13.2634 6.73143C13.2634 6.72955 13.2634 6.72766 13.2634 6.72576C13.2634 6.72387 13.2634 6.72197 13.2634 6.72007C13.2634 6.71817 13.2634 6.71626 13.2634 6.71435C13.2634 6.71244 13.2634 6.71053 13.2634 6.70861C13.2634 6.70669 13.2634 6.70477 13.2634 6.70284C13.2634 6.70091 13.2634 6.69898 13.2634 6.69704C13.2634 6.69511 13.2634 6.69317 13.2634 6.69123C13.2634 6.68928 13.2634 6.68734 13.2634 6.68538C13.2634 6.68343 13.2634 6.68148 13.2634 6.67952C13.2634 6.67756 13.2634 6.67559 13.2634 6.67363C13.2634 6.67166 13.2634 6.66969 13.2634 6.66771C13.2634 6.66574 13.2634 6.66376 13.2634 6.66177C13.2634 6.65979 13.2634 6.6578 13.2634 6.65581C13.2634 6.65382 13.2634 6.65182 13.2634 6.64982C13.2634 6.64783 13.2634 6.64582 13.2634 6.64382C13.2634 6.64181 13.2634 6.6398 13.2634 6.63778C13.2634 6.63577 13.2634 6.63375 13.2634 6.63173C13.2634 6.6297 13.2634 6.62768 13.2634 6.62565C13.2634 6.62362 13.2634 6.62159 13.2634 6.61955C13.2634 6.61751 13.2634 6.61547 13.2634 6.61342C13.2634 6.61138 13.2634 6.60933 13.2634 6.60728C13.2634 6.60522 13.2634 6.60317 13.2634 6.60111C13.2634 6.59905 13.2634 6.59699 13.2634 6.59492C13.2634 6.59285 13.2634 6.59078 13.2634 6.5887C13.2634 6.58663 13.2634 6.58455 13.2634 6.58247C13.2634 6.58039 13.2634 6.5783 13.2634 6.57621C13.2634 6.57412 13.2634 6.57203 13.2634 6.56994C13.2634 6.56784 13.2634 6.56574 13.2634 6.56364C13.2634 6.56153 13.2634 6.55943 13.2634 6.55732C13.2634 6.55521 13.2634 6.55309 13.2634 6.55097C13.2634 6.54886 13.2634 6.54674 13.2634 6.54461C13.2634 6.54249 13.2634 6.54036 13.2634 6.53823C13.2634 6.5361 13.2634 6.53396 13.2634 6.53182C13.2634 6.52969 13.2634 6.52754 13.2634 6.5254C13.2634 6.52325 13.2634 6.52111 13.2634 6.51895C13.2634 6.5168 13.2634 6.51465 13.2634 6.51249C13.2634 6.51033 13.2634 6.50817 13.2634 6.506C13.2634 6.50384 13.2634 6.50167 13.2634 6.4995C13.2634 6.49733 13.2634 6.49515 13.2634 6.49297C13.2634 6.49079 13.2634 6.48861 13.2634 6.48643C13.2634 6.48424 13.2634 6.48206 13.2634 6.47986C13.2634 6.47767 13.2634 6.47548 13.2634 6.47328C13.2634 6.47108 13.2634 6.46888 13.2634 6.46668C13.2634 6.46447 13.2634 6.46227 13.2634 6.46006C13.2634 6.45785 13.2634 6.45563 13.2634 6.45342C13.2634 6.4512 13.2634 6.44898 13.2634 6.44676C13.2634 6.44453 13.2634 6.44231 13.2634 6.44008C13.2634 6.43785 13.2634 6.43562 13.2634 6.43338C13.2634 6.43115 13.2634 6.42891 13.2634 6.42667C13.2634 6.42443 13.2634 6.42218 13.2634 6.41994C13.2634 6.41769 13.2634 6.41544 13.2634 6.41319C13.2634 6.41093 13.2634 6.40868 13.2634 6.40642C13.2634 6.40416 13.2634 6.4019 13.2634 6.39963C13.2634 6.39737 13.2634 6.3951 13.2634 6.39283C13.2634 6.39056 13.2634 6.38828 13.2634 6.38601C13.2634 6.38373 13.2634 6.38145 13.2634 6.37917C13.2634 6.37689 13.2634 6.3746 13.2634 6.37232C13.2634 6.37003 13.2634 6.36774 13.2634 6.36544C13.2634 6.36315 13.2634 6.36085 13.2634 6.35856C13.2634 6.35626 13.2634 6.35396 13.2634 6.35165C13.2634 6.34935 13.2634 6.34704 13.2634 6.34473C13.2634 6.34242 13.2634 6.34011 13.2634 6.33779C13.2634 6.33548 13.2634 6.33316 13.2634 6.33084C13.2634 6.32852 13.2634 6.32619 13.2634 6.32387C13.2634 6.32154 13.2634 6.31921 13.2634 6.31688C13.2634 6.31455 13.2634 6.31222 13.2634 6.30988C13.2634 6.30754 13.2634 6.30521 13.2634 6.30286C13.2634 6.30052 13.2634 6.29818 13.2634 6.29583C13.2634 6.29348 13.2634 6.29114 13.2634 6.28878C13.2634 6.28643 13.2634 6.28408 13.2634 6.28172C13.2634 6.27936 13.2634 6.27701 13.2634 6.27464C13.2634 6.27228 13.2634 6.26992 13.2634 6.26755C13.2634 6.26518 13.2634 6.26282 13.2634 6.26044C13.2634 6.25807 13.2634 6.2557 13.2634 6.25332C13.2634 6.25095 13.2634 6.24857 13.2634 6.24619C13.2634 6.24381 13.2634 6.24142 13.2634 6.23904C13.2634 6.23665 13.2634 6.23426 13.2634 6.23187C13.2634 6.22948 13.2634 6.22709 13.2634 6.2247C13.2634 6.2223 13.2634 6.2199 13.2634 6.2175C13.2634 6.2151 13.2634 6.2127 13.2634 6.2103C13.2634 6.20789 13.2634 6.20549 13.2634 6.20308C13.2634 6.20067 13.2634 6.19826 13.2634 6.19585C13.2634 6.19344 13.2634 6.19102 13.2634 6.1886C13.2634 6.18619 13.2634 6.18377 13.2634 6.18135C13.2634 6.17892 13.2634 6.1765 13.2634 6.17407C13.2634 6.17165 13.2634 6.16922 13.2634 6.16679C13.2634 6.16436 13.2634 6.16193 13.2634 6.1595C13.2634 6.15706 13.2634 6.15462 13.2634 6.15219C13.2634 6.14975 13.2634 6.14731 13.2634 6.14487C13.2634 6.14242 13.2634 6.13998 13.2634 6.13753C13.2634 6.13509 13.2634 6.13264 13.2634 6.13019C13.2634 6.12774 13.2634 6.12529 13.2634 6.12283C13.2634 6.12038 13.2634 6.11792 13.2634 6.11547C13.2634 6.11301 13.2634 6.11055 13.2634 6.10809C13.2634 6.10562 13.2634 6.10316 13.2634 6.1007C13.2634 6.09823 13.2634 6.09576 13.2634 6.09329C13.2634 6.09082 13.2634 6.08835 13.2634 6.08588C13.2634 6.08341 13.2634 6.08093 13.2634 6.07846C13.2634 6.07598 13.2634 6.0735 13.2634 6.07102C13.2634 6.06854 13.2634 6.06606 13.2634 6.06358C13.2634 6.06109 13.2634 6.05861 13.2634 6.05612C13.2634 6.05364 13.2634 6.05115 13.2634 6.04866C13.2634 6.04617 13.2634 6.04367 13.2634 6.04118C13.2634 6.03869 13.2634 6.03619 13.2634 6.0337C13.2634 6.0312 13.2634 6.0287 13.2634 6.0262C13.2634 6.0237 13.2634 6.0212 13.2634 6.01869C13.2634 6.01619 13.2634 6.01369 13.2634 6.01118C13.2634 6.00867 13.2634 6.00617 13.2634 6.00366C13.2634 6.00115 13.2634 5.99864 13.2634 5.99612C13.2634 5.99361 13.2634 5.9911 13.2634 5.98858C13.2634 5.98607 13.2634 5.98355 13.2634 5.98103C13.2634 5.97851 13.2634 5.97599 13.2634 5.97347C13.2634 5.97095 13.2634 5.96843 13.2634 5.9659C13.2634 5.96338 13.2634 5.96085 13.2634 5.95832C13.2634 5.9558 13.2634 5.95327 13.2634 5.95074C13.2634 5.94821 13.2634 5.94568 13.2634 5.94315C13.2634 5.94061 13.2634 5.93808 13.2634 5.93555C13.2634 5.93301 13.2634 5.93047 13.2634 5.92794C13.2634 5.9254 13.2634 5.92286 13.2634 5.92032C13.2634 5.91778 13.2634 5.91524 13.2634 5.91269C13.2634 5.91015 13.2634 5.90761 13.2634 5.90506C13.2634 5.90252 13.2634 5.89997 13.2634 5.89742C13.2634 5.89488 13.2634 5.89233 13.2634 5.88978C13.2634 5.88723 13.2634 5.88468 13.2634 5.88212C13.2634 5.87957 13.2634 5.87702 13.2634 5.87446C13.2634 5.87191 13.2634 5.86936 13.2634 5.8668C13.2634 5.86424 13.2634 5.86168 13.2634 5.85913C13.2634 5.85657 13.2634 5.85401 13.2634 5.85145C13.2634 5.84889 13.2634 5.84632 13.2634 5.84376C13.2634 5.8412 13.2634 5.83863 13.2634 5.83607C13.2634 5.8335 13.2634 5.83094 13.2634 5.82837C13.2634 5.82581 13.2634 5.82324 13.2634 5.82067C13.2634 5.8181 13.2634 5.81553 13.2634 5.81296C13.2634 5.81039 13.2634 5.80782 13.2634 5.80525C13.2634 5.80267 13.2634 5.8001 13.2634 5.79753C13.2634 5.79495 13.2634 5.79238 13.2634 5.7898C13.2634 5.78723 13.2634 5.78465 13.2634 5.78207C13.2634 5.7795 13.2634 5.77692 13.2634 5.77434C13.2634 5.77176 13.2634 5.76918 13.2634 5.7666C13.2634 5.76402 13.2634 5.76144 13.2634 5.75886C13.2634 5.75627 13.2634 5.75369 13.2634 5.75111C13.2634 5.74852 13.2634 5.74594 13.2634 5.74336C13.2634 5.74077 13.2634 5.73819 13.2634 5.7356C13.2634 5.73301 13.2634 5.73043 13.2634 5.72784C13.2634 5.72525 13.2634 5.72266 13.2634 5.72008C13.2634 5.71749 13.2634 5.7149 13.2634 5.71231C13.2634 5.70972 13.2634 5.70713 13.2634 5.70454C13.2634 5.70195 13.2634 5.69936 13.2634 5.69676C13.2634 5.69417 13.2634 5.69158 13.2634 5.68899C13.2634 5.68639 13.2634 5.6838 13.2634 5.68121C13.2634 5.67861 13.2634 5.67602 13.2634 5.67342C13.2634 5.67083 13.2634 5.66823 13.2634 5.66564C13.2634 5.66304 13.2634 5.66044 13.2634 5.65785C13.2634 5.65525 13.2634 5.65265 13.2634 5.65006C13.2634 5.64746 13.2634 5.64486 13.2634 5.64226C13.2634 5.63966 13.2634 5.63707 13.2634 5.63447C13.2634 5.63187 13.2634 5.62927 13.2634 5.62667C13.2634 5.62407 13.2634 5.62147 13.2634 5.61887C13.2634 5.61627 13.2634 5.61367 13.2634 5.61107C13.2634 5.60847 13.2634 5.60587 13.2634 5.60327C13.2634 5.60067 13.2634 5.59807 13.2634 5.59546C13.2634 5.59286 13.2634 5.59026 13.2634 5.58766C13.2634 5.58506 13.2634 5.58246 13.2634 5.57985C13.2634 5.57725 13.2634 5.57465 13.2634 5.57205C13.2634 5.56944 13.2634 5.56684 13.2634 5.56424C13.2634 5.56164 13.2634 5.55903 13.2634 5.55643C13.2634 5.55383 13.2634 5.55123 13.2634 5.54862C13.2634 5.54602 13.2634 5.54342 13.2634 5.54081C13.2634 5.53821 13.2634 5.53561 13.2634 5.533C13.2634 5.5304 13.2634 5.5278 13.2634 5.52519C13.2634 5.52259 13.2634 5.51999 13.2634 5.51739C13.2634 5.51478 13.2634 5.51218 13.2634 5.50958C13.2634 5.50697 13.2634 5.50437 13.2634 5.50177C13.2634 5.49917 13.2634 5.49656 13.2634 5.49396C13.2634 5.49136 13.2634 5.48876 13.2634 5.48615C13.2634 5.48355 13.2634 5.48095 13.2634 5.47835C13.2634 5.47575 13.2634 5.47315 13.2634 5.47054C13.2634 5.46794 13.2634 5.46534 13.2634 5.46274C13.2634 5.46014 13.2634 5.45754 13.2634 5.45494C13.2634 5.45234 13.2634 5.44974 13.2634 5.44714C13.2634 5.44454 13.2634 5.44194 13.2634 5.43934C13.2634 5.43674 13.2634 5.43414 13.2634 5.43154C13.2634 5.42894 13.2634 5.42634 13.2634 5.42375C13.2634 5.42115 13.2634 5.41855 13.2634 5.41595C13.2634 5.41335 13.2634 5.41076 13.2634 5.40816C13.2634 5.40556 13.2634 5.40297 13.2634 5.40037C13.2634 5.39778 13.2634 5.39518 13.2634 5.39259C13.2634 5.38999 13.2634 5.3874 13.2634 5.3848C13.2634 5.38221 13.2634 5.37962 13.2634 5.37702C13.2634 5.37443 13.2634 5.37184 13.2634 5.36925C13.2634 5.36665 13.2634 5.36406 13.2634 5.36147C13.2634 5.35888 13.2634 5.35629 13.2634 5.3537C13.2634 5.35111 13.2634 5.34852 13.2634 5.34593C13.2634 5.34334 13.2634 5.34076 13.2634 5.33817C13.2634 5.33558 13.2634 5.33299 13.2634 5.33041C13.2634 5.32782 13.2634 5.32524 13.2634 5.32265C13.2634 5.32007 13.2634 5.31748 13.2634 5.3149C13.2634 5.31232 13.2634 5.30973 13.2634 5.30715C13.2634 5.30457 13.2634 5.30199 13.2634 5.29941C13.2634 5.29683 13.2634 5.29425 13.2634 5.29167C13.2634 5.28909 13.2634 5.28651 13.2634 5.28394C13.2634 5.28136 13.2634 5.27878 13.2634 5.27621C13.2634 5.27363 13.2634 5.27106 13.2634 5.26848C13.2634 5.26591 13.2634 5.26333 13.2634 5.26076C13.2634 5.25819 13.2634 5.25562 13.2634 5.25305C13.2634 5.25048 13.2634 5.24791 13.2634 5.24534C13.2634 5.24277 13.2634 5.2402 13.2634 5.23764C13.2634 5.23507 13.2634 5.2325 13.2634 5.22994C13.2634 5.22737 13.2634 5.22481 13.2634 5.22225C13.2634 5.21968 13.2634 5.21712 13.2634 5.21456C13.2634 5.212 13.2634 5.20944 13.2634 5.20688C13.2634 5.20432 13.2634 5.20177 13.2634 5.19921C13.2634 5.19665 13.2634 5.1941 13.2634 5.19154C13.2634 5.18899 13.2634 5.18644 13.2634 5.18388C13.2634 5.18133 13.2634 5.17878 13.2634 5.17623C13.2634 5.17368 13.2634 5.17113 13.2634 5.16858C13.2634 5.16604 13.2634 5.16349 13.2634 5.16095C13.2634 5.1584 13.2634 5.15586 13.2634 5.15331C13.2634 5.15077 13.2634 5.14823 13.2634 5.14569C13.2634 5.14315 13.2634 5.14061 13.2634 5.13807C13.2634 5.13553 13.2634 5.133 13.2634 5.13046C13.2634 5.12793 13.2634 5.12539 13.2634 5.12286C13.2634 5.12033 13.2634 5.1178 13.2634 5.11527C13.2634 5.11274 13.2634 5.11021 13.2634 5.10768C13.2634 5.10516 13.2634 5.10263 13.2634 5.10011C13.2634 5.09758 13.2634 5.09506 13.2634 5.09254C13.2634 5.09002 13.2634 5.0875 13.2634 5.08498C13.2634 5.08246 13.2634 5.07994 13.2634 5.07743C13.2634 5.07491 13.2634 5.0724 13.2634 5.06988C13.2634 5.06737 13.2634 5.06486 13.2634 5.06235C13.2634 5.05984 13.2634 5.05733 13.2634 5.05483C13.2634 5.05232 13.2634 5.04982 13.2634 5.04731C13.2634 5.04481 13.2634 5.04231 13.2634 5.03981C13.2634 5.03731 13.2634 5.03481 13.2634 5.03231C13.2634 5.02982 13.2634 5.02732 13.2634 5.02483C13.2634 5.02233 13.2634 5.01984 13.2634 5.01735C13.2634 5.01486 13.2634 5.01237 13.2634 5.00989C13.2634 5.0074 13.2634 5.00491 13.2634 5.00243C13.2634 4.99995 13.2634 4.99747 13.2634 4.99499C13.2634 4.99251 13.2634 4.99003 13.2634 4.98755C13.2634 4.98507 13.2634 4.9826 13.2634 4.98013C13.2634 4.97765 13.2634 4.97518 13.2634 4.97271C13.2634 4.97025 13.2634 4.96778 13.2634 4.96531C13.2634 4.96285 13.2634 4.96038 13.2634 4.95792C13.2634 4.95546 13.2634 4.953 13.2634 4.95054C13.2634 4.94809 13.2634 4.94563 13.2634 4.94318C13.2634 4.94072 13.2634 4.93827 13.2634 4.93582C13.2634 4.93337 13.2634 4.93092 13.2634 4.92847C13.2634 4.92603 13.2634 4.92358 13.2634 4.92114C13.2634 4.9187 13.2634 4.91626 13.2634 4.91382C13.2634 4.91138 13.2634 4.90895 13.2634 4.90651C13.2634 4.90408 13.2634 4.90165 13.2634 4.89922C13.2634 4.89679 13.2634 4.89436 13.2634 4.89193C13.2634 4.88951 13.2634 4.88708 13.2634 4.88466C13.2634 4.88224 13.2634 4.87982 13.2634 4.87741C13.2634 4.87499 13.2634 4.87257 13.2634 4.87016C13.2634 4.86775 13.2634 4.86534 13.2634 4.86293C13.2634 4.86052 13.2634 4.85811 13.2634 4.85571C13.2634 4.85331 13.2634 4.8509 13.2634 4.8485C13.2634 4.84611 13.2634 4.84371 13.2634 4.84131C13.2634 4.83892 13.2634 4.83653 13.2634 4.83414C13.2634 4.83174 13.2634 4.82936 13.2634 4.82697C13.2634 4.82459 13.2634 4.8222 13.2634 4.81982C13.2634 4.81744 13.2634 4.81506 13.2634 4.81269C13.2634 4.81031 13.2634 4.80794 13.2634 4.80556C13.2634 4.80319 13.2634 4.80082 13.2634 4.79846C13.2634 4.79609 13.2634 4.79373 13.2634 4.79136C13.2634 4.789 13.2634 4.78664 13.2634 4.78429C13.2634 4.78193 13.2634 4.77958 13.2634 4.77722C13.2634 4.77487 13.2634 4.77252 13.2634 4.77018C13.2634 4.76783 13.2634 4.76549 13.2634 4.76314C13.2634 4.7608 13.2634 4.75846 13.2634 4.75613C13.2634 4.75379 13.2634 4.75146 13.2634 4.74913C13.2634 4.7468 13.2634 4.74447 13.2634 4.74214C13.2634 4.73981 13.2634 4.73749 13.2634 4.73517C13.2634 4.73285 13.2634 4.73053 13.2634 4.72822C13.2634 4.7259 13.2634 4.72359 13.2634 4.72128C13.2634 4.71897 13.2634 4.71666 13.2634 4.71436C13.2634 4.71205 13.2634 4.70975 13.2634 4.70745C13.2634 4.70515 13.2634 4.70286 13.2634 4.70056C13.2634 4.69827 13.2634 4.69598 13.2634 4.69369C13.2634 4.6914 13.2634 4.68912 13.2634 4.68684C13.2634 4.68456 13.2634 4.68228 13.2634 4.68C13.2634 4.67772 13.2634 4.67545 13.2634 4.67318C13.2634 4.67091 13.2634 4.66864 13.2634 4.66638C13.2634 4.66411 13.2634 4.66185 13.2634 4.65959C13.2634 4.65733 13.2634 4.65508 13.2634 4.65282C13.2634 4.65057 13.2634 4.64832 13.2634 4.64607C13.2634 4.64382 13.2634 4.64158 13.2634 4.63934C13.2634 4.6371 13.2634 4.63486 13.2634 4.63262C13.2634 4.63039 13.2634 4.62816 13.2634 4.62593C13.2634 4.6237 13.2634 4.62147 13.2634 4.61925C13.2634 4.61703 13.2634 4.61481 13.2634 4.61259C13.2634 4.61038 13.2634 4.60816 13.2634 4.60595C13.2634 4.60374 13.2634 4.60153 13.2634 4.59933C13.2634 4.59713 13.2634 4.59493 13.2634 4.59273C13.2634 4.59053 13.2634 4.58834 13.2634 4.58614C13.2634 4.58395 13.2634 4.58177 13.2634 4.57958C13.2634 4.5774 13.2634 4.57521 13.2634 4.57304C13.2634 4.57086 13.2634 4.56868 13.2634 4.56651C13.2634 4.56434 13.2634 4.56217 13.2634 4.56001C13.2634 4.55784 13.2634 4.55568 13.2634 4.55352C13.2634 4.55136 13.2634 4.54921 13.2634 4.54705C13.2634 4.5449 13.2634 4.54275 13.2634 4.54061C13.2634 4.53846 13.2634 4.53632 13.2634 4.53418C13.2634 4.53205 13.2634 4.52991 13.2634 4.52778C13.2634 4.52565 13.2634 4.52352 13.2634 4.5214C13.2634 4.51927 13.2634 4.51715 13.2634 4.51503C13.2634 4.51292 13.2634 4.5108 13.2634 4.50869C13.2634 4.50658 13.2634 4.50448 13.2634 4.50237C13.2634 4.50027 13.2634 4.49817 13.2634 4.49607C13.2634 4.49398 13.2634 4.49188 13.2634 4.48979C13.2634 4.48771 13.2634 4.48562 13.2634 4.48354C13.2634 4.48146 13.2634 4.47938 13.2634 4.4773C13.2634 4.47523 13.2634 4.47316 13.2634 4.47109C13.2634 4.46902 13.2634 4.46696 13.2634 4.4649C13.2634 4.46284 13.2634 4.46078 13.2634 4.45873C13.2634 4.45668 13.2634 4.45463 13.2634 4.45258C13.2634 4.45054 13.2634 4.4485 13.2634 4.44646C13.2634 4.44442 13.2634 4.44239 13.2634 4.44036C13.2634 4.43833 13.2634 4.4363 13.2634 4.43428C13.2634 4.43226 13.2634 4.43024 13.2634 4.42823C13.2634 4.42621 13.2634 4.4242 13.2634 4.42219C13.2634 4.42019 13.2634 4.41818 13.2634 4.41618C13.2634 4.41418 13.2634 4.41219 13.2634 4.4102C13.2634 4.40821 13.2634 4.40622 13.2634 4.40424C13.2634 4.40225 13.2634 4.40027 13.2634 4.3983C13.2634 4.39632 13.2634 4.39435 13.2634 4.39238C13.2634 4.39041 13.2634 4.38845 13.2634 4.38649C13.2634 4.38453 13.2634 4.38258 13.2634 4.38062C13.2634 4.37867 13.2634 4.37672 13.2634 4.37478C13.2634 4.37284 13.2634 4.3709 13.2634 4.36896C13.2634 4.36703 13.2634 4.3651 13.2634 4.36317C13.2634 4.36124 13.2634 4.35932 13.2634 4.3574C13.2634 4.35548 13.2634 4.35357 13.2634 4.35166C13.2634 4.34975 13.2634 4.34784 13.2634 4.34594C13.2634 4.34404 13.2634 4.34214 13.2634 4.34024C13.2634 4.33835 13.2634 4.33646 13.2634 4.33458C13.2634 4.33269 13.2634 4.33081 13.2634 4.32893C13.2634 4.32706 13.2634 4.32518 13.2634 4.32332C13.2634 4.32145 13.2634 4.31958 13.2634 4.31773C13.2634 4.31587 13.2634 4.31401 13.2634 4.31216C13.2634 4.31031 13.2634 4.30846 13.2634 4.30662C13.2634 4.30478 13.2634 4.30294 13.2634 4.30111C13.2634 4.29927 13.2634 4.29744 13.2634 4.29562C13.2634 4.2938 13.2634 4.29198 13.2634 4.29016C13.2634 4.28834 13.2634 4.28653 13.2634 4.28473C13.2634 4.28292 13.2634 4.28112 13.2634 4.27932C13.2634 4.27752 13.2634 4.27573 13.2634 4.27394C13.2634 4.27215 13.2634 4.27037 13.2634 4.26859C13.2634 4.26681 13.2634 4.26503 13.2634 4.26326C13.2634 4.26149 13.2634 4.25973 13.2634 4.25796C13.2634 4.2562 13.2634 4.25445 13.2634 4.25269C13.2634 4.25094 13.2634 4.2492 13.2634 4.24745C13.2634 4.24571 13.2634 4.24397 13.2634 4.24224C13.2634 4.2405 13.2634 4.23878 13.2634 4.23705C13.2634 4.23533 13.2634 4.23361 13.2634 4.23189C13.2634 4.23018 13.2634 4.22847 13.2634 4.22676C13.2634 4.22506 13.2634 4.22336 13.2634 4.22166C13.2634 4.21997 13.2634 4.21827 13.2634 4.21659C13.2634 4.2149 13.2634 4.21322 13.2634 4.21154C13.2634 4.20987 13.2634 4.2082 13.2634 4.20653C13.2634 4.20486 13.2634 4.2032 13.2634 4.20154C13.2634 4.19989 13.2634 4.19823 13.2634 4.19659C13.2634 4.19494 13.2634 4.1933 13.2634 4.19166C13.2634 4.19002 13.2634 4.18839 13.2634 4.18676C13.2634 4.18513 13.2634 4.18351 13.2634 4.18189C13.2634 4.18028 13.2634 4.17866 13.2634 4.17706C13.2634 4.17545 13.2634 4.17385 13.2634 4.17225C13.2634 4.17065 13.2634 4.16906 13.2634 4.16747C13.2634 4.16588 13.2634 4.1643 13.2634 4.16272C13.2634 4.16114 13.2634 4.15957 13.2634 4.15801C13.2634 4.15644 13.2634 4.15488 13.2634 4.15332C13.2634 4.15176 13.2634 4.15021 13.2634 4.14866C13.2634 4.14712 13.2634 4.14557 13.2634 4.14404C13.2634 4.1425 13.2634 4.14097 13.2634 4.13944C13.2634 4.13792 13.2634 4.1364 13.2634 4.13488C13.2634 4.13337 13.2634 4.13186 13.2634 4.13035C13.2634 4.12884 13.2634 4.12734 13.2634 4.12585C13.2634 4.12436 13.2634 4.12287 13.2634 4.12138C13.2634 4.1199 13.2634 4.11842 13.2634 4.11695C13.2634 4.11547 13.2634 4.114 13.2634 4.11254C13.2634 4.11108 13.2634 4.10962 13.2634 4.10817C13.2634 4.10672 13.2634 4.10527 13.2634 4.10383C13.2634 4.10239 13.2634 4.10095 13.2634 4.09952C13.2634 4.09809 13.2634 4.09667 13.2634 4.09525C13.2634 4.09383 13.2634 4.09241 13.2634 4.09101C13.2634 4.0896 13.2634 4.08819 13.2634 4.0868C13.2634 4.0854 13.2634 4.08401 13.2634 4.08262C13.2634 4.08123 13.2634 4.07985 13.2634 4.07848C13.2634 4.0771 13.2634 4.07573 13.2634 4.07437C13.2634 4.073 13.2634 4.07164 13.2634 4.07029C13.2634 4.06894 13.2634 4.06759 13.2634 4.06625C13.2634 4.06491 13.2634 4.06357 13.2634 4.06224C13.2634 4.06091 13.2634 4.05958 13.2634 4.05826C13.2634 4.05694 13.2634 4.05563 13.2634 4.05432C13.2634 4.05302 13.2634 4.05171 13.2634 4.05042C13.2634 4.04912 13.2634 4.04783 13.2634 4.04654C13.2634 4.04526 13.2634 4.04398 13.2634 4.04271C13.2634 4.04143 13.2634 4.04017 13.2634 4.0389C13.2634 4.03764 13.2634 4.03639 13.2634 4.03514C13.2634 4.03388 13.2634 4.03264 13.2634 4.0314C13.2634 4.03016 13.2634 4.02893 13.2634 4.0277C13.2634 4.02648 13.2634 4.02526 13.2634 4.02404C13.2634 4.02283 13.2634 4.02162 13.2634 4.02041C13.2634 4.01921 13.2634 4.01801 13.2634 4.01682C13.2634 4.01563 13.2634 4.01445 13.2634 4.01327C13.2634 4.01209 13.2634 4.01091 13.2634 4.00975C13.2634 4.00858 13.2634 4.00742 13.2634 4.00626C13.2634 4.00511 13.2634 4.00396 13.2634 4.00281C13.2634 4.00167 13.2634 4.00053 13.2634 3.9994C13.2634 3.99827 13.2634 3.99715 13.2634 3.99603C13.2634 3.99491 13.2634 3.9938 13.2634 3.99269C13.2634 3.99158 13.2634 3.99048 13.2634 3.98939C13.2634 3.98829 13.2634 3.9872 13.2634 3.98612C13.2634 3.98504 13.2634 3.98396 13.2634 3.9829C13.2634 3.98183 13.2634 3.98076 13.2634 3.9797C13.2634 3.97865 13.2634 3.9776 13.2634 3.97655C13.2634 3.97551 13.2634 3.97447 13.2634 3.97344C13.2634 3.9724 13.2634 3.97138 13.2634 3.97036C13.2634 3.96934 13.2634 3.96833 13.2634 3.96732C13.2634 3.96631 13.2634 3.96531 13.2634 3.96432C13.2634 3.96332 13.2634 3.96234 13.2634 3.96135C13.2634 3.96037 13.2634 3.9594 13.2634 3.95843C13.2634 3.95746 13.2634 3.9565 13.2634 3.95554H11.2634C11.2634 3.9565 11.2634 3.95746 11.2634 3.95843C11.2634 3.9594 11.2634 3.96037 11.2634 3.96135C11.2634 3.96234 11.2634 3.96332 11.2634 3.96432C11.2634 3.96531 11.2634 3.96631 11.2634 3.96732C11.2634 3.96833 11.2634 3.96934 11.2634 3.97036C11.2634 3.97138 11.2634 3.9724 11.2634 3.97344C11.2634 3.97447 11.2634 3.97551 11.2634 3.97655C11.2634 3.9776 11.2634 3.97865 11.2634 3.9797C11.2634 3.98076 11.2634 3.98183 11.2634 3.9829C11.2634 3.98396 11.2634 3.98504 11.2634 3.98612C11.2634 3.9872 11.2634 3.98829 11.2634 3.98939C11.2634 3.99048 11.2634 3.99158 11.2634 3.99269C11.2634 3.9938 11.2634 3.99491 11.2634 3.99603C11.2634 3.99715 11.2634 3.99827 11.2634 3.9994C11.2634 4.00053 11.2634 4.00167 11.2634 4.00281C11.2634 4.00396 11.2634 4.00511 11.2634 4.00626C11.2634 4.00742 11.2634 4.00858 11.2634 4.00975C11.2634 4.01091 11.2634 4.01209 11.2634 4.01327C11.2634 4.01445 11.2634 4.01563 11.2634 4.01682C11.2634 4.01801 11.2634 4.01921 11.2634 4.02041C11.2634 4.02162 11.2634 4.02283 11.2634 4.02404C11.2634 4.02526 11.2634 4.02648 11.2634 4.0277C11.2634 4.02893 11.2634 4.03016 11.2634 4.0314C11.2634 4.03264 11.2634 4.03388 11.2634 4.03514C11.2634 4.03639 11.2634 4.03764 11.2634 4.0389C11.2634 4.04017 11.2634 4.04143 11.2634 4.04271C11.2634 4.04398 11.2634 4.04526 11.2634 4.04654C11.2634 4.04783 11.2634 4.04912 11.2634 4.05042C11.2634 4.05171 11.2634 4.05302 11.2634 4.05432C11.2634 4.05563 11.2634 4.05694 11.2634 4.05826C11.2634 4.05958 11.2634 4.06091 11.2634 4.06224C11.2634 4.06357 11.2634 4.06491 11.2634 4.06625C11.2634 4.06759 11.2634 4.06894 11.2634 4.07029C11.2634 4.07164 11.2634 4.073 11.2634 4.07437C11.2634 4.07573 11.2634 4.0771 11.2634 4.07848C11.2634 4.07985 11.2634 4.08123 11.2634 4.08262C11.2634 4.08401 11.2634 4.0854 11.2634 4.0868C11.2634 4.08819 11.2634 4.0896 11.2634 4.09101C11.2634 4.09241 11.2634 4.09383 11.2634 4.09525C11.2634 4.09667 11.2634 4.09809 11.2634 4.09952C11.2634 4.10095 11.2634 4.10239 11.2634 4.10383C11.2634 4.10527 11.2634 4.10672 11.2634 4.10817C11.2634 4.10962 11.2634 4.11108 11.2634 4.11254C11.2634 4.114 11.2634 4.11547 11.2634 4.11695C11.2634 4.11842 11.2634 4.1199 11.2634 4.12138C11.2634 4.12287 11.2634 4.12436 11.2634 4.12585C11.2634 4.12734 11.2634 4.12884 11.2634 4.13035C11.2634 4.13186 11.2634 4.13337 11.2634 4.13488C11.2634 4.1364 11.2634 4.13792 11.2634 4.13944C11.2634 4.14097 11.2634 4.1425 11.2634 4.14404C11.2634 4.14557 11.2634 4.14712 11.2634 4.14866C11.2634 4.15021 11.2634 4.15176 11.2634 4.15332C11.2634 4.15488 11.2634 4.15644 11.2634 4.15801C11.2634 4.15957 11.2634 4.16114 11.2634 4.16272C11.2634 4.1643 11.2634 4.16588 11.2634 4.16747C11.2634 4.16906 11.2634 4.17065 11.2634 4.17225C11.2634 4.17385 11.2634 4.17545 11.2634 4.17706C11.2634 4.17866 11.2634 4.18028 11.2634 4.18189C11.2634 4.18351 11.2634 4.18513 11.2634 4.18676C11.2634 4.18839 11.2634 4.19002 11.2634 4.19166C11.2634 4.1933 11.2634 4.19494 11.2634 4.19659C11.2634 4.19823 11.2634 4.19989 11.2634 4.20154C11.2634 4.2032 11.2634 4.20486 11.2634 4.20653C11.2634 4.2082 11.2634 4.20987 11.2634 4.21154C11.2634 4.21322 11.2634 4.2149 11.2634 4.21659C11.2634 4.21827 11.2634 4.21997 11.2634 4.22166C11.2634 4.22336 11.2634 4.22506 11.2634 4.22676C11.2634 4.22847 11.2634 4.23018 11.2634 4.23189C11.2634 4.23361 11.2634 4.23533 11.2634 4.23705C11.2634 4.23878 11.2634 4.2405 11.2634 4.24224C11.2634 4.24397 11.2634 4.24571 11.2634 4.24745C11.2634 4.2492 11.2634 4.25094 11.2634 4.25269C11.2634 4.25445 11.2634 4.2562 11.2634 4.25796C11.2634 4.25973 11.2634 4.26149 11.2634 4.26326C11.2634 4.26503 11.2634 4.26681 11.2634 4.26859C11.2634 4.27037 11.2634 4.27215 11.2634 4.27394C11.2634 4.27573 11.2634 4.27752 11.2634 4.27932C11.2634 4.28112 11.2634 4.28292 11.2634 4.28473C11.2634 4.28653 11.2634 4.28834 11.2634 4.29016C11.2634 4.29198 11.2634 4.2938 11.2634 4.29562C11.2634 4.29744 11.2634 4.29927 11.2634 4.30111C11.2634 4.30294 11.2634 4.30478 11.2634 4.30662C11.2634 4.30846 11.2634 4.31031 11.2634 4.31216C11.2634 4.31401 11.2634 4.31587 11.2634 4.31773C11.2634 4.31958 11.2634 4.32145 11.2634 4.32332C11.2634 4.32518 11.2634 4.32706 11.2634 4.32893C11.2634 4.33081 11.2634 4.33269 11.2634 4.33458C11.2634 4.33646 11.2634 4.33835 11.2634 4.34024C11.2634 4.34214 11.2634 4.34404 11.2634 4.34594C11.2634 4.34784 11.2634 4.34975 11.2634 4.35166C11.2634 4.35357 11.2634 4.35548 11.2634 4.3574C11.2634 4.35932 11.2634 4.36124 11.2634 4.36317C11.2634 4.3651 11.2634 4.36703 11.2634 4.36896C11.2634 4.3709 11.2634 4.37284 11.2634 4.37478C11.2634 4.37672 11.2634 4.37867 11.2634 4.38062C11.2634 4.38258 11.2634 4.38453 11.2634 4.38649C11.2634 4.38845 11.2634 4.39041 11.2634 4.39238C11.2634 4.39435 11.2634 4.39632 11.2634 4.3983C11.2634 4.40027 11.2634 4.40225 11.2634 4.40424C11.2634 4.40622 11.2634 4.40821 11.2634 4.4102C11.2634 4.41219 11.2634 4.41418 11.2634 4.41618C11.2634 4.41818 11.2634 4.42019 11.2634 4.42219C11.2634 4.4242 11.2634 4.42621 11.2634 4.42823C11.2634 4.43024 11.2634 4.43226 11.2634 4.43428C11.2634 4.4363 11.2634 4.43833 11.2634 4.44036C11.2634 4.44239 11.2634 4.44442 11.2634 4.44646C11.2634 4.4485 11.2634 4.45054 11.2634 4.45258C11.2634 4.45463 11.2634 4.45668 11.2634 4.45873C11.2634 4.46078 11.2634 4.46284 11.2634 4.4649C11.2634 4.46696 11.2634 4.46902 11.2634 4.47109C11.2634 4.47316 11.2634 4.47523 11.2634 4.4773C11.2634 4.47938 11.2634 4.48146 11.2634 4.48354C11.2634 4.48562 11.2634 4.48771 11.2634 4.48979C11.2634 4.49188 11.2634 4.49398 11.2634 4.49607C11.2634 4.49817 11.2634 4.50027 11.2634 4.50237C11.2634 4.50448 11.2634 4.50658 11.2634 4.50869C11.2634 4.5108 11.2634 4.51292 11.2634 4.51503C11.2634 4.51715 11.2634 4.51927 11.2634 4.5214C11.2634 4.52352 11.2634 4.52565 11.2634 4.52778C11.2634 4.52991 11.2634 4.53205 11.2634 4.53418C11.2634 4.53632 11.2634 4.53846 11.2634 4.54061C11.2634 4.54275 11.2634 4.5449 11.2634 4.54705C11.2634 4.54921 11.2634 4.55136 11.2634 4.55352C11.2634 4.55568 11.2634 4.55784 11.2634 4.56001C11.2634 4.56217 11.2634 4.56434 11.2634 4.56651C11.2634 4.56868 11.2634 4.57086 11.2634 4.57304C11.2634 4.57521 11.2634 4.5774 11.2634 4.57958C11.2634 4.58177 11.2634 4.58395 11.2634 4.58614C11.2634 4.58834 11.2634 4.59053 11.2634 4.59273C11.2634 4.59493 11.2634 4.59713 11.2634 4.59933C11.2634 4.60153 11.2634 4.60374 11.2634 4.60595C11.2634 4.60816 11.2634 4.61038 11.2634 4.61259C11.2634 4.61481 11.2634 4.61703 11.2634 4.61925C11.2634 4.62147 11.2634 4.6237 11.2634 4.62593C11.2634 4.62816 11.2634 4.63039 11.2634 4.63262C11.2634 4.63486 11.2634 4.6371 11.2634 4.63934C11.2634 4.64158 11.2634 4.64382 11.2634 4.64607C11.2634 4.64832 11.2634 4.65057 11.2634 4.65282C11.2634 4.65508 11.2634 4.65733 11.2634 4.65959C11.2634 4.66185 11.2634 4.66411 11.2634 4.66638C11.2634 4.66864 11.2634 4.67091 11.2634 4.67318C11.2634 4.67545 11.2634 4.67772 11.2634 4.68C11.2634 4.68228 11.2634 4.68456 11.2634 4.68684C11.2634 4.68912 11.2634 4.6914 11.2634 4.69369C11.2634 4.69598 11.2634 4.69827 11.2634 4.70056C11.2634 4.70286 11.2634 4.70515 11.2634 4.70745C11.2634 4.70975 11.2634 4.71205 11.2634 4.71436C11.2634 4.71666 11.2634 4.71897 11.2634 4.72128C11.2634 4.72359 11.2634 4.7259 11.2634 4.72822C11.2634 4.73053 11.2634 4.73285 11.2634 4.73517C11.2634 4.73749 11.2634 4.73981 11.2634 4.74214C11.2634 4.74447 11.2634 4.7468 11.2634 4.74913C11.2634 4.75146 11.2634 4.75379 11.2634 4.75613C11.2634 4.75846 11.2634 4.7608 11.2634 4.76314C11.2634 4.76549 11.2634 4.76783 11.2634 4.77018C11.2634 4.77252 11.2634 4.77487 11.2634 4.77722C11.2634 4.77958 11.2634 4.78193 11.2634 4.78429C11.2634 4.78664 11.2634 4.789 11.2634 4.79136C11.2634 4.79373 11.2634 4.79609 11.2634 4.79846C11.2634 4.80082 11.2634 4.80319 11.2634 4.80556C11.2634 4.80794 11.2634 4.81031 11.2634 4.81269C11.2634 4.81506 11.2634 4.81744 11.2634 4.81982C11.2634 4.8222 11.2634 4.82459 11.2634 4.82697C11.2634 4.82936 11.2634 4.83174 11.2634 4.83414C11.2634 4.83653 11.2634 4.83892 11.2634 4.84131C11.2634 4.84371 11.2634 4.84611 11.2634 4.8485C11.2634 4.8509 11.2634 4.85331 11.2634 4.85571C11.2634 4.85811 11.2634 4.86052 11.2634 4.86293C11.2634 4.86534 11.2634 4.86775 11.2634 4.87016C11.2634 4.87257 11.2634 4.87499 11.2634 4.87741C11.2634 4.87982 11.2634 4.88224 11.2634 4.88466C11.2634 4.88708 11.2634 4.88951 11.2634 4.89193C11.2634 4.89436 11.2634 4.89679 11.2634 4.89922C11.2634 4.90165 11.2634 4.90408 11.2634 4.90651C11.2634 4.90895 11.2634 4.91138 11.2634 4.91382C11.2634 4.91626 11.2634 4.9187 11.2634 4.92114C11.2634 4.92358 11.2634 4.92603 11.2634 4.92847C11.2634 4.93092 11.2634 4.93337 11.2634 4.93582C11.2634 4.93827 11.2634 4.94072 11.2634 4.94318C11.2634 4.94563 11.2634 4.94809 11.2634 4.95054C11.2634 4.953 11.2634 4.95546 11.2634 4.95792C11.2634 4.96038 11.2634 4.96285 11.2634 4.96531C11.2634 4.96778 11.2634 4.97025 11.2634 4.97271C11.2634 4.97518 11.2634 4.97765 11.2634 4.98013C11.2634 4.9826 11.2634 4.98507 11.2634 4.98755C11.2634 4.99003 11.2634 4.99251 11.2634 4.99499C11.2634 4.99747 11.2634 4.99995 11.2634 5.00243C11.2634 5.00491 11.2634 5.0074 11.2634 5.00989C11.2634 5.01237 11.2634 5.01486 11.2634 5.01735C11.2634 5.01984 11.2634 5.02233 11.2634 5.02483C11.2634 5.02732 11.2634 5.02982 11.2634 5.03231C11.2634 5.03481 11.2634 5.03731 11.2634 5.03981C11.2634 5.04231 11.2634 5.04481 11.2634 5.04731C11.2634 5.04982 11.2634 5.05232 11.2634 5.05483C11.2634 5.05733 11.2634 5.05984 11.2634 5.06235C11.2634 5.06486 11.2634 5.06737 11.2634 5.06988C11.2634 5.0724 11.2634 5.07491 11.2634 5.07743C11.2634 5.07994 11.2634 5.08246 11.2634 5.08498C11.2634 5.0875 11.2634 5.09002 11.2634 5.09254C11.2634 5.09506 11.2634 5.09758 11.2634 5.10011C11.2634 5.10263 11.2634 5.10516 11.2634 5.10768C11.2634 5.11021 11.2634 5.11274 11.2634 5.11527C11.2634 5.1178 11.2634 5.12033 11.2634 5.12286C11.2634 5.12539 11.2634 5.12793 11.2634 5.13046C11.2634 5.133 11.2634 5.13553 11.2634 5.13807C11.2634 5.14061 11.2634 5.14315 11.2634 5.14569C11.2634 5.14823 11.2634 5.15077 11.2634 5.15331C11.2634 5.15586 11.2634 5.1584 11.2634 5.16095C11.2634 5.16349 11.2634 5.16604 11.2634 5.16858C11.2634 5.17113 11.2634 5.17368 11.2634 5.17623C11.2634 5.17878 11.2634 5.18133 11.2634 5.18388C11.2634 5.18644 11.2634 5.18899 11.2634 5.19154C11.2634 5.1941 11.2634 5.19665 11.2634 5.19921C11.2634 5.20177 11.2634 5.20432 11.2634 5.20688C11.2634 5.20944 11.2634 5.212 11.2634 5.21456C11.2634 5.21712 11.2634 5.21968 11.2634 5.22225C11.2634 5.22481 11.2634 5.22737 11.2634 5.22994C11.2634 5.2325 11.2634 5.23507 11.2634 5.23764C11.2634 5.2402 11.2634 5.24277 11.2634 5.24534C11.2634 5.24791 11.2634 5.25048 11.2634 5.25305C11.2634 5.25562 11.2634 5.25819 11.2634 5.26076C11.2634 5.26333 11.2634 5.26591 11.2634 5.26848C11.2634 5.27106 11.2634 5.27363 11.2634 5.27621C11.2634 5.27878 11.2634 5.28136 11.2634 5.28394C11.2634 5.28651 11.2634 5.28909 11.2634 5.29167C11.2634 5.29425 11.2634 5.29683 11.2634 5.29941C11.2634 5.30199 11.2634 5.30457 11.2634 5.30715C11.2634 5.30973 11.2634 5.31232 11.2634 5.3149C11.2634 5.31748 11.2634 5.32007 11.2634 5.32265C11.2634 5.32524 11.2634 5.32782 11.2634 5.33041C11.2634 5.33299 11.2634 5.33558 11.2634 5.33817C11.2634 5.34076 11.2634 5.34334 11.2634 5.34593C11.2634 5.34852 11.2634 5.35111 11.2634 5.3537C11.2634 5.35629 11.2634 5.35888 11.2634 5.36147C11.2634 5.36406 11.2634 5.36665 11.2634 5.36925C11.2634 5.37184 11.2634 5.37443 11.2634 5.37702C11.2634 5.37962 11.2634 5.38221 11.2634 5.3848C11.2634 5.3874 11.2634 5.38999 11.2634 5.39259C11.2634 5.39518 11.2634 5.39778 11.2634 5.40037C11.2634 5.40297 11.2634 5.40556 11.2634 5.40816C11.2634 5.41076 11.2634 5.41335 11.2634 5.41595C11.2634 5.41855 11.2634 5.42115 11.2634 5.42375C11.2634 5.42634 11.2634 5.42894 11.2634 5.43154C11.2634 5.43414 11.2634 5.43674 11.2634 5.43934C11.2634 5.44194 11.2634 5.44454 11.2634 5.44714C11.2634 5.44974 11.2634 5.45234 11.2634 5.45494C11.2634 5.45754 11.2634 5.46014 11.2634 5.46274C11.2634 5.46534 11.2634 5.46794 11.2634 5.47054C11.2634 5.47315 11.2634 5.47575 11.2634 5.47835C11.2634 5.48095 11.2634 5.48355 11.2634 5.48615C11.2634 5.48876 11.2634 5.49136 11.2634 5.49396C11.2634 5.49656 11.2634 5.49917 11.2634 5.50177C11.2634 5.50437 11.2634 5.50697 11.2634 5.50958C11.2634 5.51218 11.2634 5.51478 11.2634 5.51739C11.2634 5.51999 11.2634 5.52259 11.2634 5.52519C11.2634 5.5278 11.2634 5.5304 11.2634 5.533C11.2634 5.53561 11.2634 5.53821 11.2634 5.54081C11.2634 5.54342 11.2634 5.54602 11.2634 5.54862C11.2634 5.55123 11.2634 5.55383 11.2634 5.55643C11.2634 5.55903 11.2634 5.56164 11.2634 5.56424C11.2634 5.56684 11.2634 5.56944 11.2634 5.57205C11.2634 5.57465 11.2634 5.57725 11.2634 5.57985C11.2634 5.58246 11.2634 5.58506 11.2634 5.58766C11.2634 5.59026 11.2634 5.59286 11.2634 5.59546C11.2634 5.59807 11.2634 5.60067 11.2634 5.60327C11.2634 5.60587 11.2634 5.60847 11.2634 5.61107C11.2634 5.61367 11.2634 5.61627 11.2634 5.61887C11.2634 5.62147 11.2634 5.62407 11.2634 5.62667C11.2634 5.62927 11.2634 5.63187 11.2634 5.63447C11.2634 5.63707 11.2634 5.63966 11.2634 5.64226C11.2634 5.64486 11.2634 5.64746 11.2634 5.65006C11.2634 5.65265 11.2634 5.65525 11.2634 5.65785C11.2634 5.66044 11.2634 5.66304 11.2634 5.66564C11.2634 5.66823 11.2634 5.67083 11.2634 5.67342C11.2634 5.67602 11.2634 5.67861 11.2634 5.68121C11.2634 5.6838 11.2634 5.68639 11.2634 5.68899C11.2634 5.69158 11.2634 5.69417 11.2634 5.69676C11.2634 5.69936 11.2634 5.70195 11.2634 5.70454C11.2634 5.70713 11.2634 5.70972 11.2634 5.71231C11.2634 5.7149 11.2634 5.71749 11.2634 5.72008C11.2634 5.72266 11.2634 5.72525 11.2634 5.72784C11.2634 5.73043 11.2634 5.73301 11.2634 5.7356C11.2634 5.73819 11.2634 5.74077 11.2634 5.74336C11.2634 5.74594 11.2634 5.74852 11.2634 5.75111C11.2634 5.75369 11.2634 5.75627 11.2634 5.75886C11.2634 5.76144 11.2634 5.76402 11.2634 5.7666C11.2634 5.76918 11.2634 5.77176 11.2634 5.77434C11.2634 5.77692 11.2634 5.7795 11.2634 5.78207C11.2634 5.78465 11.2634 5.78723 11.2634 5.7898C11.2634 5.79238 11.2634 5.79495 11.2634 5.79753C11.2634 5.8001 11.2634 5.80267 11.2634 5.80525C11.2634 5.80782 11.2634 5.81039 11.2634 5.81296C11.2634 5.81553 11.2634 5.8181 11.2634 5.82067C11.2634 5.82324 11.2634 5.82581 11.2634 5.82837C11.2634 5.83094 11.2634 5.8335 11.2634 5.83607C11.2634 5.83863 11.2634 5.8412 11.2634 5.84376C11.2634 5.84632 11.2634 5.84889 11.2634 5.85145C11.2634 5.85401 11.2634 5.85657 11.2634 5.85913C11.2634 5.86168 11.2634 5.86424 11.2634 5.8668C11.2634 5.86936 11.2634 5.87191 11.2634 5.87446C11.2634 5.87702 11.2634 5.87957 11.2634 5.88212C11.2634 5.88468 11.2634 5.88723 11.2634 5.88978C11.2634 5.89233 11.2634 5.89488 11.2634 5.89742C11.2634 5.89997 11.2634 5.90252 11.2634 5.90506C11.2634 5.90761 11.2634 5.91015 11.2634 5.91269C11.2634 5.91524 11.2634 5.91778 11.2634 5.92032C11.2634 5.92286 11.2634 5.9254 11.2634 5.92794C11.2634 5.93047 11.2634 5.93301 11.2634 5.93555C11.2634 5.93808 11.2634 5.94061 11.2634 5.94315C11.2634 5.94568 11.2634 5.94821 11.2634 5.95074C11.2634 5.95327 11.2634 5.9558 11.2634 5.95832C11.2634 5.96085 11.2634 5.96338 11.2634 5.9659C11.2634 5.96843 11.2634 5.97095 11.2634 5.97347C11.2634 5.97599 11.2634 5.97851 11.2634 5.98103C11.2634 5.98355 11.2634 5.98607 11.2634 5.98858C11.2634 5.9911 11.2634 5.99361 11.2634 5.99612C11.2634 5.99864 11.2634 6.00115 11.2634 6.00366C11.2634 6.00617 11.2634 6.00867 11.2634 6.01118C11.2634 6.01369 11.2634 6.01619 11.2634 6.01869C11.2634 6.0212 11.2634 6.0237 11.2634 6.0262C11.2634 6.0287 11.2634 6.0312 11.2634 6.0337C11.2634 6.03619 11.2634 6.03869 11.2634 6.04118C11.2634 6.04367 11.2634 6.04617 11.2634 6.04866C11.2634 6.05115 11.2634 6.05364 11.2634 6.05612C11.2634 6.05861 11.2634 6.06109 11.2634 6.06358C11.2634 6.06606 11.2634 6.06854 11.2634 6.07102C11.2634 6.0735 11.2634 6.07598 11.2634 6.07846C11.2634 6.08093 11.2634 6.08341 11.2634 6.08588C11.2634 6.08835 11.2634 6.09082 11.2634 6.09329C11.2634 6.09576 11.2634 6.09823 11.2634 6.1007C11.2634 6.10316 11.2634 6.10562 11.2634 6.10809C11.2634 6.11055 11.2634 6.11301 11.2634 6.11547C11.2634 6.11792 11.2634 6.12038 11.2634 6.12283C11.2634 6.12529 11.2634 6.12774 11.2634 6.13019C11.2634 6.13264 11.2634 6.13509 11.2634 6.13753C11.2634 6.13998 11.2634 6.14242 11.2634 6.14487C11.2634 6.14731 11.2634 6.14975 11.2634 6.15219C11.2634 6.15462 11.2634 6.15706 11.2634 6.1595C11.2634 6.16193 11.2634 6.16436 11.2634 6.16679C11.2634 6.16922 11.2634 6.17165 11.2634 6.17407C11.2634 6.1765 11.2634 6.17892 11.2634 6.18135C11.2634 6.18377 11.2634 6.18619 11.2634 6.1886C11.2634 6.19102 11.2634 6.19344 11.2634 6.19585C11.2634 6.19826 11.2634 6.20067 11.2634 6.20308C11.2634 6.20549 11.2634 6.20789 11.2634 6.2103C11.2634 6.2127 11.2634 6.2151 11.2634 6.2175C11.2634 6.2199 11.2634 6.2223 11.2634 6.2247C11.2634 6.22709 11.2634 6.22948 11.2634 6.23187C11.2634 6.23426 11.2634 6.23665 11.2634 6.23904C11.2634 6.24142 11.2634 6.24381 11.2634 6.24619C11.2634 6.24857 11.2634 6.25095 11.2634 6.25332C11.2634 6.2557 11.2634 6.25807 11.2634 6.26044C11.2634 6.26282 11.2634 6.26518 11.2634 6.26755C11.2634 6.26992 11.2634 6.27228 11.2634 6.27464C11.2634 6.27701 11.2634 6.27936 11.2634 6.28172C11.2634 6.28408 11.2634 6.28643 11.2634 6.28878C11.2634 6.29114 11.2634 6.29348 11.2634 6.29583C11.2634 6.29818 11.2634 6.30052 11.2634 6.30286C11.2634 6.30521 11.2634 6.30754 11.2634 6.30988C11.2634 6.31222 11.2634 6.31455 11.2634 6.31688C11.2634 6.31921 11.2634 6.32154 11.2634 6.32387C11.2634 6.32619 11.2634 6.32852 11.2634 6.33084C11.2634 6.33316 11.2634 6.33548 11.2634 6.33779C11.2634 6.34011 11.2634 6.34242 11.2634 6.34473C11.2634 6.34704 11.2634 6.34935 11.2634 6.35165C11.2634 6.35396 11.2634 6.35626 11.2634 6.35856C11.2634 6.36085 11.2634 6.36315 11.2634 6.36544C11.2634 6.36774 11.2634 6.37003 11.2634 6.37232C11.2634 6.3746 11.2634 6.37689 11.2634 6.37917C11.2634 6.38145 11.2634 6.38373 11.2634 6.38601C11.2634 6.38828 11.2634 6.39056 11.2634 6.39283C11.2634 6.3951 11.2634 6.39737 11.2634 6.39963C11.2634 6.4019 11.2634 6.40416 11.2634 6.40642C11.2634 6.40868 11.2634 6.41093 11.2634 6.41319C11.2634 6.41544 11.2634 6.41769 11.2634 6.41994C11.2634 6.42218 11.2634 6.42443 11.2634 6.42667C11.2634 6.42891 11.2634 6.43115 11.2634 6.43338C11.2634 6.43562 11.2634 6.43785 11.2634 6.44008C11.2634 6.44231 11.2634 6.44453 11.2634 6.44676C11.2634 6.44898 11.2634 6.4512 11.2634 6.45342C11.2634 6.45563 11.2634 6.45785 11.2634 6.46006C11.2634 6.46227 11.2634 6.46447 11.2634 6.46668C11.2634 6.46888 11.2634 6.47108 11.2634 6.47328C11.2634 6.47548 11.2634 6.47767 11.2634 6.47986C11.2634 6.48206 11.2634 6.48424 11.2634 6.48643C11.2634 6.48861 11.2634 6.49079 11.2634 6.49297C11.2634 6.49515 11.2634 6.49733 11.2634 6.4995C11.2634 6.50167 11.2634 6.50384 11.2634 6.506C11.2634 6.50817 11.2634 6.51033 11.2634 6.51249C11.2634 6.51465 11.2634 6.5168 11.2634 6.51895C11.2634 6.52111 11.2634 6.52325 11.2634 6.5254C11.2634 6.52754 11.2634 6.52969 11.2634 6.53182C11.2634 6.53396 11.2634 6.5361 11.2634 6.53823C11.2634 6.54036 11.2634 6.54249 11.2634 6.54461C11.2634 6.54674 11.2634 6.54886 11.2634 6.55097C11.2634 6.55309 11.2634 6.55521 11.2634 6.55732C11.2634 6.55943 11.2634 6.56153 11.2634 6.56364C11.2634 6.56574 11.2634 6.56784 11.2634 6.56994C11.2634 6.57203 11.2634 6.57412 11.2634 6.57621C11.2634 6.5783 11.2634 6.58039 11.2634 6.58247C11.2634 6.58455 11.2634 6.58663 11.2634 6.5887C11.2634 6.59078 11.2634 6.59285 11.2634 6.59492C11.2634 6.59699 11.2634 6.59905 11.2634 6.60111C11.2634 6.60317 11.2634 6.60522 11.2634 6.60728C11.2634 6.60933 11.2634 6.61138 11.2634 6.61342C11.2634 6.61547 11.2634 6.61751 11.2634 6.61955C11.2634 6.62159 11.2634 6.62362 11.2634 6.62565C11.2634 6.62768 11.2634 6.6297 11.2634 6.63173C11.2634 6.63375 11.2634 6.63577 11.2634 6.63778C11.2634 6.6398 11.2634 6.64181 11.2634 6.64382C11.2634 6.64582 11.2634 6.64783 11.2634 6.64982C11.2634 6.65182 11.2634 6.65382 11.2634 6.65581C11.2634 6.6578 11.2634 6.65979 11.2634 6.66177C11.2634 6.66376 11.2634 6.66574 11.2634 6.66771C11.2634 6.66969 11.2634 6.67166 11.2634 6.67363C11.2634 6.67559 11.2634 6.67756 11.2634 6.67952C11.2634 6.68148 11.2634 6.68343 11.2634 6.68538C11.2634 6.68734 11.2634 6.68928 11.2634 6.69123C11.2634 6.69317 11.2634 6.69511 11.2634 6.69704C11.2634 6.69898 11.2634 6.70091 11.2634 6.70284C11.2634 6.70477 11.2634 6.70669 11.2634 6.70861C11.2634 6.71053 11.2634 6.71244 11.2634 6.71435C11.2634 6.71626 11.2634 6.71817 11.2634 6.72007C11.2634 6.72197 11.2634 6.72387 11.2634 6.72576C11.2634 6.72766 11.2634 6.72955 11.2634 6.73143C11.2634 6.73332 11.2634 6.7352 11.2634 6.73707C11.2634 6.73895 11.2634 6.74082 11.2634 6.74269C11.2634 6.74456 11.2634 6.74642 11.2634 6.74828C11.2634 6.75014 11.2634 6.752 11.2634 6.75385C11.2634 6.7557 11.2634 6.75755 11.2634 6.75939C11.2634 6.76123 11.2634 6.76307 11.2634 6.7649C11.2634 6.76673 11.2634 6.76856 11.2634 6.77039C11.2634 6.77221 11.2634 6.77403 11.2634 6.77585C11.2634 6.77766 11.2634 6.77947 11.2634 6.78128C11.2634 6.78309 11.2634 6.78489 11.2634 6.78669C11.2634 6.78849 11.2634 6.79028 11.2634 6.79207C11.2634 6.79386 11.2634 6.79564 11.2634 6.79742C11.2634 6.7992 11.2634 6.80098 11.2634 6.80275C11.2634 6.80452 11.2634 6.80628 11.2634 6.80804C11.2634 6.8098 11.2634 6.81156 11.2634 6.81331C11.2634 6.81507 11.2634 6.81681 11.2634 6.81856C11.2634 6.8203 11.2634 6.82204 11.2634 6.82377C11.2634 6.8255 11.2634 6.82723 11.2634 6.82896C11.2634 6.83068 11.2634 6.8324 11.2634 6.83412C11.2634 6.83583 11.2634 6.83754 11.2634 6.83925C11.2634 6.84095 11.2634 6.84265 11.2634 6.84435C11.2634 6.84604 11.2634 6.84773 11.2634 6.84942C11.2634 6.85111 11.2634 6.85279 11.2634 6.85446C11.2634 6.85614 11.2634 6.85781 11.2634 6.85948C11.2634 6.86115 11.2634 6.86281 11.2634 6.86446C11.2634 6.86612 11.2634 6.86777 11.2634 6.86942C11.2634 6.87107 11.2634 6.87271 11.2634 6.87435C11.2634 6.87599 11.2634 6.87762 11.2634 6.87925C11.2634 6.88087 11.2634 6.8825 11.2634 6.88411C11.2634 6.88573 11.2634 6.88734 11.2634 6.88895C11.2634 6.89056 11.2634 6.89216 11.2634 6.89376C11.2634 6.89536 11.2634 6.89695 11.2634 6.89854C11.2634 6.90013 11.2634 6.90171 11.2634 6.90329C11.2634 6.90486 11.2634 6.90644 11.2634 6.908C11.2634 6.90957 11.2634 6.91113 11.2634 6.91269C11.2634 6.91425 11.2634 6.9158 11.2634 6.91735C11.2634 6.91889 11.2634 6.92043 11.2634 6.92197C11.2634 6.92351 11.2634 6.92504 11.2634 6.92656C11.2634 6.92809 11.2634 6.92961 11.2634 6.93113C11.2634 6.93264 11.2634 6.93415 11.2634 6.93566C11.2634 6.93716 11.2634 6.93866 11.2634 6.94016C11.2634 6.94165 11.2634 6.94314 11.2634 6.94463C11.2634 6.94611 11.2634 6.94759 11.2634 6.94906C11.2634 6.95054 11.2634 6.952 11.2634 6.95347C11.2634 6.95493 11.2634 6.95639 11.2634 6.95784C11.2634 6.95929 11.2634 6.96074 11.2634 6.96218C11.2634 6.96362 11.2634 6.96506 11.2634 6.96649C11.2634 6.96792 11.2634 6.96934 11.2634 6.97076C11.2634 6.97218 11.2634 6.97359 11.2634 6.975C11.2634 6.97641 11.2634 6.97781 11.2634 6.97921C11.2634 6.98061 11.2634 6.982 11.2634 6.98339C11.2634 6.98478 11.2634 6.98616 11.2634 6.98753C11.2634 6.98891 11.2634 6.99028 11.2634 6.99164C11.2634 6.99301 11.2634 6.99436 11.2634 6.99572C11.2634 6.99707 11.2634 6.99842 11.2634 6.99976C11.2634 7.0011 11.2634 7.00244 11.2634 7.00377C11.2634 7.0051 11.2634 7.00642 11.2634 7.00774C11.2634 7.00906 11.2634 7.01038 11.2634 7.01169C11.2634 7.01299 11.2634 7.0143 11.2634 7.01559C11.2634 7.01689 11.2634 7.01818 11.2634 7.01946C11.2634 7.02075 11.2634 7.02203 11.2634 7.0233C11.2634 7.02458 11.2634 7.02584 11.2634 7.0271C11.2634 7.02837 11.2634 7.02962 11.2634 7.03087C11.2634 7.03212 11.2634 7.03337 11.2634 7.03461C11.2634 7.03584 11.2634 7.03708 11.2634 7.0383C11.2634 7.03953 11.2634 7.04075 11.2634 7.04197C11.2634 7.04318 11.2634 7.04439 11.2634 7.04559C11.2634 7.0468 11.2634 7.04799 11.2634 7.04919C11.2634 7.05038 11.2634 7.05156 11.2634 7.05274C11.2634 7.05392 11.2634 7.05509 11.2634 7.05626C11.2634 7.05743 11.2634 7.05859 11.2634 7.05975C11.2634 7.0609 11.2634 7.06205 11.2634 7.06319C11.2634 7.06434 11.2634 7.06547 11.2634 7.06661C11.2634 7.06774 11.2634 7.06886 11.2634 7.06998C11.2634 7.0711 11.2634 7.07221 11.2634 7.07332C11.2634 7.07443 11.2634 7.07553 11.2634 7.07662C11.2634 7.07772 11.2634 7.0788 11.2634 7.07989C11.2634 7.08097 11.2634 7.08204 11.2634 7.08311C11.2634 7.08418 11.2634 7.08525 11.2634 7.0863C11.2634 7.08736 11.2634 7.08841 11.2634 7.08946C11.2634 7.0905 11.2634 7.09154 11.2634 7.09257C11.2634 7.0936 11.2634 7.09463 11.2634 7.09565C11.2634 7.09667 11.2634 7.09768 11.2634 7.09869C11.2634 7.0997 11.2634 7.1007 11.2634 7.10169C11.2634 7.10269 11.2634 7.10367 11.2634 7.10465C11.2634 7.10564 11.2634 7.10661 11.2634 7.10758C11.2634 7.10855 11.2634 7.10951 11.2634 7.11047H13.2634ZM13.2634 3.95554C13.2634 1.41092 11.139 -0.59375 8.59067 -0.59375V1.40625C10.0994 1.40625 11.2634 2.57938 11.2634 3.95554H13.2634ZM8.59067 -0.59375C6.04232 -0.59375 3.91797 1.41092 3.91797 3.95554H5.91797C5.91797 2.57938 7.08191 1.40625 8.59067 1.40625V-0.59375ZM3.91797 3.95554C3.91797 3.9565 3.91797 3.95746 3.91797 3.95843C3.91797 3.9594 3.91797 3.96037 3.91797 3.96135C3.91797 3.96234 3.91797 3.96332 3.91797 3.96432C3.91797 3.96531 3.91797 3.96631 3.91797 3.96732C3.91797 3.96833 3.91797 3.96934 3.91797 3.97036C3.91797 3.97138 3.91797 3.9724 3.91797 3.97344C3.91797 3.97447 3.91797 3.97551 3.91797 3.97655C3.91797 3.9776 3.91797 3.97865 3.91797 3.9797C3.91797 3.98076 3.91797 3.98183 3.91797 3.9829C3.91797 3.98396 3.91797 3.98504 3.91797 3.98612C3.91797 3.9872 3.91797 3.98829 3.91797 3.98939C3.91797 3.99048 3.91797 3.99158 3.91797 3.99269C3.91797 3.9938 3.91797 3.99491 3.91797 3.99603C3.91797 3.99715 3.91797 3.99827 3.91797 3.9994C3.91797 4.00053 3.91797 4.00167 3.91797 4.00281C3.91797 4.00396 3.91797 4.00511 3.91797 4.00626C3.91797 4.00742 3.91797 4.00858 3.91797 4.00975C3.91797 4.01091 3.91797 4.01209 3.91797 4.01327C3.91797 4.01445 3.91797 4.01563 3.91797 4.01682C3.91797 4.01801 3.91797 4.01921 3.91797 4.02041C3.91797 4.02162 3.91797 4.02283 3.91797 4.02404C3.91797 4.02526 3.91797 4.02648 3.91797 4.0277C3.91797 4.02893 3.91797 4.03016 3.91797 4.0314C3.91797 4.03264 3.91797 4.03388 3.91797 4.03514C3.91797 4.03639 3.91797 4.03764 3.91797 4.0389C3.91797 4.04017 3.91797 4.04143 3.91797 4.04271C3.91797 4.04398 3.91797 4.04526 3.91797 4.04654C3.91797 4.04783 3.91797 4.04912 3.91797 4.05042C3.91797 4.05171 3.91797 4.05302 3.91797 4.05432C3.91797 4.05563 3.91797 4.05694 3.91797 4.05826C3.91797 4.05958 3.91797 4.06091 3.91797 4.06224C3.91797 4.06357 3.91797 4.06491 3.91797 4.06625C3.91797 4.06759 3.91797 4.06894 3.91797 4.07029C3.91797 4.07164 3.91797 4.073 3.91797 4.07437C3.91797 4.07573 3.91797 4.0771 3.91797 4.07848C3.91797 4.07985 3.91797 4.08123 3.91797 4.08262C3.91797 4.08401 3.91797 4.0854 3.91797 4.0868C3.91797 4.08819 3.91797 4.0896 3.91797 4.09101C3.91797 4.09241 3.91797 4.09383 3.91797 4.09525C3.91797 4.09667 3.91797 4.09809 3.91797 4.09952C3.91797 4.10095 3.91797 4.10239 3.91797 4.10383C3.91797 4.10527 3.91797 4.10672 3.91797 4.10817C3.91797 4.10962 3.91797 4.11108 3.91797 4.11254C3.91797 4.114 3.91797 4.11547 3.91797 4.11695C3.91797 4.11842 3.91797 4.1199 3.91797 4.12138C3.91797 4.12287 3.91797 4.12436 3.91797 4.12585C3.91797 4.12734 3.91797 4.12884 3.91797 4.13035C3.91797 4.13186 3.91797 4.13337 3.91797 4.13488C3.91797 4.1364 3.91797 4.13792 3.91797 4.13944C3.91797 4.14097 3.91797 4.1425 3.91797 4.14404C3.91797 4.14557 3.91797 4.14712 3.91797 4.14866C3.91797 4.15021 3.91797 4.15176 3.91797 4.15332C3.91797 4.15488 3.91797 4.15644 3.91797 4.15801C3.91797 4.15957 3.91797 4.16114 3.91797 4.16272C3.91797 4.1643 3.91797 4.16588 3.91797 4.16747C3.91797 4.16906 3.91797 4.17065 3.91797 4.17225C3.91797 4.17385 3.91797 4.17545 3.91797 4.17706C3.91797 4.17866 3.91797 4.18028 3.91797 4.18189C3.91797 4.18351 3.91797 4.18513 3.91797 4.18676C3.91797 4.18839 3.91797 4.19002 3.91797 4.19166C3.91797 4.1933 3.91797 4.19494 3.91797 4.19659C3.91797 4.19823 3.91797 4.19989 3.91797 4.20154C3.91797 4.2032 3.91797 4.20486 3.91797 4.20653C3.91797 4.2082 3.91797 4.20987 3.91797 4.21154C3.91797 4.21322 3.91797 4.2149 3.91797 4.21659C3.91797 4.21827 3.91797 4.21997 3.91797 4.22166C3.91797 4.22336 3.91797 4.22506 3.91797 4.22676C3.91797 4.22847 3.91797 4.23018 3.91797 4.23189C3.91797 4.23361 3.91797 4.23533 3.91797 4.23705C3.91797 4.23878 3.91797 4.2405 3.91797 4.24224C3.91797 4.24397 3.91797 4.24571 3.91797 4.24745C3.91797 4.2492 3.91797 4.25094 3.91797 4.25269C3.91797 4.25445 3.91797 4.2562 3.91797 4.25796C3.91797 4.25973 3.91797 4.26149 3.91797 4.26326C3.91797 4.26503 3.91797 4.26681 3.91797 4.26859C3.91797 4.27037 3.91797 4.27215 3.91797 4.27394C3.91797 4.27573 3.91797 4.27752 3.91797 4.27932C3.91797 4.28112 3.91797 4.28292 3.91797 4.28473C3.91797 4.28653 3.91797 4.28834 3.91797 4.29016C3.91797 4.29198 3.91797 4.2938 3.91797 4.29562C3.91797 4.29744 3.91797 4.29927 3.91797 4.30111C3.91797 4.30294 3.91797 4.30478 3.91797 4.30662C3.91797 4.30846 3.91797 4.31031 3.91797 4.31216C3.91797 4.31401 3.91797 4.31587 3.91797 4.31773C3.91797 4.31958 3.91797 4.32145 3.91797 4.32332C3.91797 4.32518 3.91797 4.32706 3.91797 4.32893C3.91797 4.33081 3.91797 4.33269 3.91797 4.33458C3.91797 4.33646 3.91797 4.33835 3.91797 4.34024C3.91797 4.34214 3.91797 4.34404 3.91797 4.34594C3.91797 4.34784 3.91797 4.34975 3.91797 4.35166C3.91797 4.35357 3.91797 4.35548 3.91797 4.3574C3.91797 4.35932 3.91797 4.36124 3.91797 4.36317C3.91797 4.3651 3.91797 4.36703 3.91797 4.36896C3.91797 4.3709 3.91797 4.37284 3.91797 4.37478C3.91797 4.37672 3.91797 4.37867 3.91797 4.38062C3.91797 4.38258 3.91797 4.38453 3.91797 4.38649C3.91797 4.38845 3.91797 4.39041 3.91797 4.39238C3.91797 4.39435 3.91797 4.39632 3.91797 4.3983C3.91797 4.40027 3.91797 4.40225 3.91797 4.40424C3.91797 4.40622 3.91797 4.40821 3.91797 4.4102C3.91797 4.41219 3.91797 4.41418 3.91797 4.41618C3.91797 4.41818 3.91797 4.42019 3.91797 4.42219C3.91797 4.4242 3.91797 4.42621 3.91797 4.42823C3.91797 4.43024 3.91797 4.43226 3.91797 4.43428C3.91797 4.4363 3.91797 4.43833 3.91797 4.44036C3.91797 4.44239 3.91797 4.44442 3.91797 4.44646C3.91797 4.4485 3.91797 4.45054 3.91797 4.45258C3.91797 4.45463 3.91797 4.45668 3.91797 4.45873C3.91797 4.46078 3.91797 4.46284 3.91797 4.4649C3.91797 4.46696 3.91797 4.46902 3.91797 4.47109C3.91797 4.47316 3.91797 4.47523 3.91797 4.4773C3.91797 4.47938 3.91797 4.48146 3.91797 4.48354C3.91797 4.48562 3.91797 4.48771 3.91797 4.48979C3.91797 4.49188 3.91797 4.49398 3.91797 4.49607C3.91797 4.49817 3.91797 4.50027 3.91797 4.50237C3.91797 4.50448 3.91797 4.50658 3.91797 4.50869C3.91797 4.5108 3.91797 4.51292 3.91797 4.51503C3.91797 4.51715 3.91797 4.51927 3.91797 4.5214C3.91797 4.52352 3.91797 4.52565 3.91797 4.52778C3.91797 4.52991 3.91797 4.53205 3.91797 4.53418C3.91797 4.53632 3.91797 4.53846 3.91797 4.54061C3.91797 4.54275 3.91797 4.5449 3.91797 4.54705C3.91797 4.54921 3.91797 4.55136 3.91797 4.55352C3.91797 4.55568 3.91797 4.55784 3.91797 4.56001C3.91797 4.56217 3.91797 4.56434 3.91797 4.56651C3.91797 4.56868 3.91797 4.57086 3.91797 4.57304C3.91797 4.57521 3.91797 4.5774 3.91797 4.57958C3.91797 4.58177 3.91797 4.58395 3.91797 4.58614C3.91797 4.58834 3.91797 4.59053 3.91797 4.59273C3.91797 4.59493 3.91797 4.59713 3.91797 4.59933C3.91797 4.60153 3.91797 4.60374 3.91797 4.60595C3.91797 4.60816 3.91797 4.61038 3.91797 4.61259C3.91797 4.61481 3.91797 4.61703 3.91797 4.61925C3.91797 4.62147 3.91797 4.6237 3.91797 4.62593C3.91797 4.62816 3.91797 4.63039 3.91797 4.63262C3.91797 4.63486 3.91797 4.6371 3.91797 4.63934C3.91797 4.64158 3.91797 4.64382 3.91797 4.64607C3.91797 4.64832 3.91797 4.65057 3.91797 4.65282C3.91797 4.65508 3.91797 4.65733 3.91797 4.65959C3.91797 4.66185 3.91797 4.66411 3.91797 4.66638C3.91797 4.66864 3.91797 4.67091 3.91797 4.67318C3.91797 4.67545 3.91797 4.67772 3.91797 4.68C3.91797 4.68228 3.91797 4.68456 3.91797 4.68684C3.91797 4.68912 3.91797 4.6914 3.91797 4.69369C3.91797 4.69598 3.91797 4.69827 3.91797 4.70056C3.91797 4.70286 3.91797 4.70515 3.91797 4.70745C3.91797 4.70975 3.91797 4.71205 3.91797 4.71436C3.91797 4.71666 3.91797 4.71897 3.91797 4.72128C3.91797 4.72359 3.91797 4.7259 3.91797 4.72822C3.91797 4.73053 3.91797 4.73285 3.91797 4.73517C3.91797 4.73749 3.91797 4.73981 3.91797 4.74214C3.91797 4.74447 3.91797 4.7468 3.91797 4.74913C3.91797 4.75146 3.91797 4.75379 3.91797 4.75613C3.91797 4.75846 3.91797 4.7608 3.91797 4.76314C3.91797 4.76549 3.91797 4.76783 3.91797 4.77018C3.91797 4.77252 3.91797 4.77487 3.91797 4.77722C3.91797 4.77958 3.91797 4.78193 3.91797 4.78429C3.91797 4.78664 3.91797 4.789 3.91797 4.79136C3.91797 4.79373 3.91797 4.79609 3.91797 4.79846C3.91797 4.80082 3.91797 4.80319 3.91797 4.80556C3.91797 4.80794 3.91797 4.81031 3.91797 4.81269C3.91797 4.81506 3.91797 4.81744 3.91797 4.81982C3.91797 4.8222 3.91797 4.82459 3.91797 4.82697C3.91797 4.82936 3.91797 4.83174 3.91797 4.83414C3.91797 4.83653 3.91797 4.83892 3.91797 4.84131C3.91797 4.84371 3.91797 4.84611 3.91797 4.8485C3.91797 4.8509 3.91797 4.85331 3.91797 4.85571C3.91797 4.85811 3.91797 4.86052 3.91797 4.86293C3.91797 4.86534 3.91797 4.86775 3.91797 4.87016C3.91797 4.87257 3.91797 4.87499 3.91797 4.87741C3.91797 4.87982 3.91797 4.88224 3.91797 4.88466C3.91797 4.88708 3.91797 4.88951 3.91797 4.89193C3.91797 4.89436 3.91797 4.89679 3.91797 4.89922C3.91797 4.90165 3.91797 4.90408 3.91797 4.90651C3.91797 4.90895 3.91797 4.91138 3.91797 4.91382C3.91797 4.91626 3.91797 4.9187 3.91797 4.92114C3.91797 4.92358 3.91797 4.92603 3.91797 4.92847C3.91797 4.93092 3.91797 4.93337 3.91797 4.93582C3.91797 4.93827 3.91797 4.94072 3.91797 4.94318C3.91797 4.94563 3.91797 4.94809 3.91797 4.95054C3.91797 4.953 3.91797 4.95546 3.91797 4.95792C3.91797 4.96038 3.91797 4.96285 3.91797 4.96531C3.91797 4.96778 3.91797 4.97025 3.91797 4.97271C3.91797 4.97518 3.91797 4.97765 3.91797 4.98013C3.91797 4.9826 3.91797 4.98507 3.91797 4.98755C3.91797 4.99003 3.91797 4.99251 3.91797 4.99499C3.91797 4.99747 3.91797 4.99995 3.91797 5.00243C3.91797 5.00491 3.91797 5.0074 3.91797 5.00989C3.91797 5.01237 3.91797 5.01486 3.91797 5.01735C3.91797 5.01984 3.91797 5.02233 3.91797 5.02483C3.91797 5.02732 3.91797 5.02982 3.91797 5.03231C3.91797 5.03481 3.91797 5.03731 3.91797 5.03981C3.91797 5.04231 3.91797 5.04481 3.91797 5.04731C3.91797 5.04982 3.91797 5.05232 3.91797 5.05483C3.91797 5.05733 3.91797 5.05984 3.91797 5.06235C3.91797 5.06486 3.91797 5.06737 3.91797 5.06988C3.91797 5.0724 3.91797 5.07491 3.91797 5.07743C3.91797 5.07994 3.91797 5.08246 3.91797 5.08498C3.91797 5.0875 3.91797 5.09002 3.91797 5.09254C3.91797 5.09506 3.91797 5.09758 3.91797 5.10011C3.91797 5.10263 3.91797 5.10516 3.91797 5.10768C3.91797 5.11021 3.91797 5.11274 3.91797 5.11527C3.91797 5.1178 3.91797 5.12033 3.91797 5.12286C3.91797 5.12539 3.91797 5.12793 3.91797 5.13046C3.91797 5.133 3.91797 5.13553 3.91797 5.13807C3.91797 5.14061 3.91797 5.14315 3.91797 5.14569C3.91797 5.14823 3.91797 5.15077 3.91797 5.15331C3.91797 5.15586 3.91797 5.1584 3.91797 5.16095C3.91797 5.16349 3.91797 5.16604 3.91797 5.16858C3.91797 5.17113 3.91797 5.17368 3.91797 5.17623C3.91797 5.17878 3.91797 5.18133 3.91797 5.18388C3.91797 5.18644 3.91797 5.18899 3.91797 5.19154C3.91797 5.1941 3.91797 5.19665 3.91797 5.19921C3.91797 5.20177 3.91797 5.20432 3.91797 5.20688C3.91797 5.20944 3.91797 5.212 3.91797 5.21456C3.91797 5.21712 3.91797 5.21968 3.91797 5.22225C3.91797 5.22481 3.91797 5.22737 3.91797 5.22994C3.91797 5.2325 3.91797 5.23507 3.91797 5.23764C3.91797 5.2402 3.91797 5.24277 3.91797 5.24534C3.91797 5.24791 3.91797 5.25048 3.91797 5.25305C3.91797 5.25562 3.91797 5.25819 3.91797 5.26076C3.91797 5.26333 3.91797 5.26591 3.91797 5.26848C3.91797 5.27106 3.91797 5.27363 3.91797 5.27621C3.91797 5.27878 3.91797 5.28136 3.91797 5.28394C3.91797 5.28651 3.91797 5.28909 3.91797 5.29167C3.91797 5.29425 3.91797 5.29683 3.91797 5.29941C3.91797 5.30199 3.91797 5.30457 3.91797 5.30715C3.91797 5.30973 3.91797 5.31232 3.91797 5.3149C3.91797 5.31748 3.91797 5.32007 3.91797 5.32265C3.91797 5.32524 3.91797 5.32782 3.91797 5.33041C3.91797 5.33299 3.91797 5.33558 3.91797 5.33817C3.91797 5.34076 3.91797 5.34334 3.91797 5.34593C3.91797 5.34852 3.91797 5.35111 3.91797 5.3537C3.91797 5.35629 3.91797 5.35888 3.91797 5.36147C3.91797 5.36406 3.91797 5.36665 3.91797 5.36925C3.91797 5.37184 3.91797 5.37443 3.91797 5.37702C3.91797 5.37962 3.91797 5.38221 3.91797 5.3848C3.91797 5.3874 3.91797 5.38999 3.91797 5.39259C3.91797 5.39518 3.91797 5.39778 3.91797 5.40037C3.91797 5.40297 3.91797 5.40556 3.91797 5.40816C3.91797 5.41076 3.91797 5.41335 3.91797 5.41595C3.91797 5.41855 3.91797 5.42115 3.91797 5.42375C3.91797 5.42634 3.91797 5.42894 3.91797 5.43154C3.91797 5.43414 3.91797 5.43674 3.91797 5.43934C3.91797 5.44194 3.91797 5.44454 3.91797 5.44714C3.91797 5.44974 3.91797 5.45234 3.91797 5.45494C3.91797 5.45754 3.91797 5.46014 3.91797 5.46274C3.91797 5.46534 3.91797 5.46794 3.91797 5.47054C3.91797 5.47315 3.91797 5.47575 3.91797 5.47835C3.91797 5.48095 3.91797 5.48355 3.91797 5.48615C3.91797 5.48876 3.91797 5.49136 3.91797 5.49396C3.91797 5.49656 3.91797 5.49917 3.91797 5.50177C3.91797 5.50437 3.91797 5.50697 3.91797 5.50958C3.91797 5.51218 3.91797 5.51478 3.91797 5.51739C3.91797 5.51999 3.91797 5.52259 3.91797 5.52519C3.91797 5.5278 3.91797 5.5304 3.91797 5.533C3.91797 5.53561 3.91797 5.53821 3.91797 5.54081C3.91797 5.54342 3.91797 5.54602 3.91797 5.54862C3.91797 5.55123 3.91797 5.55383 3.91797 5.55643C3.91797 5.55903 3.91797 5.56164 3.91797 5.56424C3.91797 5.56684 3.91797 5.56944 3.91797 5.57205C3.91797 5.57465 3.91797 5.57725 3.91797 5.57985C3.91797 5.58246 3.91797 5.58506 3.91797 5.58766C3.91797 5.59026 3.91797 5.59286 3.91797 5.59546C3.91797 5.59807 3.91797 5.60067 3.91797 5.60327C3.91797 5.60587 3.91797 5.60847 3.91797 5.61107C3.91797 5.61367 3.91797 5.61627 3.91797 5.61887C3.91797 5.62147 3.91797 5.62407 3.91797 5.62667C3.91797 5.62927 3.91797 5.63187 3.91797 5.63447C3.91797 5.63707 3.91797 5.63966 3.91797 5.64226C3.91797 5.64486 3.91797 5.64746 3.91797 5.65006C3.91797 5.65265 3.91797 5.65525 3.91797 5.65785C3.91797 5.66044 3.91797 5.66304 3.91797 5.66564C3.91797 5.66823 3.91797 5.67083 3.91797 5.67342C3.91797 5.67602 3.91797 5.67861 3.91797 5.68121C3.91797 5.6838 3.91797 5.68639 3.91797 5.68899C3.91797 5.69158 3.91797 5.69417 3.91797 5.69676C3.91797 5.69936 3.91797 5.70195 3.91797 5.70454C3.91797 5.70713 3.91797 5.70972 3.91797 5.71231C3.91797 5.7149 3.91797 5.71749 3.91797 5.72008C3.91797 5.72266 3.91797 5.72525 3.91797 5.72784C3.91797 5.73043 3.91797 5.73301 3.91797 5.7356C3.91797 5.73819 3.91797 5.74077 3.91797 5.74336C3.91797 5.74594 3.91797 5.74852 3.91797 5.75111C3.91797 5.75369 3.91797 5.75627 3.91797 5.75886C3.91797 5.76144 3.91797 5.76402 3.91797 5.7666C3.91797 5.76918 3.91797 5.77176 3.91797 5.77434C3.91797 5.77692 3.91797 5.7795 3.91797 5.78207C3.91797 5.78465 3.91797 5.78723 3.91797 5.7898C3.91797 5.79238 3.91797 5.79495 3.91797 5.79753C3.91797 5.8001 3.91797 5.80267 3.91797 5.80525C3.91797 5.80782 3.91797 5.81039 3.91797 5.81296C3.91797 5.81553 3.91797 5.8181 3.91797 5.82067C3.91797 5.82324 3.91797 5.82581 3.91797 5.82837C3.91797 5.83094 3.91797 5.8335 3.91797 5.83607C3.91797 5.83863 3.91797 5.8412 3.91797 5.84376C3.91797 5.84632 3.91797 5.84889 3.91797 5.85145C3.91797 5.85401 3.91797 5.85657 3.91797 5.85913C3.91797 5.86168 3.91797 5.86424 3.91797 5.8668C3.91797 5.86936 3.91797 5.87191 3.91797 5.87446C3.91797 5.87702 3.91797 5.87957 3.91797 5.88212C3.91797 5.88468 3.91797 5.88723 3.91797 5.88978C3.91797 5.89233 3.91797 5.89488 3.91797 5.89742C3.91797 5.89997 3.91797 5.90252 3.91797 5.90506C3.91797 5.90761 3.91797 5.91015 3.91797 5.91269C3.91797 5.91524 3.91797 5.91778 3.91797 5.92032C3.91797 5.92286 3.91797 5.9254 3.91797 5.92794C3.91797 5.93047 3.91797 5.93301 3.91797 5.93555C3.91797 5.93808 3.91797 5.94061 3.91797 5.94315C3.91797 5.94568 3.91797 5.94821 3.91797 5.95074C3.91797 5.95327 3.91797 5.9558 3.91797 5.95832C3.91797 5.96085 3.91797 5.96338 3.91797 5.9659C3.91797 5.96843 3.91797 5.97095 3.91797 5.97347C3.91797 5.97599 3.91797 5.97851 3.91797 5.98103C3.91797 5.98355 3.91797 5.98607 3.91797 5.98858C3.91797 5.9911 3.91797 5.99361 3.91797 5.99612C3.91797 5.99864 3.91797 6.00115 3.91797 6.00366C3.91797 6.00617 3.91797 6.00867 3.91797 6.01118C3.91797 6.01369 3.91797 6.01619 3.91797 6.01869C3.91797 6.0212 3.91797 6.0237 3.91797 6.0262C3.91797 6.0287 3.91797 6.0312 3.91797 6.0337C3.91797 6.03619 3.91797 6.03869 3.91797 6.04118C3.91797 6.04367 3.91797 6.04617 3.91797 6.04866C3.91797 6.05115 3.91797 6.05364 3.91797 6.05612C3.91797 6.05861 3.91797 6.06109 3.91797 6.06358C3.91797 6.06606 3.91797 6.06854 3.91797 6.07102C3.91797 6.0735 3.91797 6.07598 3.91797 6.07846C3.91797 6.08093 3.91797 6.08341 3.91797 6.08588C3.91797 6.08835 3.91797 6.09082 3.91797 6.09329C3.91797 6.09576 3.91797 6.09823 3.91797 6.1007C3.91797 6.10316 3.91797 6.10562 3.91797 6.10809C3.91797 6.11055 3.91797 6.11301 3.91797 6.11547C3.91797 6.11792 3.91797 6.12038 3.91797 6.12283C3.91797 6.12529 3.91797 6.12774 3.91797 6.13019C3.91797 6.13264 3.91797 6.13509 3.91797 6.13753C3.91797 6.13998 3.91797 6.14242 3.91797 6.14487C3.91797 6.14731 3.91797 6.14975 3.91797 6.15219C3.91797 6.15462 3.91797 6.15706 3.91797 6.1595C3.91797 6.16193 3.91797 6.16436 3.91797 6.16679C3.91797 6.16922 3.91797 6.17165 3.91797 6.17407C3.91797 6.1765 3.91797 6.17892 3.91797 6.18135C3.91797 6.18377 3.91797 6.18619 3.91797 6.1886C3.91797 6.19102 3.91797 6.19344 3.91797 6.19585C3.91797 6.19826 3.91797 6.20067 3.91797 6.20308C3.91797 6.20549 3.91797 6.20789 3.91797 6.2103C3.91797 6.2127 3.91797 6.2151 3.91797 6.2175C3.91797 6.2199 3.91797 6.2223 3.91797 6.2247C3.91797 6.22709 3.91797 6.22948 3.91797 6.23187C3.91797 6.23426 3.91797 6.23665 3.91797 6.23904C3.91797 6.24142 3.91797 6.24381 3.91797 6.24619C3.91797 6.24857 3.91797 6.25095 3.91797 6.25332C3.91797 6.2557 3.91797 6.25807 3.91797 6.26044C3.91797 6.26282 3.91797 6.26518 3.91797 6.26755C3.91797 6.26992 3.91797 6.27228 3.91797 6.27464C3.91797 6.27701 3.91797 6.27936 3.91797 6.28172C3.91797 6.28408 3.91797 6.28643 3.91797 6.28878C3.91797 6.29114 3.91797 6.29348 3.91797 6.29583C3.91797 6.29818 3.91797 6.30052 3.91797 6.30286C3.91797 6.30521 3.91797 6.30754 3.91797 6.30988C3.91797 6.31222 3.91797 6.31455 3.91797 6.31688C3.91797 6.31921 3.91797 6.32154 3.91797 6.32387C3.91797 6.32619 3.91797 6.32852 3.91797 6.33084C3.91797 6.33316 3.91797 6.33548 3.91797 6.33779C3.91797 6.34011 3.91797 6.34242 3.91797 6.34473C3.91797 6.34704 3.91797 6.34935 3.91797 6.35165C3.91797 6.35396 3.91797 6.35626 3.91797 6.35856C3.91797 6.36085 3.91797 6.36315 3.91797 6.36544C3.91797 6.36774 3.91797 6.37003 3.91797 6.37232C3.91797 6.3746 3.91797 6.37689 3.91797 6.37917C3.91797 6.38145 3.91797 6.38373 3.91797 6.38601C3.91797 6.38828 3.91797 6.39056 3.91797 6.39283C3.91797 6.3951 3.91797 6.39737 3.91797 6.39963C3.91797 6.4019 3.91797 6.40416 3.91797 6.40642C3.91797 6.40868 3.91797 6.41093 3.91797 6.41319C3.91797 6.41544 3.91797 6.41769 3.91797 6.41994C3.91797 6.42218 3.91797 6.42443 3.91797 6.42667C3.91797 6.42891 3.91797 6.43115 3.91797 6.43338C3.91797 6.43562 3.91797 6.43785 3.91797 6.44008C3.91797 6.44231 3.91797 6.44453 3.91797 6.44676C3.91797 6.44898 3.91797 6.4512 3.91797 6.45342C3.91797 6.45563 3.91797 6.45785 3.91797 6.46006C3.91797 6.46227 3.91797 6.46447 3.91797 6.46668C3.91797 6.46888 3.91797 6.47108 3.91797 6.47328C3.91797 6.47548 3.91797 6.47767 3.91797 6.47986C3.91797 6.48206 3.91797 6.48424 3.91797 6.48643C3.91797 6.48861 3.91797 6.49079 3.91797 6.49297C3.91797 6.49515 3.91797 6.49733 3.91797 6.4995C3.91797 6.50167 3.91797 6.50384 3.91797 6.506C3.91797 6.50817 3.91797 6.51033 3.91797 6.51249C3.91797 6.51465 3.91797 6.5168 3.91797 6.51895C3.91797 6.52111 3.91797 6.52325 3.91797 6.5254C3.91797 6.52754 3.91797 6.52969 3.91797 6.53182C3.91797 6.53396 3.91797 6.5361 3.91797 6.53823C3.91797 6.54036 3.91797 6.54249 3.91797 6.54461C3.91797 6.54674 3.91797 6.54886 3.91797 6.55097C3.91797 6.55309 3.91797 6.55521 3.91797 6.55732C3.91797 6.55943 3.91797 6.56153 3.91797 6.56364C3.91797 6.56574 3.91797 6.56784 3.91797 6.56994C3.91797 6.57203 3.91797 6.57412 3.91797 6.57621C3.91797 6.5783 3.91797 6.58039 3.91797 6.58247C3.91797 6.58455 3.91797 6.58663 3.91797 6.5887C3.91797 6.59078 3.91797 6.59285 3.91797 6.59492C3.91797 6.59699 3.91797 6.59905 3.91797 6.60111C3.91797 6.60317 3.91797 6.60522 3.91797 6.60728C3.91797 6.60933 3.91797 6.61138 3.91797 6.61342C3.91797 6.61547 3.91797 6.61751 3.91797 6.61955C3.91797 6.62159 3.91797 6.62362 3.91797 6.62565C3.91797 6.62768 3.91797 6.6297 3.91797 6.63173C3.91797 6.63375 3.91797 6.63577 3.91797 6.63778C3.91797 6.6398 3.91797 6.64181 3.91797 6.64382C3.91797 6.64582 3.91797 6.64783 3.91797 6.64982C3.91797 6.65182 3.91797 6.65382 3.91797 6.65581C3.91797 6.6578 3.91797 6.65979 3.91797 6.66177C3.91797 6.66376 3.91797 6.66574 3.91797 6.66771C3.91797 6.66969 3.91797 6.67166 3.91797 6.67363C3.91797 6.67559 3.91797 6.67756 3.91797 6.67952C3.91797 6.68148 3.91797 6.68343 3.91797 6.68538C3.91797 6.68734 3.91797 6.68928 3.91797 6.69123C3.91797 6.69317 3.91797 6.69511 3.91797 6.69704C3.91797 6.69898 3.91797 6.70091 3.91797 6.70284C3.91797 6.70477 3.91797 6.70669 3.91797 6.70861C3.91797 6.71053 3.91797 6.71244 3.91797 6.71435C3.91797 6.71626 3.91797 6.71817 3.91797 6.72007C3.91797 6.72197 3.91797 6.72387 3.91797 6.72576C3.91797 6.72766 3.91797 6.72955 3.91797 6.73143C3.91797 6.73332 3.91797 6.7352 3.91797 6.73707C3.91797 6.73895 3.91797 6.74082 3.91797 6.74269C3.91797 6.74456 3.91797 6.74642 3.91797 6.74828C3.91797 6.75014 3.91797 6.752 3.91797 6.75385C3.91797 6.7557 3.91797 6.75755 3.91797 6.75939C3.91797 6.76123 3.91797 6.76307 3.91797 6.7649C3.91797 6.76673 3.91797 6.76856 3.91797 6.77039C3.91797 6.77221 3.91797 6.77403 3.91797 6.77585C3.91797 6.77766 3.91797 6.77947 3.91797 6.78128C3.91797 6.78309 3.91797 6.78489 3.91797 6.78669C3.91797 6.78849 3.91797 6.79028 3.91797 6.79207C3.91797 6.79386 3.91797 6.79564 3.91797 6.79742C3.91797 6.7992 3.91797 6.80098 3.91797 6.80275C3.91797 6.80452 3.91797 6.80628 3.91797 6.80804C3.91797 6.8098 3.91797 6.81156 3.91797 6.81331C3.91797 6.81507 3.91797 6.81681 3.91797 6.81856C3.91797 6.8203 3.91797 6.82204 3.91797 6.82377C3.91797 6.8255 3.91797 6.82723 3.91797 6.82896C3.91797 6.83068 3.91797 6.8324 3.91797 6.83412C3.91797 6.83583 3.91797 6.83754 3.91797 6.83925C3.91797 6.84095 3.91797 6.84265 3.91797 6.84435C3.91797 6.84604 3.91797 6.84773 3.91797 6.84942C3.91797 6.85111 3.91797 6.85279 3.91797 6.85446C3.91797 6.85614 3.91797 6.85781 3.91797 6.85948C3.91797 6.86115 3.91797 6.86281 3.91797 6.86446C3.91797 6.86612 3.91797 6.86777 3.91797 6.86942C3.91797 6.87107 3.91797 6.87271 3.91797 6.87435C3.91797 6.87599 3.91797 6.87762 3.91797 6.87925C3.91797 6.88087 3.91797 6.8825 3.91797 6.88411C3.91797 6.88573 3.91797 6.88734 3.91797 6.88895C3.91797 6.89056 3.91797 6.89216 3.91797 6.89376C3.91797 6.89536 3.91797 6.89695 3.91797 6.89854C3.91797 6.90013 3.91797 6.90171 3.91797 6.90329C3.91797 6.90486 3.91797 6.90644 3.91797 6.908C3.91797 6.90957 3.91797 6.91113 3.91797 6.91269C3.91797 6.91425 3.91797 6.9158 3.91797 6.91735C3.91797 6.91889 3.91797 6.92043 3.91797 6.92197C3.91797 6.92351 3.91797 6.92504 3.91797 6.92656C3.91797 6.92809 3.91797 6.92961 3.91797 6.93113C3.91797 6.93264 3.91797 6.93415 3.91797 6.93566C3.91797 6.93716 3.91797 6.93866 3.91797 6.94016C3.91797 6.94165 3.91797 6.94314 3.91797 6.94463C3.91797 6.94611 3.91797 6.94759 3.91797 6.94906C3.91797 6.95054 3.91797 6.952 3.91797 6.95347C3.91797 6.95493 3.91797 6.95639 3.91797 6.95784C3.91797 6.95929 3.91797 6.96074 3.91797 6.96218C3.91797 6.96362 3.91797 6.96506 3.91797 6.96649C3.91797 6.96792 3.91797 6.96934 3.91797 6.97076C3.91797 6.97218 3.91797 6.97359 3.91797 6.975C3.91797 6.97641 3.91797 6.97781 3.91797 6.97921C3.91797 6.98061 3.91797 6.982 3.91797 6.98339C3.91797 6.98478 3.91797 6.98616 3.91797 6.98753C3.91797 6.98891 3.91797 6.99028 3.91797 6.99164C3.91797 6.99301 3.91797 6.99436 3.91797 6.99572C3.91797 6.99707 3.91797 6.99842 3.91797 6.99976C3.91797 7.0011 3.91797 7.00244 3.91797 7.00377C3.91797 7.0051 3.91797 7.00642 3.91797 7.00774C3.91797 7.00906 3.91797 7.01038 3.91797 7.01169C3.91797 7.01299 3.91797 7.0143 3.91797 7.01559C3.91797 7.01689 3.91797 7.01818 3.91797 7.01946C3.91797 7.02075 3.91797 7.02203 3.91797 7.0233C3.91797 7.02458 3.91797 7.02584 3.91797 7.0271C3.91797 7.02837 3.91797 7.02962 3.91797 7.03087C3.91797 7.03212 3.91797 7.03337 3.91797 7.03461C3.91797 7.03584 3.91797 7.03708 3.91797 7.0383C3.91797 7.03953 3.91797 7.04075 3.91797 7.04197C3.91797 7.04318 3.91797 7.04439 3.91797 7.04559C3.91797 7.0468 3.91797 7.04799 3.91797 7.04919C3.91797 7.05038 3.91797 7.05156 3.91797 7.05274C3.91797 7.05392 3.91797 7.05509 3.91797 7.05626C3.91797 7.05743 3.91797 7.05859 3.91797 7.05975C3.91797 7.0609 3.91797 7.06205 3.91797 7.06319C3.91797 7.06434 3.91797 7.06547 3.91797 7.06661C3.91797 7.06774 3.91797 7.06886 3.91797 7.06998C3.91797 7.0711 3.91797 7.07221 3.91797 7.07332C3.91797 7.07443 3.91797 7.07553 3.91797 7.07662C3.91797 7.07772 3.91797 7.0788 3.91797 7.07989C3.91797 7.08097 3.91797 7.08204 3.91797 7.08311C3.91797 7.08418 3.91797 7.08525 3.91797 7.0863C3.91797 7.08736 3.91797 7.08841 3.91797 7.08946C3.91797 7.0905 3.91797 7.09154 3.91797 7.09257C3.91797 7.0936 3.91797 7.09463 3.91797 7.09565C3.91797 7.09667 3.91797 7.09768 3.91797 7.09869C3.91797 7.0997 3.91797 7.1007 3.91797 7.10169C3.91797 7.10269 3.91797 7.10367 3.91797 7.10465C3.91797 7.10564 3.91797 7.10661 3.91797 7.10758C3.91797 7.10855 3.91797 7.10951 3.91797 7.11047H5.91797C5.91797 7.10951 5.91797 7.10855 5.91797 7.10758C5.91797 7.10661 5.91797 7.10564 5.91797 7.10465C5.91797 7.10367 5.91797 7.10269 5.91797 7.10169C5.91797 7.1007 5.91797 7.0997 5.91797 7.09869C5.91797 7.09768 5.91797 7.09667 5.91797 7.09565C5.91797 7.09463 5.91797 7.0936 5.91797 7.09257C5.91797 7.09154 5.91797 7.0905 5.91797 7.08946C5.91797 7.08841 5.91797 7.08736 5.91797 7.0863C5.91797 7.08525 5.91797 7.08418 5.91797 7.08311C5.91797 7.08204 5.91797 7.08097 5.91797 7.07989C5.91797 7.0788 5.91797 7.07772 5.91797 7.07662C5.91797 7.07553 5.91797 7.07443 5.91797 7.07332C5.91797 7.07221 5.91797 7.0711 5.91797 7.06998C5.91797 7.06886 5.91797 7.06774 5.91797 7.06661C5.91797 7.06547 5.91797 7.06434 5.91797 7.06319C5.91797 7.06205 5.91797 7.0609 5.91797 7.05975C5.91797 7.05859 5.91797 7.05743 5.91797 7.05626C5.91797 7.05509 5.91797 7.05392 5.91797 7.05274C5.91797 7.05156 5.91797 7.05038 5.91797 7.04919C5.91797 7.04799 5.91797 7.0468 5.91797 7.04559C5.91797 7.04439 5.91797 7.04318 5.91797 7.04197C5.91797 7.04075 5.91797 7.03953 5.91797 7.0383C5.91797 7.03708 5.91797 7.03584 5.91797 7.03461C5.91797 7.03337 5.91797 7.03212 5.91797 7.03087C5.91797 7.02962 5.91797 7.02837 5.91797 7.0271C5.91797 7.02584 5.91797 7.02458 5.91797 7.0233C5.91797 7.02203 5.91797 7.02075 5.91797 7.01946C5.91797 7.01818 5.91797 7.01689 5.91797 7.01559C5.91797 7.0143 5.91797 7.01299 5.91797 7.01169C5.91797 7.01038 5.91797 7.00906 5.91797 7.00774C5.91797 7.00642 5.91797 7.0051 5.91797 7.00377C5.91797 7.00244 5.91797 7.0011 5.91797 6.99976C5.91797 6.99842 5.91797 6.99707 5.91797 6.99572C5.91797 6.99436 5.91797 6.99301 5.91797 6.99164C5.91797 6.99028 5.91797 6.98891 5.91797 6.98753C5.91797 6.98616 5.91797 6.98478 5.91797 6.98339C5.91797 6.982 5.91797 6.98061 5.91797 6.97921C5.91797 6.97781 5.91797 6.97641 5.91797 6.975C5.91797 6.97359 5.91797 6.97218 5.91797 6.97076C5.91797 6.96934 5.91797 6.96792 5.91797 6.96649C5.91797 6.96506 5.91797 6.96362 5.91797 6.96218C5.91797 6.96074 5.91797 6.95929 5.91797 6.95784C5.91797 6.95639 5.91797 6.95493 5.91797 6.95347C5.91797 6.952 5.91797 6.95054 5.91797 6.94906C5.91797 6.94759 5.91797 6.94611 5.91797 6.94463C5.91797 6.94314 5.91797 6.94165 5.91797 6.94016C5.91797 6.93866 5.91797 6.93716 5.91797 6.93566C5.91797 6.93415 5.91797 6.93264 5.91797 6.93113C5.91797 6.92961 5.91797 6.92809 5.91797 6.92656C5.91797 6.92504 5.91797 6.92351 5.91797 6.92197C5.91797 6.92043 5.91797 6.91889 5.91797 6.91735C5.91797 6.9158 5.91797 6.91425 5.91797 6.91269C5.91797 6.91113 5.91797 6.90957 5.91797 6.908C5.91797 6.90644 5.91797 6.90486 5.91797 6.90329C5.91797 6.90171 5.91797 6.90013 5.91797 6.89854C5.91797 6.89695 5.91797 6.89536 5.91797 6.89376C5.91797 6.89216 5.91797 6.89056 5.91797 6.88895C5.91797 6.88734 5.91797 6.88573 5.91797 6.88411C5.91797 6.8825 5.91797 6.88087 5.91797 6.87925C5.91797 6.87762 5.91797 6.87599 5.91797 6.87435C5.91797 6.87271 5.91797 6.87107 5.91797 6.86942C5.91797 6.86777 5.91797 6.86612 5.91797 6.86446C5.91797 6.86281 5.91797 6.86115 5.91797 6.85948C5.91797 6.85781 5.91797 6.85614 5.91797 6.85446C5.91797 6.85279 5.91797 6.85111 5.91797 6.84942C5.91797 6.84773 5.91797 6.84604 5.91797 6.84435C5.91797 6.84265 5.91797 6.84095 5.91797 6.83925C5.91797 6.83754 5.91797 6.83583 5.91797 6.83412C5.91797 6.8324 5.91797 6.83068 5.91797 6.82896C5.91797 6.82723 5.91797 6.8255 5.91797 6.82377C5.91797 6.82204 5.91797 6.8203 5.91797 6.81856C5.91797 6.81681 5.91797 6.81507 5.91797 6.81331C5.91797 6.81156 5.91797 6.8098 5.91797 6.80804C5.91797 6.80628 5.91797 6.80452 5.91797 6.80275C5.91797 6.80098 5.91797 6.7992 5.91797 6.79742C5.91797 6.79564 5.91797 6.79386 5.91797 6.79207C5.91797 6.79028 5.91797 6.78849 5.91797 6.78669C5.91797 6.78489 5.91797 6.78309 5.91797 6.78128C5.91797 6.77947 5.91797 6.77766 5.91797 6.77585C5.91797 6.77403 5.91797 6.77221 5.91797 6.77039C5.91797 6.76856 5.91797 6.76673 5.91797 6.7649C5.91797 6.76307 5.91797 6.76123 5.91797 6.75939C5.91797 6.75755 5.91797 6.7557 5.91797 6.75385C5.91797 6.752 5.91797 6.75014 5.91797 6.74828C5.91797 6.74642 5.91797 6.74456 5.91797 6.74269C5.91797 6.74082 5.91797 6.73895 5.91797 6.73707C5.91797 6.7352 5.91797 6.73332 5.91797 6.73143C5.91797 6.72955 5.91797 6.72766 5.91797 6.72576C5.91797 6.72387 5.91797 6.72197 5.91797 6.72007C5.91797 6.71817 5.91797 6.71626 5.91797 6.71435C5.91797 6.71244 5.91797 6.71053 5.91797 6.70861C5.91797 6.70669 5.91797 6.70477 5.91797 6.70284C5.91797 6.70091 5.91797 6.69898 5.91797 6.69704C5.91797 6.69511 5.91797 6.69317 5.91797 6.69123C5.91797 6.68928 5.91797 6.68734 5.91797 6.68538C5.91797 6.68343 5.91797 6.68148 5.91797 6.67952C5.91797 6.67756 5.91797 6.67559 5.91797 6.67363C5.91797 6.67166 5.91797 6.66969 5.91797 6.66771C5.91797 6.66574 5.91797 6.66376 5.91797 6.66177C5.91797 6.65979 5.91797 6.6578 5.91797 6.65581C5.91797 6.65382 5.91797 6.65182 5.91797 6.64982C5.91797 6.64783 5.91797 6.64582 5.91797 6.64382C5.91797 6.64181 5.91797 6.6398 5.91797 6.63778C5.91797 6.63577 5.91797 6.63375 5.91797 6.63173C5.91797 6.6297 5.91797 6.62768 5.91797 6.62565C5.91797 6.62362 5.91797 6.62159 5.91797 6.61955C5.91797 6.61751 5.91797 6.61547 5.91797 6.61342C5.91797 6.61138 5.91797 6.60933 5.91797 6.60728C5.91797 6.60522 5.91797 6.60317 5.91797 6.60111C5.91797 6.59905 5.91797 6.59699 5.91797 6.59492C5.91797 6.59285 5.91797 6.59078 5.91797 6.5887C5.91797 6.58663 5.91797 6.58455 5.91797 6.58247C5.91797 6.58039 5.91797 6.5783 5.91797 6.57621C5.91797 6.57412 5.91797 6.57203 5.91797 6.56994C5.91797 6.56784 5.91797 6.56574 5.91797 6.56364C5.91797 6.56153 5.91797 6.55943 5.91797 6.55732C5.91797 6.55521 5.91797 6.55309 5.91797 6.55097C5.91797 6.54886 5.91797 6.54674 5.91797 6.54461C5.91797 6.54249 5.91797 6.54036 5.91797 6.53823C5.91797 6.5361 5.91797 6.53396 5.91797 6.53182C5.91797 6.52969 5.91797 6.52754 5.91797 6.5254C5.91797 6.52325 5.91797 6.52111 5.91797 6.51895C5.91797 6.5168 5.91797 6.51465 5.91797 6.51249C5.91797 6.51033 5.91797 6.50817 5.91797 6.506C5.91797 6.50384 5.91797 6.50167 5.91797 6.4995C5.91797 6.49733 5.91797 6.49515 5.91797 6.49297C5.91797 6.49079 5.91797 6.48861 5.91797 6.48643C5.91797 6.48424 5.91797 6.48206 5.91797 6.47986C5.91797 6.47767 5.91797 6.47548 5.91797 6.47328C5.91797 6.47108 5.91797 6.46888 5.91797 6.46668C5.91797 6.46447 5.91797 6.46227 5.91797 6.46006C5.91797 6.45785 5.91797 6.45563 5.91797 6.45342C5.91797 6.4512 5.91797 6.44898 5.91797 6.44676C5.91797 6.44453 5.91797 6.44231 5.91797 6.44008C5.91797 6.43785 5.91797 6.43562 5.91797 6.43338C5.91797 6.43115 5.91797 6.42891 5.91797 6.42667C5.91797 6.42443 5.91797 6.42218 5.91797 6.41994C5.91797 6.41769 5.91797 6.41544 5.91797 6.41319C5.91797 6.41093 5.91797 6.40868 5.91797 6.40642C5.91797 6.40416 5.91797 6.4019 5.91797 6.39963C5.91797 6.39737 5.91797 6.3951 5.91797 6.39283C5.91797 6.39056 5.91797 6.38828 5.91797 6.38601C5.91797 6.38373 5.91797 6.38145 5.91797 6.37917C5.91797 6.37689 5.91797 6.3746 5.91797 6.37232C5.91797 6.37003 5.91797 6.36774 5.91797 6.36544C5.91797 6.36315 5.91797 6.36085 5.91797 6.35856C5.91797 6.35626 5.91797 6.35396 5.91797 6.35165C5.91797 6.34935 5.91797 6.34704 5.91797 6.34473C5.91797 6.34242 5.91797 6.34011 5.91797 6.33779C5.91797 6.33548 5.91797 6.33316 5.91797 6.33084C5.91797 6.32852 5.91797 6.32619 5.91797 6.32387C5.91797 6.32154 5.91797 6.31921 5.91797 6.31688C5.91797 6.31455 5.91797 6.31222 5.91797 6.30988C5.91797 6.30754 5.91797 6.30521 5.91797 6.30286C5.91797 6.30052 5.91797 6.29818 5.91797 6.29583C5.91797 6.29348 5.91797 6.29114 5.91797 6.28878C5.91797 6.28643 5.91797 6.28408 5.91797 6.28172C5.91797 6.27936 5.91797 6.27701 5.91797 6.27464C5.91797 6.27228 5.91797 6.26992 5.91797 6.26755C5.91797 6.26518 5.91797 6.26282 5.91797 6.26044C5.91797 6.25807 5.91797 6.2557 5.91797 6.25332C5.91797 6.25095 5.91797 6.24857 5.91797 6.24619C5.91797 6.24381 5.91797 6.24142 5.91797 6.23904C5.91797 6.23665 5.91797 6.23426 5.91797 6.23187C5.91797 6.22948 5.91797 6.22709 5.91797 6.2247C5.91797 6.2223 5.91797 6.2199 5.91797 6.2175C5.91797 6.2151 5.91797 6.2127 5.91797 6.2103C5.91797 6.20789 5.91797 6.20549 5.91797 6.20308C5.91797 6.20067 5.91797 6.19826 5.91797 6.19585C5.91797 6.19344 5.91797 6.19102 5.91797 6.1886C5.91797 6.18619 5.91797 6.18377 5.91797 6.18135C5.91797 6.17892 5.91797 6.1765 5.91797 6.17407C5.91797 6.17165 5.91797 6.16922 5.91797 6.16679C5.91797 6.16436 5.91797 6.16193 5.91797 6.1595C5.91797 6.15706 5.91797 6.15462 5.91797 6.15219C5.91797 6.14975 5.91797 6.14731 5.91797 6.14487C5.91797 6.14242 5.91797 6.13998 5.91797 6.13753C5.91797 6.13509 5.91797 6.13264 5.91797 6.13019C5.91797 6.12774 5.91797 6.12529 5.91797 6.12283C5.91797 6.12038 5.91797 6.11792 5.91797 6.11547C5.91797 6.11301 5.91797 6.11055 5.91797 6.10809C5.91797 6.10562 5.91797 6.10316 5.91797 6.1007C5.91797 6.09823 5.91797 6.09576 5.91797 6.09329C5.91797 6.09082 5.91797 6.08835 5.91797 6.08588C5.91797 6.08341 5.91797 6.08093 5.91797 6.07846C5.91797 6.07598 5.91797 6.0735 5.91797 6.07102C5.91797 6.06854 5.91797 6.06606 5.91797 6.06358C5.91797 6.06109 5.91797 6.05861 5.91797 6.05612C5.91797 6.05364 5.91797 6.05115 5.91797 6.04866C5.91797 6.04617 5.91797 6.04367 5.91797 6.04118C5.91797 6.03869 5.91797 6.03619 5.91797 6.0337C5.91797 6.0312 5.91797 6.0287 5.91797 6.0262C5.91797 6.0237 5.91797 6.0212 5.91797 6.01869C5.91797 6.01619 5.91797 6.01369 5.91797 6.01118C5.91797 6.00867 5.91797 6.00617 5.91797 6.00366C5.91797 6.00115 5.91797 5.99864 5.91797 5.99612C5.91797 5.99361 5.91797 5.9911 5.91797 5.98858C5.91797 5.98607 5.91797 5.98355 5.91797 5.98103C5.91797 5.97851 5.91797 5.97599 5.91797 5.97347C5.91797 5.97095 5.91797 5.96843 5.91797 5.9659C5.91797 5.96338 5.91797 5.96085 5.91797 5.95832C5.91797 5.9558 5.91797 5.95327 5.91797 5.95074C5.91797 5.94821 5.91797 5.94568 5.91797 5.94315C5.91797 5.94061 5.91797 5.93808 5.91797 5.93555C5.91797 5.93301 5.91797 5.93047 5.91797 5.92794C5.91797 5.9254 5.91797 5.92286 5.91797 5.92032C5.91797 5.91778 5.91797 5.91524 5.91797 5.91269C5.91797 5.91015 5.91797 5.90761 5.91797 5.90506C5.91797 5.90252 5.91797 5.89997 5.91797 5.89742C5.91797 5.89488 5.91797 5.89233 5.91797 5.88978C5.91797 5.88723 5.91797 5.88468 5.91797 5.88212C5.91797 5.87957 5.91797 5.87702 5.91797 5.87446C5.91797 5.87191 5.91797 5.86936 5.91797 5.8668C5.91797 5.86424 5.91797 5.86168 5.91797 5.85913C5.91797 5.85657 5.91797 5.85401 5.91797 5.85145C5.91797 5.84889 5.91797 5.84632 5.91797 5.84376C5.91797 5.8412 5.91797 5.83863 5.91797 5.83607C5.91797 5.8335 5.91797 5.83094 5.91797 5.82837C5.91797 5.82581 5.91797 5.82324 5.91797 5.82067C5.91797 5.8181 5.91797 5.81553 5.91797 5.81296C5.91797 5.81039 5.91797 5.80782 5.91797 5.80525C5.91797 5.80267 5.91797 5.8001 5.91797 5.79753C5.91797 5.79495 5.91797 5.79238 5.91797 5.7898C5.91797 5.78723 5.91797 5.78465 5.91797 5.78207C5.91797 5.7795 5.91797 5.77692 5.91797 5.77434C5.91797 5.77176 5.91797 5.76918 5.91797 5.7666C5.91797 5.76402 5.91797 5.76144 5.91797 5.75886C5.91797 5.75627 5.91797 5.75369 5.91797 5.75111C5.91797 5.74852 5.91797 5.74594 5.91797 5.74336C5.91797 5.74077 5.91797 5.73819 5.91797 5.7356C5.91797 5.73301 5.91797 5.73043 5.91797 5.72784C5.91797 5.72525 5.91797 5.72266 5.91797 5.72008C5.91797 5.71749 5.91797 5.7149 5.91797 5.71231C5.91797 5.70972 5.91797 5.70713 5.91797 5.70454C5.91797 5.70195 5.91797 5.69936 5.91797 5.69676C5.91797 5.69417 5.91797 5.69158 5.91797 5.68899C5.91797 5.68639 5.91797 5.6838 5.91797 5.68121C5.91797 5.67861 5.91797 5.67602 5.91797 5.67342C5.91797 5.67083 5.91797 5.66823 5.91797 5.66564C5.91797 5.66304 5.91797 5.66044 5.91797 5.65785C5.91797 5.65525 5.91797 5.65265 5.91797 5.65006C5.91797 5.64746 5.91797 5.64486 5.91797 5.64226C5.91797 5.63966 5.91797 5.63707 5.91797 5.63447C5.91797 5.63187 5.91797 5.62927 5.91797 5.62667C5.91797 5.62407 5.91797 5.62147 5.91797 5.61887C5.91797 5.61627 5.91797 5.61367 5.91797 5.61107C5.91797 5.60847 5.91797 5.60587 5.91797 5.60327C5.91797 5.60067 5.91797 5.59807 5.91797 5.59546C5.91797 5.59286 5.91797 5.59026 5.91797 5.58766C5.91797 5.58506 5.91797 5.58246 5.91797 5.57985C5.91797 5.57725 5.91797 5.57465 5.91797 5.57205C5.91797 5.56944 5.91797 5.56684 5.91797 5.56424C5.91797 5.56164 5.91797 5.55903 5.91797 5.55643C5.91797 5.55383 5.91797 5.55123 5.91797 5.54862C5.91797 5.54602 5.91797 5.54342 5.91797 5.54081C5.91797 5.53821 5.91797 5.53561 5.91797 5.533C5.91797 5.5304 5.91797 5.5278 5.91797 5.52519C5.91797 5.52259 5.91797 5.51999 5.91797 5.51739C5.91797 5.51478 5.91797 5.51218 5.91797 5.50958C5.91797 5.50697 5.91797 5.50437 5.91797 5.50177C5.91797 5.49917 5.91797 5.49656 5.91797 5.49396C5.91797 5.49136 5.91797 5.48876 5.91797 5.48615C5.91797 5.48355 5.91797 5.48095 5.91797 5.47835C5.91797 5.47575 5.91797 5.47315 5.91797 5.47054C5.91797 5.46794 5.91797 5.46534 5.91797 5.46274C5.91797 5.46014 5.91797 5.45754 5.91797 5.45494C5.91797 5.45234 5.91797 5.44974 5.91797 5.44714C5.91797 5.44454 5.91797 5.44194 5.91797 5.43934C5.91797 5.43674 5.91797 5.43414 5.91797 5.43154C5.91797 5.42894 5.91797 5.42634 5.91797 5.42375C5.91797 5.42115 5.91797 5.41855 5.91797 5.41595C5.91797 5.41335 5.91797 5.41076 5.91797 5.40816C5.91797 5.40556 5.91797 5.40297 5.91797 5.40037C5.91797 5.39778 5.91797 5.39518 5.91797 5.39259C5.91797 5.38999 5.91797 5.3874 5.91797 5.3848C5.91797 5.38221 5.91797 5.37962 5.91797 5.37702C5.91797 5.37443 5.91797 5.37184 5.91797 5.36925C5.91797 5.36665 5.91797 5.36406 5.91797 5.36147C5.91797 5.35888 5.91797 5.35629 5.91797 5.3537C5.91797 5.35111 5.91797 5.34852 5.91797 5.34593C5.91797 5.34334 5.91797 5.34076 5.91797 5.33817C5.91797 5.33558 5.91797 5.33299 5.91797 5.33041C5.91797 5.32782 5.91797 5.32524 5.91797 5.32265C5.91797 5.32007 5.91797 5.31748 5.91797 5.3149C5.91797 5.31232 5.91797 5.30973 5.91797 5.30715C5.91797 5.30457 5.91797 5.30199 5.91797 5.29941C5.91797 5.29683 5.91797 5.29425 5.91797 5.29167C5.91797 5.28909 5.91797 5.28651 5.91797 5.28394C5.91797 5.28136 5.91797 5.27878 5.91797 5.27621C5.91797 5.27363 5.91797 5.27106 5.91797 5.26848C5.91797 5.26591 5.91797 5.26333 5.91797 5.26076C5.91797 5.25819 5.91797 5.25562 5.91797 5.25305C5.91797 5.25048 5.91797 5.24791 5.91797 5.24534C5.91797 5.24277 5.91797 5.2402 5.91797 5.23764C5.91797 5.23507 5.91797 5.2325 5.91797 5.22994C5.91797 5.22737 5.91797 5.22481 5.91797 5.22225C5.91797 5.21968 5.91797 5.21712 5.91797 5.21456C5.91797 5.212 5.91797 5.20944 5.91797 5.20688C5.91797 5.20432 5.91797 5.20177 5.91797 5.19921C5.91797 5.19665 5.91797 5.1941 5.91797 5.19154C5.91797 5.18899 5.91797 5.18644 5.91797 5.18388C5.91797 5.18133 5.91797 5.17878 5.91797 5.17623C5.91797 5.17368 5.91797 5.17113 5.91797 5.16858C5.91797 5.16604 5.91797 5.16349 5.91797 5.16095C5.91797 5.1584 5.91797 5.15586 5.91797 5.15331C5.91797 5.15077 5.91797 5.14823 5.91797 5.14569C5.91797 5.14315 5.91797 5.14061 5.91797 5.13807C5.91797 5.13553 5.91797 5.133 5.91797 5.13046C5.91797 5.12793 5.91797 5.12539 5.91797 5.12286C5.91797 5.12033 5.91797 5.1178 5.91797 5.11527C5.91797 5.11274 5.91797 5.11021 5.91797 5.10768C5.91797 5.10516 5.91797 5.10263 5.91797 5.10011C5.91797 5.09758 5.91797 5.09506 5.91797 5.09254C5.91797 5.09002 5.91797 5.0875 5.91797 5.08498C5.91797 5.08246 5.91797 5.07994 5.91797 5.07743C5.91797 5.07491 5.91797 5.0724 5.91797 5.06988C5.91797 5.06737 5.91797 5.06486 5.91797 5.06235C5.91797 5.05984 5.91797 5.05733 5.91797 5.05483C5.91797 5.05232 5.91797 5.04982 5.91797 5.04731C5.91797 5.04481 5.91797 5.04231 5.91797 5.03981C5.91797 5.03731 5.91797 5.03481 5.91797 5.03231C5.91797 5.02982 5.91797 5.02732 5.91797 5.02483C5.91797 5.02233 5.91797 5.01984 5.91797 5.01735C5.91797 5.01486 5.91797 5.01237 5.91797 5.00989C5.91797 5.0074 5.91797 5.00491 5.91797 5.00243C5.91797 4.99995 5.91797 4.99747 5.91797 4.99499C5.91797 4.99251 5.91797 4.99003 5.91797 4.98755C5.91797 4.98507 5.91797 4.9826 5.91797 4.98013C5.91797 4.97765 5.91797 4.97518 5.91797 4.97271C5.91797 4.97025 5.91797 4.96778 5.91797 4.96531C5.91797 4.96285 5.91797 4.96038 5.91797 4.95792C5.91797 4.95546 5.91797 4.953 5.91797 4.95054C5.91797 4.94809 5.91797 4.94563 5.91797 4.94318C5.91797 4.94072 5.91797 4.93827 5.91797 4.93582C5.91797 4.93337 5.91797 4.93092 5.91797 4.92847C5.91797 4.92603 5.91797 4.92358 5.91797 4.92114C5.91797 4.9187 5.91797 4.91626 5.91797 4.91382C5.91797 4.91138 5.91797 4.90895 5.91797 4.90651C5.91797 4.90408 5.91797 4.90165 5.91797 4.89922C5.91797 4.89679 5.91797 4.89436 5.91797 4.89193C5.91797 4.88951 5.91797 4.88708 5.91797 4.88466C5.91797 4.88224 5.91797 4.87982 5.91797 4.87741C5.91797 4.87499 5.91797 4.87257 5.91797 4.87016C5.91797 4.86775 5.91797 4.86534 5.91797 4.86293C5.91797 4.86052 5.91797 4.85811 5.91797 4.85571C5.91797 4.85331 5.91797 4.8509 5.91797 4.8485C5.91797 4.84611 5.91797 4.84371 5.91797 4.84131C5.91797 4.83892 5.91797 4.83653 5.91797 4.83414C5.91797 4.83174 5.91797 4.82936 5.91797 4.82697C5.91797 4.82459 5.91797 4.8222 5.91797 4.81982C5.91797 4.81744 5.91797 4.81506 5.91797 4.81269C5.91797 4.81031 5.91797 4.80794 5.91797 4.80556C5.91797 4.80319 5.91797 4.80082 5.91797 4.79846C5.91797 4.79609 5.91797 4.79373 5.91797 4.79136C5.91797 4.789 5.91797 4.78664 5.91797 4.78429C5.91797 4.78193 5.91797 4.77958 5.91797 4.77722C5.91797 4.77487 5.91797 4.77252 5.91797 4.77018C5.91797 4.76783 5.91797 4.76549 5.91797 4.76314C5.91797 4.7608 5.91797 4.75846 5.91797 4.75613C5.91797 4.75379 5.91797 4.75146 5.91797 4.74913C5.91797 4.7468 5.91797 4.74447 5.91797 4.74214C5.91797 4.73981 5.91797 4.73749 5.91797 4.73517C5.91797 4.73285 5.91797 4.73053 5.91797 4.72822C5.91797 4.7259 5.91797 4.72359 5.91797 4.72128C5.91797 4.71897 5.91797 4.71666 5.91797 4.71436C5.91797 4.71205 5.91797 4.70975 5.91797 4.70745C5.91797 4.70515 5.91797 4.70286 5.91797 4.70056C5.91797 4.69827 5.91797 4.69598 5.91797 4.69369C5.91797 4.6914 5.91797 4.68912 5.91797 4.68684C5.91797 4.68456 5.91797 4.68228 5.91797 4.68C5.91797 4.67772 5.91797 4.67545 5.91797 4.67318C5.91797 4.67091 5.91797 4.66864 5.91797 4.66638C5.91797 4.66411 5.91797 4.66185 5.91797 4.65959C5.91797 4.65733 5.91797 4.65508 5.91797 4.65282C5.91797 4.65057 5.91797 4.64832 5.91797 4.64607C5.91797 4.64382 5.91797 4.64158 5.91797 4.63934C5.91797 4.6371 5.91797 4.63486 5.91797 4.63262C5.91797 4.63039 5.91797 4.62816 5.91797 4.62593C5.91797 4.6237 5.91797 4.62147 5.91797 4.61925C5.91797 4.61703 5.91797 4.61481 5.91797 4.61259C5.91797 4.61038 5.91797 4.60816 5.91797 4.60595C5.91797 4.60374 5.91797 4.60153 5.91797 4.59933C5.91797 4.59713 5.91797 4.59493 5.91797 4.59273C5.91797 4.59053 5.91797 4.58834 5.91797 4.58614C5.91797 4.58395 5.91797 4.58177 5.91797 4.57958C5.91797 4.5774 5.91797 4.57521 5.91797 4.57304C5.91797 4.57086 5.91797 4.56868 5.91797 4.56651C5.91797 4.56434 5.91797 4.56217 5.91797 4.56001C5.91797 4.55784 5.91797 4.55568 5.91797 4.55352C5.91797 4.55136 5.91797 4.54921 5.91797 4.54705C5.91797 4.5449 5.91797 4.54275 5.91797 4.54061C5.91797 4.53846 5.91797 4.53632 5.91797 4.53418C5.91797 4.53205 5.91797 4.52991 5.91797 4.52778C5.91797 4.52565 5.91797 4.52352 5.91797 4.5214C5.91797 4.51927 5.91797 4.51715 5.91797 4.51503C5.91797 4.51292 5.91797 4.5108 5.91797 4.50869C5.91797 4.50658 5.91797 4.50448 5.91797 4.50237C5.91797 4.50027 5.91797 4.49817 5.91797 4.49607C5.91797 4.49398 5.91797 4.49188 5.91797 4.48979C5.91797 4.48771 5.91797 4.48562 5.91797 4.48354C5.91797 4.48146 5.91797 4.47938 5.91797 4.4773C5.91797 4.47523 5.91797 4.47316 5.91797 4.47109C5.91797 4.46902 5.91797 4.46696 5.91797 4.4649C5.91797 4.46284 5.91797 4.46078 5.91797 4.45873C5.91797 4.45668 5.91797 4.45463 5.91797 4.45258C5.91797 4.45054 5.91797 4.4485 5.91797 4.44646C5.91797 4.44442 5.91797 4.44239 5.91797 4.44036C5.91797 4.43833 5.91797 4.4363 5.91797 4.43428C5.91797 4.43226 5.91797 4.43024 5.91797 4.42823C5.91797 4.42621 5.91797 4.4242 5.91797 4.42219C5.91797 4.42019 5.91797 4.41818 5.91797 4.41618C5.91797 4.41418 5.91797 4.41219 5.91797 4.4102C5.91797 4.40821 5.91797 4.40622 5.91797 4.40424C5.91797 4.40225 5.91797 4.40027 5.91797 4.3983C5.91797 4.39632 5.91797 4.39435 5.91797 4.39238C5.91797 4.39041 5.91797 4.38845 5.91797 4.38649C5.91797 4.38453 5.91797 4.38258 5.91797 4.38062C5.91797 4.37867 5.91797 4.37672 5.91797 4.37478C5.91797 4.37284 5.91797 4.3709 5.91797 4.36896C5.91797 4.36703 5.91797 4.3651 5.91797 4.36317C5.91797 4.36124 5.91797 4.35932 5.91797 4.3574C5.91797 4.35548 5.91797 4.35357 5.91797 4.35166C5.91797 4.34975 5.91797 4.34784 5.91797 4.34594C5.91797 4.34404 5.91797 4.34214 5.91797 4.34024C5.91797 4.33835 5.91797 4.33646 5.91797 4.33458C5.91797 4.33269 5.91797 4.33081 5.91797 4.32893C5.91797 4.32706 5.91797 4.32518 5.91797 4.32332C5.91797 4.32145 5.91797 4.31958 5.91797 4.31773C5.91797 4.31587 5.91797 4.31401 5.91797 4.31216C5.91797 4.31031 5.91797 4.30846 5.91797 4.30662C5.91797 4.30478 5.91797 4.30294 5.91797 4.30111C5.91797 4.29927 5.91797 4.29744 5.91797 4.29562C5.91797 4.2938 5.91797 4.29198 5.91797 4.29016C5.91797 4.28834 5.91797 4.28653 5.91797 4.28473C5.91797 4.28292 5.91797 4.28112 5.91797 4.27932C5.91797 4.27752 5.91797 4.27573 5.91797 4.27394C5.91797 4.27215 5.91797 4.27037 5.91797 4.26859C5.91797 4.26681 5.91797 4.26503 5.91797 4.26326C5.91797 4.26149 5.91797 4.25973 5.91797 4.25796C5.91797 4.2562 5.91797 4.25445 5.91797 4.25269C5.91797 4.25094 5.91797 4.2492 5.91797 4.24745C5.91797 4.24571 5.91797 4.24397 5.91797 4.24224C5.91797 4.2405 5.91797 4.23878 5.91797 4.23705C5.91797 4.23533 5.91797 4.23361 5.91797 4.23189C5.91797 4.23018 5.91797 4.22847 5.91797 4.22676C5.91797 4.22506 5.91797 4.22336 5.91797 4.22166C5.91797 4.21997 5.91797 4.21827 5.91797 4.21659C5.91797 4.2149 5.91797 4.21322 5.91797 4.21154C5.91797 4.20987 5.91797 4.2082 5.91797 4.20653C5.91797 4.20486 5.91797 4.2032 5.91797 4.20154C5.91797 4.19989 5.91797 4.19823 5.91797 4.19659C5.91797 4.19494 5.91797 4.1933 5.91797 4.19166C5.91797 4.19002 5.91797 4.18839 5.91797 4.18676C5.91797 4.18513 5.91797 4.18351 5.91797 4.18189C5.91797 4.18028 5.91797 4.17866 5.91797 4.17706C5.91797 4.17545 5.91797 4.17385 5.91797 4.17225C5.91797 4.17065 5.91797 4.16906 5.91797 4.16747C5.91797 4.16588 5.91797 4.1643 5.91797 4.16272C5.91797 4.16114 5.91797 4.15957 5.91797 4.15801C5.91797 4.15644 5.91797 4.15488 5.91797 4.15332C5.91797 4.15176 5.91797 4.15021 5.91797 4.14866C5.91797 4.14712 5.91797 4.14557 5.91797 4.14404C5.91797 4.1425 5.91797 4.14097 5.91797 4.13944C5.91797 4.13792 5.91797 4.1364 5.91797 4.13488C5.91797 4.13337 5.91797 4.13186 5.91797 4.13035C5.91797 4.12884 5.91797 4.12734 5.91797 4.12585C5.91797 4.12436 5.91797 4.12287 5.91797 4.12138C5.91797 4.1199 5.91797 4.11842 5.91797 4.11695C5.91797 4.11547 5.91797 4.114 5.91797 4.11254C5.91797 4.11108 5.91797 4.10962 5.91797 4.10817C5.91797 4.10672 5.91797 4.10527 5.91797 4.10383C5.91797 4.10239 5.91797 4.10095 5.91797 4.09952C5.91797 4.09809 5.91797 4.09667 5.91797 4.09525C5.91797 4.09383 5.91797 4.09241 5.91797 4.09101C5.91797 4.0896 5.91797 4.08819 5.91797 4.0868C5.91797 4.0854 5.91797 4.08401 5.91797 4.08262C5.91797 4.08123 5.91797 4.07985 5.91797 4.07848C5.91797 4.0771 5.91797 4.07573 5.91797 4.07437C5.91797 4.073 5.91797 4.07164 5.91797 4.07029C5.91797 4.06894 5.91797 4.06759 5.91797 4.06625C5.91797 4.06491 5.91797 4.06357 5.91797 4.06224C5.91797 4.06091 5.91797 4.05958 5.91797 4.05826C5.91797 4.05694 5.91797 4.05563 5.91797 4.05432C5.91797 4.05302 5.91797 4.05171 5.91797 4.05042C5.91797 4.04912 5.91797 4.04783 5.91797 4.04654C5.91797 4.04526 5.91797 4.04398 5.91797 4.04271C5.91797 4.04143 5.91797 4.04017 5.91797 4.0389C5.91797 4.03764 5.91797 4.03639 5.91797 4.03514C5.91797 4.03388 5.91797 4.03264 5.91797 4.0314C5.91797 4.03016 5.91797 4.02893 5.91797 4.0277C5.91797 4.02648 5.91797 4.02526 5.91797 4.02404C5.91797 4.02283 5.91797 4.02162 5.91797 4.02041C5.91797 4.01921 5.91797 4.01801 5.91797 4.01682C5.91797 4.01563 5.91797 4.01445 5.91797 4.01327C5.91797 4.01209 5.91797 4.01091 5.91797 4.00975C5.91797 4.00858 5.91797 4.00742 5.91797 4.00626C5.91797 4.00511 5.91797 4.00396 5.91797 4.00281C5.91797 4.00167 5.91797 4.00053 5.91797 3.9994C5.91797 3.99827 5.91797 3.99715 5.91797 3.99603C5.91797 3.99491 5.91797 3.9938 5.91797 3.99269C5.91797 3.99158 5.91797 3.99048 5.91797 3.98939C5.91797 3.98829 5.91797 3.9872 5.91797 3.98612C5.91797 3.98504 5.91797 3.98396 5.91797 3.9829C5.91797 3.98183 5.91797 3.98076 5.91797 3.9797C5.91797 3.97865 5.91797 3.9776 5.91797 3.97655C5.91797 3.97551 5.91797 3.97447 5.91797 3.97344C5.91797 3.9724 5.91797 3.97138 5.91797 3.97036C5.91797 3.96934 5.91797 3.96833 5.91797 3.96732C5.91797 3.96631 5.91797 3.96531 5.91797 3.96432C5.91797 3.96332 5.91797 3.96234 5.91797 3.96135C5.91797 3.96037 5.91797 3.9594 5.91797 3.95843C5.91797 3.95746 5.91797 3.9565 5.91797 3.95554H3.91797Z" fill="white" mask="url(#path-2-inside-1)"/>
<path d="M12.2654 7.89777C12.7161 7.89777 13.0815 7.54465 13.0815 7.10904C13.0815 6.67344 12.7161 6.32031 12.2654 6.32031C11.8146 6.32031 11.4492 6.67344 11.4492 7.10904C11.4492 7.54465 11.8146 7.89777 12.2654 7.89777Z" fill="white"/>
<path d="M4.92163 7.89777C5.37239 7.89777 5.7378 7.54465 5.7378 7.10904C5.7378 6.67344 5.37239 6.32031 4.92163 6.32031C4.47088 6.32031 4.10547 6.67344 4.10547 7.10904C4.10547 7.54465 4.47088 7.89777 4.92163 7.89777Z" fill="white"/>
</svg>
