<svg width="29" height="24" viewBox="0 0 29 24" fill="none" xmlns="http://www.w3.org/2000/svg">
<path d="M14.16 22.8475L14.4999 23.1628L14.8399 22.8476L26.0433 12.4605C27.4511 11.2101 28.3445 9.44271 28.3445 7.47052C28.3445 3.61931 24.9702 0.568208 20.9042 0.568208C18.193 0.568208 15.7998 1.92132 14.5059 3.95898C13.2038 1.91752 10.8164 0.568208 8.10339 0.568208C4.02946 0.568208 0.663021 3.61965 0.663021 7.47052C0.663021 9.3392 1.46785 11.0263 2.74916 12.2627L2.74909 12.2628L2.75632 12.2695L14.16 22.8475ZM14.1167 3.22046L14.5 3.67815L14.8833 3.22046C16.2949 1.53504 18.4934 0.5 20.9042 0.5C25.13 0.5 28.5 3.66358 28.5 7.47052C28.5 9.37324 27.6758 11.154 26.191 12.4723L26.1909 12.4723L26.1829 12.4797L14.9833 22.8703L14.9831 22.8705L14.5 23.3182L14.0169 22.8704L14.0167 22.8703L2.60144 12.2816C1.23936 10.9707 0.5 9.26212 0.5 7.47052C0.5 3.66358 3.87002 0.5 8.09583 0.5C10.5066 0.5 12.7051 1.53504 14.1167 3.22046Z" fill="white" stroke="white"/>
</svg>
