<svg width="22" height="19" viewBox="0 0 22 19" fill="none" xmlns="http://www.w3.org/2000/svg">
<mask id="path-1-inside-1" fill="white">
<path d="M15.8583 0.845665C18.763 0.845665 21.1234 3.11358 21.1234 5.91416C21.1234 7.35289 20.499 8.64884 19.5021 9.57139L11 17.7974L2.34896 9.42312C1.44375 8.51156 0.882292 7.27601 0.882292 5.91416C0.882292 3.11358 3.23698 0.845665 6.1474 0.845665C8.33594 0.845665 10.2094 2.13064 11.0057 3.96474C11.7906 2.13613 13.6698 0.845665 15.8583 0.845665ZM15.8583 0C13.9219 0 12.1458 0.86763 11 2.29538C9.85417 0.86763 8.07812 0 6.14167 0C2.75573 0 0 2.65231 0 5.91416C0 7.44624 0.607292 8.90144 1.71302 10.0107L10.3755 18.396L11 19L11.6245 18.396L20.1208 10.1699C21.324 9.0552 22 7.5396 22 5.91416C22 2.65231 19.2443 0 15.8583 0Z"/>
</mask>
<path d="M15.8583 0.845665C18.763 0.845665 21.1234 3.11358 21.1234 5.91416C21.1234 7.35289 20.499 8.64884 19.5021 9.57139L11 17.7974L2.34896 9.42312C1.44375 8.51156 0.882292 7.27601 0.882292 5.91416C0.882292 3.11358 3.23698 0.845665 6.1474 0.845665C8.33594 0.845665 10.2094 2.13064 11.0057 3.96474C11.7906 2.13613 13.6698 0.845665 15.8583 0.845665ZM15.8583 0C13.9219 0 12.1458 0.86763 11 2.29538C9.85417 0.86763 8.07812 0 6.14167 0C2.75573 0 0 2.65231 0 5.91416C0 7.44624 0.607292 8.90144 1.71302 10.0107L10.3755 18.396L11 19L11.6245 18.396L20.1208 10.1699C21.324 9.0552 22 7.5396 22 5.91416C22 2.65231 19.2443 0 15.8583 0Z" fill="white"/>
<path d="M19.5021 9.57139L18.8229 8.83745L18.8147 8.84499L18.8067 8.85271L19.5021 9.57139ZM11 17.7974L10.3045 18.5159L10.9998 19.189L11.6953 18.5161L11 17.7974ZM2.34896 9.42312L1.63938 10.1278L1.64634 10.1348L1.65344 10.1416L2.34896 9.42312ZM11.0057 3.96474L10.0885 4.36301L11.011 6.48775L11.9247 4.35917L11.0057 3.96474ZM11 2.29538L10.2201 2.92128L11 3.89306L11.7799 2.92128L11 2.29538ZM1.71302 10.0107L1.00479 10.7167L1.01109 10.723L1.01751 10.7292L1.71302 10.0107ZM10.3755 18.396L9.68001 19.1145L9.68027 19.1147L10.3755 18.396ZM11 19L10.3048 19.7188L11 20.3913L11.6953 19.7188L11 19ZM11.6245 18.396L12.3197 19.1147L12.3201 19.1144L11.6245 18.396ZM20.1208 10.1699L19.4412 9.43641L19.4331 9.44386L19.4253 9.4515L20.1208 10.1699ZM15.8583 1.84566C18.2475 1.84566 20.1234 3.70195 20.1234 5.91416H22.1234C22.1234 2.52522 19.2785 -0.154335 15.8583 -0.154335V1.84566ZM20.1234 5.91416C20.1234 7.0547 19.63 8.09048 18.8229 8.83745L20.1813 10.3053C21.3679 9.2072 22.1234 7.65108 22.1234 5.91416H20.1234ZM18.8067 8.85271L10.3047 17.0787L11.6953 18.5161L20.1974 10.2901L18.8067 8.85271ZM11.6955 17.0789L3.04448 8.70461L1.65344 10.1416L10.3045 18.5159L11.6955 17.0789ZM3.05853 8.71849C2.32592 7.98074 1.88229 6.99354 1.88229 5.91416H-0.117708C-0.117708 7.55848 0.561576 9.04238 1.63938 10.1278L3.05853 8.71849ZM1.88229 5.91416C1.88229 3.70125 3.75321 1.84566 6.1474 1.84566V-0.154335C2.72075 -0.154335 -0.117708 2.52592 -0.117708 5.91416H1.88229ZM6.1474 1.84566C7.93962 1.84566 9.45153 2.89608 10.0885 4.36301L11.923 3.56647C10.9672 1.36519 8.73225 -0.154335 6.1474 -0.154335V1.84566ZM11.9247 4.35917C12.5501 2.90202 14.0652 1.84566 15.8583 1.84566V-0.154335C13.2744 -0.154335 11.0311 1.37023 10.0868 3.57031L11.9247 4.35917ZM15.8583 -1C13.6221 -1 11.5579 0.00250339 10.2201 1.66947L11.7799 2.92128C12.7337 1.73276 14.2216 1 15.8583 1V-1ZM11.7799 1.66947C10.4421 0.00250327 8.37785 -1 6.14167 -1V1C7.7784 1 9.26625 1.73276 10.2201 2.92128L11.7799 1.66947ZM6.14167 -1C2.23951 -1 -1 2.06464 -1 5.91416H1C1 3.23998 3.27195 1 6.14167 1V-1ZM-1 5.91416C-1 7.71661 -0.28372 9.42406 1.00479 10.7167L2.42125 9.30471C1.4983 8.37883 1 7.17587 1 5.91416H-1ZM1.01751 10.7292L9.68001 19.1145L11.071 17.6774L2.40854 9.29218L1.01751 10.7292ZM9.68027 19.1147L10.3048 19.7188L11.6953 18.2812L11.0708 17.6772L9.68027 19.1147ZM11.6953 19.7188L12.3197 19.1147L10.9292 17.6772L10.3048 18.2812L11.6953 19.7188ZM12.3201 19.1144L20.8164 10.8884L19.4253 9.4515L10.9289 17.6775L12.3201 19.1144ZM20.8005 10.9035C22.2024 9.60451 23 7.82534 23 5.91416H21C21 7.25385 20.4455 8.5059 19.4412 9.43641L20.8005 10.9035ZM23 5.91416C23 2.06464 19.7605 -1 15.8583 -1V1C18.728 1 21 3.23998 21 5.91416H23Z" fill="white" mask="url(#path-1-inside-1)"/>
</svg>
