<svg width="17" height="16" viewBox="0 0 17 16" fill="none" xmlns="http://www.w3.org/2000/svg">
<path d="M16.7415 14.5735L12.5507 10.6129C13.6283 9.44901 14.2186 7.98455 14.2186 6.45999C14.2186 2.89801 11.0293 0 7.10932 0C3.1893 0 0 2.89801 0 6.45999C0 10.022 3.1893 12.92 7.10932 12.92C8.58095 12.92 9.98334 12.5167 11.1823 11.751L15.405 15.7416C15.5815 15.9082 15.8189 16 16.0732 16C16.314 16 16.5425 15.9166 16.7159 15.7649C17.0843 15.4428 17.0961 14.9085 16.7415 14.5735ZM7.10932 1.68522C10.0068 1.68522 12.364 3.82713 12.364 6.45999C12.364 9.09286 10.0068 11.2348 7.10932 11.2348C4.21181 11.2348 1.85461 9.09286 1.85461 6.45999C1.85461 3.82713 4.21181 1.68522 7.10932 1.68522Z" fill="white"/>
</svg>
