<svg width="23" height="24" viewBox="0 0 23 24" fill="none" xmlns="http://www.w3.org/2000/svg">
<path d="M21.4396 23.4244H0.914176L2.85789 6.98828H19.4959L21.4396 23.4244Z" stroke="white" stroke-miterlimit="10" stroke-linecap="round"/>
<mask id="path-2-inside-1" fill="white">
<path d="M15.818 8.98068C15.818 8.36245 15.818 5.61352 15.818 4.99529C15.818 2.51886 13.7411 0.511719 11.1785 0.511719C8.616 0.511719 6.53906 2.51886 6.53906 4.99529C6.53906 5.61352 6.53906 8.36245 6.53906 8.98068"/>
</mask>
<path d="M14.818 8.98068C14.818 9.53297 15.2657 9.98068 15.818 9.98068C16.3703 9.98068 16.818 9.53297 16.818 8.98068H14.818ZM5.53906 8.98068C5.53906 9.53297 5.98678 9.98068 6.53906 9.98068C7.09135 9.98068 7.53906 9.53297 7.53906 8.98068H5.53906ZM16.818 8.98068C16.818 8.97947 16.818 8.97826 16.818 8.97703C16.818 8.97581 16.818 8.97458 16.818 8.97334C16.818 8.9721 16.818 8.97085 16.818 8.96959C16.818 8.96834 16.818 8.96707 16.818 8.9658C16.818 8.96453 16.818 8.96325 16.818 8.96196C16.818 8.96067 16.818 8.95938 16.818 8.95807C16.818 8.95677 16.818 8.95546 16.818 8.95414C16.818 8.95282 16.818 8.95149 16.818 8.95016C16.818 8.94882 16.818 8.94748 16.818 8.94613C16.818 8.94478 16.818 8.94342 16.818 8.94205C16.818 8.94068 16.818 8.93931 16.818 8.93793C16.818 8.93654 16.818 8.93515 16.818 8.93375C16.818 8.93236 16.818 8.93095 16.818 8.92954C16.818 8.92812 16.818 8.9267 16.818 8.92527C16.818 8.92385 16.818 8.92241 16.818 8.92096C16.818 8.91952 16.818 8.91807 16.818 8.91661C16.818 8.91515 16.818 8.91368 16.818 8.91221C16.818 8.91073 16.818 8.90925 16.818 8.90776C16.818 8.90627 16.818 8.90477 16.818 8.90327C16.818 8.90176 16.818 8.90025 16.818 8.89873C16.818 8.89721 16.818 8.89568 16.818 8.89415C16.818 8.89261 16.818 8.89107 16.818 8.88952C16.818 8.88797 16.818 8.88642 16.818 8.88485C16.818 8.88329 16.818 8.88171 16.818 8.88014C16.818 8.87856 16.818 8.87697 16.818 8.87537C16.818 8.87378 16.818 8.87218 16.818 8.87057C16.818 8.86896 16.818 8.86735 16.818 8.86572C16.818 8.8641 16.818 8.86247 16.818 8.86083C16.818 8.85919 16.818 8.85755 16.818 8.8559C16.818 8.85424 16.818 8.85258 16.818 8.85092C16.818 8.84925 16.818 8.84758 16.818 8.8459C16.818 8.84422 16.818 8.84253 16.818 8.84083C16.818 8.83914 16.818 8.83744 16.818 8.83573C16.818 8.83402 16.818 8.8323 16.818 8.83058C16.818 8.82885 16.818 8.82712 16.818 8.82539C16.818 8.82365 16.818 8.8219 16.818 8.82015C16.818 8.8184 16.818 8.81664 16.818 8.81488C16.818 8.81311 16.818 8.81134 16.818 8.80956C16.818 8.80778 16.818 8.80599 16.818 8.8042C16.818 8.80241 16.818 8.80061 16.818 8.7988C16.818 8.79699 16.818 8.79518 16.818 8.79336C16.818 8.79154 16.818 8.78971 16.818 8.78788C16.818 8.78604 16.818 8.7842 16.818 8.78235C16.818 8.78051 16.818 8.77865 16.818 8.77679C16.818 8.77493 16.818 8.77306 16.818 8.77119C16.818 8.76931 16.818 8.76743 16.818 8.76554C16.818 8.76365 16.818 8.76176 16.818 8.75986C16.818 8.75796 16.818 8.75605 16.818 8.75413C16.818 8.75222 16.818 8.7503 16.818 8.74837C16.818 8.74644 16.818 8.74451 16.818 8.74257C16.818 8.74063 16.818 8.73868 16.818 8.73672C16.818 8.73477 16.818 8.73281 16.818 8.73084C16.818 8.72888 16.818 8.7269 16.818 8.72492C16.818 8.72294 16.818 8.72096 16.818 8.71896C16.818 8.71697 16.818 8.71497 16.818 8.71297C16.818 8.71096 16.818 8.70895 16.818 8.70693C16.818 8.70491 16.818 8.70289 16.818 8.70086C16.818 8.69883 16.818 8.69679 16.818 8.69475C16.818 8.6927 16.818 8.69065 16.818 8.6886C16.818 8.68654 16.818 8.68448 16.818 8.68241C16.818 8.68034 16.818 8.67827 16.818 8.67618C16.818 8.6741 16.818 8.67202 16.818 8.66992C16.818 8.66783 16.818 8.66573 16.818 8.66362C16.818 8.66152 16.818 8.65941 16.818 8.65729C16.818 8.65517 16.818 8.65305 16.818 8.65092C16.818 8.64879 16.818 8.64665 16.818 8.64451C16.818 8.64237 16.818 8.64022 16.818 8.63807C16.818 8.63591 16.818 8.63375 16.818 8.63159C16.818 8.62942 16.818 8.62725 16.818 8.62507C16.818 8.62289 16.818 8.62071 16.818 8.61852C16.818 8.61633 16.818 8.61413 16.818 8.61193C16.818 8.60973 16.818 8.60752 16.818 8.60531C16.818 8.60309 16.818 8.60087 16.818 8.59865C16.818 8.59643 16.818 8.59419 16.818 8.59196C16.818 8.58972 16.818 8.58748 16.818 8.58523C16.818 8.58298 16.818 8.58073 16.818 8.57847C16.818 8.57621 16.818 8.57395 16.818 8.57167C16.818 8.5694 16.818 8.56713 16.818 8.56484C16.818 8.56256 16.818 8.56027 16.818 8.55798C16.818 8.55569 16.818 8.55339 16.818 8.55108C16.818 8.54878 16.818 8.54647 16.818 8.54415C16.818 8.54184 16.818 8.53951 16.818 8.53719C16.818 8.53486 16.818 8.53253 16.818 8.53019C16.818 8.52785 16.818 8.52551 16.818 8.52316C16.818 8.52081 16.818 8.51846 16.818 8.5161C16.818 8.51374 16.818 8.51137 16.818 8.509C16.818 8.50663 16.818 8.50425 16.818 8.50187C16.818 8.49949 16.818 8.4971 16.818 8.49471C16.818 8.49232 16.818 8.48992 16.818 8.48752C16.818 8.48512 16.818 8.48271 16.818 8.4803C16.818 8.47788 16.818 8.47546 16.818 8.47304C16.818 8.47062 16.818 8.46819 16.818 8.46575C16.818 8.46332 16.818 8.46088 16.818 8.45843C16.818 8.45599 16.818 8.45354 16.818 8.45108C16.818 8.44863 16.818 8.44617 16.818 8.4437C16.818 8.44124 16.818 8.43877 16.818 8.43629C16.818 8.43382 16.818 8.43134 16.818 8.42885C16.818 8.42637 16.818 8.42387 16.818 8.42138C16.818 8.41888 16.818 8.41638 16.818 8.41388C16.818 8.41137 16.818 8.40886 16.818 8.40635C16.818 8.40383 16.818 8.40131 16.818 8.39878C16.818 8.39626 16.818 8.39373 16.818 8.39119C16.818 8.38866 16.818 8.38612 16.818 8.38357C16.818 8.38103 16.818 8.37848 16.818 8.37592C16.818 8.37337 16.818 8.37081 16.818 8.36824C16.818 8.36568 16.818 8.36311 16.818 8.36054C16.818 8.35796 16.818 8.35538 16.818 8.3528C16.818 8.35022 16.818 8.34763 16.818 8.34504C16.818 8.34244 16.818 8.33985 16.818 8.33724C16.818 8.33464 16.818 8.33204 16.818 8.32942C16.818 8.32681 16.818 8.3242 16.818 8.32158C16.818 8.31895 16.818 8.31633 16.818 8.3137C16.818 8.31107 16.818 8.30844 16.818 8.3058C16.818 8.30316 16.818 8.30051 16.818 8.29787C16.818 8.29522 16.818 8.29257 16.818 8.28991C16.818 8.28725 16.818 8.28459 16.818 8.28192C16.818 8.27926 16.818 8.27659 16.818 8.27391C16.818 8.27124 16.818 8.26856 16.818 8.26587C16.818 8.26319 16.818 8.2605 16.818 8.25781C16.818 8.25512 16.818 8.25242 16.818 8.24972C16.818 8.24702 16.818 8.24431 16.818 8.24161C16.818 8.2389 16.818 8.23618 16.818 8.23346C16.818 8.23075 16.818 8.22802 16.818 8.2253C16.818 8.22257 16.818 8.21984 16.818 8.2171C16.818 8.21437 16.818 8.21163 16.818 8.20889C16.818 8.20614 16.818 8.2034 16.818 8.20064C16.818 8.19789 16.818 8.19514 16.818 8.19238C16.818 8.18962 16.818 8.18685 16.818 8.18408C16.818 8.18132 16.818 8.17854 16.818 8.17577C16.818 8.17299 16.818 8.17021 16.818 8.16743C16.818 8.16464 16.818 8.16186 16.818 8.15906C16.818 8.15627 16.818 8.15347 16.818 8.15067C16.818 8.14787 16.818 8.14507 16.818 8.14226C16.818 8.13945 16.818 8.13664 16.818 8.13383C16.818 8.13101 16.818 8.12819 16.818 8.12537C16.818 8.12255 16.818 8.11972 16.818 8.11689C16.818 8.11406 16.818 8.11122 16.818 8.10838C16.818 8.10554 16.818 8.1027 16.818 8.09986C16.818 8.09701 16.818 8.09416 16.818 8.09131C16.818 8.08845 16.818 8.08559 16.818 8.08273C16.818 8.07987 16.818 8.07701 16.818 8.07414C16.818 8.07127 16.818 8.0684 16.818 8.06552C16.818 8.06265 16.818 8.05977 16.818 8.05689C16.818 8.054 16.818 8.05112 16.818 8.04823C16.818 8.04534 16.818 8.04244 16.818 8.03955C16.818 8.03665 16.818 8.03375 16.818 8.03084C16.818 8.02794 16.818 8.02503 16.818 8.02212C16.818 8.01921 16.818 8.0163 16.818 8.01338C16.818 8.01046 16.818 8.00754 16.818 8.00461C16.818 8.00169 16.818 7.99876 16.818 7.99583C16.818 7.9929 16.818 7.98996 16.818 7.98703C16.818 7.98409 16.818 7.98115 16.818 7.9782C16.818 7.97526 16.818 7.97231 16.818 7.96936C16.818 7.9664 16.818 7.96345 16.818 7.96049C16.818 7.95753 16.818 7.95457 16.818 7.95161C16.818 7.94864 16.818 7.94568 16.818 7.94271C16.818 7.93974 16.818 7.93676 16.818 7.93378C16.818 7.93081 16.818 7.92783 16.818 7.92484C16.818 7.92186 16.818 7.91887 16.818 7.91588C16.818 7.9129 16.818 7.9099 16.818 7.90691C16.818 7.90391 16.818 7.90091 16.818 7.89791C16.818 7.89491 16.818 7.8919 16.818 7.8889C16.818 7.88589 16.818 7.88288 16.818 7.87986C16.818 7.87685 16.818 7.87383 16.818 7.87082C16.818 7.8678 16.818 7.86477 16.818 7.86175C16.818 7.85872 16.818 7.85569 16.818 7.85266C16.818 7.84963 16.818 7.8466 16.818 7.84356C16.818 7.84052 16.818 7.83749 16.818 7.83444C16.818 7.8314 16.818 7.82836 16.818 7.82531C16.818 7.82226 16.818 7.81921 16.818 7.81616C16.818 7.8131 16.818 7.81005 16.818 7.80699C16.818 7.80393 16.818 7.80087 16.818 7.7978C16.818 7.79474 16.818 7.79167 16.818 7.7886C16.818 7.78553 16.818 7.78246 16.818 7.77939C16.818 7.77631 16.818 7.77323 16.818 7.77015C16.818 7.76707 16.818 7.76399 16.818 7.76091C16.818 7.75782 16.818 7.75473 16.818 7.75164C16.818 7.74855 16.818 7.74546 16.818 7.74237C16.818 7.73927 16.818 7.73617 16.818 7.73307C16.818 7.72997 16.818 7.72687 16.818 7.72377C16.818 7.72066 16.818 7.71755 16.818 7.71444C16.818 7.71133 16.818 7.70822 16.818 7.70511C16.818 7.70199 16.818 7.69888 16.818 7.69576C16.818 7.69264 16.818 7.68952 16.818 7.68639C16.818 7.68327 16.818 7.68014 16.818 7.67702C16.818 7.67389 16.818 7.67076 16.818 7.66762C16.818 7.66449 16.818 7.66136 16.818 7.65822C16.818 7.65508 16.818 7.65194 16.818 7.6488C16.818 7.64566 16.818 7.64252 16.818 7.63937C16.818 7.63623 16.818 7.63308 16.818 7.62993C16.818 7.62678 16.818 7.62363 16.818 7.62047C16.818 7.61732 16.818 7.61416 16.818 7.611C16.818 7.60784 16.818 7.60468 16.818 7.60152C16.818 7.59836 16.818 7.5952 16.818 7.59203C16.818 7.58886 16.818 7.5857 16.818 7.58253C16.818 7.57936 16.818 7.57618 16.818 7.57301C16.818 7.56984 16.818 7.56666 16.818 7.56348C16.818 7.5603 16.818 7.55712 16.818 7.55394C16.818 7.55076 16.818 7.54758 16.818 7.54439C16.818 7.54121 16.818 7.53802 16.818 7.53483C16.818 7.53164 16.818 7.52845 16.818 7.52526C16.818 7.52207 16.818 7.51888 16.818 7.51568C16.818 7.51248 16.818 7.50929 16.818 7.50609C16.818 7.50289 16.818 7.49969 16.818 7.49649C16.818 7.49328 16.818 7.49008 16.818 7.48687C16.818 7.48367 16.818 7.48046 16.818 7.47725C16.818 7.47404 16.818 7.47083 16.818 7.46762C16.818 7.46441 16.818 7.46119 16.818 7.45798C16.818 7.45476 16.818 7.45155 16.818 7.44833C16.818 7.44511 16.818 7.44189 16.818 7.43867C16.818 7.43545 16.818 7.43223 16.818 7.429C16.818 7.42578 16.818 7.42255 16.818 7.41933C16.818 7.4161 16.818 7.41287 16.818 7.40964C16.818 7.40641 16.818 7.40318 16.818 7.39995C16.818 7.39672 16.818 7.39348 16.818 7.39025C16.818 7.38701 16.818 7.38378 16.818 7.38054C16.818 7.3773 16.818 7.37406 16.818 7.37082C16.818 7.36758 16.818 7.36434 16.818 7.3611C16.818 7.35786 16.818 7.35462 16.818 7.35137C16.818 7.34813 16.818 7.34488 16.818 7.34163C16.818 7.33839 16.818 7.33514 16.818 7.33189C16.818 7.32864 16.818 7.32539 16.818 7.32214C16.818 7.31888 16.818 7.31563 16.818 7.31238C16.818 7.30912 16.818 7.30587 16.818 7.30261C16.818 7.29936 16.818 7.2961 16.818 7.29284C16.818 7.28959 16.818 7.28633 16.818 7.28307C16.818 7.27981 16.818 7.27655 16.818 7.27329C16.818 7.27002 16.818 7.26676 16.818 7.2635C16.818 7.26024 16.818 7.25697 16.818 7.25371C16.818 7.25044 16.818 7.24718 16.818 7.24391C16.818 7.24064 16.818 7.23737 16.818 7.23411C16.818 7.23084 16.818 7.22757 16.818 7.2243C16.818 7.22103 16.818 7.21776 16.818 7.21449C16.818 7.21121 16.818 7.20794 16.818 7.20467C16.818 7.2014 16.818 7.19812 16.818 7.19485C16.818 7.19157 16.818 7.1883 16.818 7.18502C16.818 7.18175 16.818 7.17847 16.818 7.1752C16.818 7.17192 16.818 7.16864 16.818 7.16536C16.818 7.16209 16.818 7.15881 16.818 7.15553C16.818 7.15225 16.818 7.14897 16.818 7.14569C16.818 7.14241 16.818 7.13913 16.818 7.13585C16.818 7.13257 16.818 7.12928 16.818 7.126C16.818 7.12272 16.818 7.11944 16.818 7.11616C16.818 7.11287 16.818 7.10959 16.818 7.10631C16.818 7.10302 16.818 7.09974 16.818 7.09645C16.818 7.09317 16.818 7.08988 16.818 7.0866C16.818 7.08331 16.818 7.08003 16.818 7.07674C16.818 7.07346 16.818 7.07017 16.818 7.06688C16.818 7.0636 16.818 7.06031 16.818 7.05703C16.818 7.05374 16.818 7.05045 16.818 7.04716C16.818 7.04388 16.818 7.04059 16.818 7.0373C16.818 7.03402 16.818 7.03073 16.818 7.02744C16.818 7.02415 16.818 7.02086 16.818 7.01758C16.818 7.01429 16.818 7.011 16.818 7.00771C16.818 7.00442 16.818 7.00114 16.818 6.99785C16.818 6.99456 16.818 6.99127 16.818 6.98798C16.818 6.9847 16.818 6.98141 16.818 6.97812C16.818 6.97483 16.818 6.97154 16.818 6.96825C16.818 6.96497 16.818 6.96168 16.818 6.95839C16.818 6.9551 16.818 6.95181 16.818 6.94853C16.818 6.94524 16.818 6.94195 16.818 6.93866C16.818 6.93538 16.818 6.93209 16.818 6.9288C16.818 6.92552 16.818 6.92223 16.818 6.91894C16.818 6.91565 16.818 6.91237 16.818 6.90908C16.818 6.9058 16.818 6.90251 16.818 6.89922C16.818 6.89594 16.818 6.89265 16.818 6.88937C16.818 6.88608 16.818 6.8828 16.818 6.87951C16.818 6.87623 16.818 6.87295 16.818 6.86966C16.818 6.86638 16.818 6.86309 16.818 6.85981C16.818 6.85653 16.818 6.85325 16.818 6.84996C16.818 6.84668 16.818 6.8434 16.818 6.84012C16.818 6.83684 16.818 6.83356 16.818 6.83028C16.818 6.827 16.818 6.82372 16.818 6.82044C16.818 6.81716 16.818 6.81388 16.818 6.8106C16.818 6.80733 16.818 6.80405 16.818 6.80077C16.818 6.79749 16.818 6.79422 16.818 6.79094C16.818 6.78767 16.818 6.78439 16.818 6.78112C16.818 6.77784 16.818 6.77457 16.818 6.7713C16.818 6.76802 16.818 6.76475 16.818 6.76148C16.818 6.75821 16.818 6.75494 16.818 6.75167C16.818 6.7484 16.818 6.74513 16.818 6.74186C16.818 6.73859 16.818 6.73533 16.818 6.73206C16.818 6.72879 16.818 6.72553 16.818 6.72226C16.818 6.719 16.818 6.71573 16.818 6.71247C16.818 6.70921 16.818 6.70594 16.818 6.70268C16.818 6.69942 16.818 6.69616 16.818 6.6929C16.818 6.68964 16.818 6.68638 16.818 6.68312C16.818 6.67987 16.818 6.67661 16.818 6.67335C16.818 6.6701 16.818 6.66684 16.818 6.66359C16.818 6.66034 16.818 6.65708 16.818 6.65383C16.818 6.65058 16.818 6.64733 16.818 6.64408C16.818 6.64083 16.818 6.63758 16.818 6.63434C16.818 6.63109 16.818 6.62784 16.818 6.6246C16.818 6.62135 16.818 6.61811 16.818 6.61487C16.818 6.61162 16.818 6.60838 16.818 6.60514C16.818 6.6019 16.818 6.59866 16.818 6.59543C16.818 6.59219 16.818 6.58895 16.818 6.58572C16.818 6.58248 16.818 6.57925 16.818 6.57602C16.818 6.57279 16.818 6.56955 16.818 6.56632C16.818 6.5631 16.818 6.55987 16.818 6.55664C16.818 6.55341 16.818 6.55019 16.818 6.54696C16.818 6.54374 16.818 6.54052 16.818 6.5373C16.818 6.53408 16.818 6.53086 16.818 6.52764C16.818 6.52442 16.818 6.5212 16.818 6.51799C16.818 6.51477 16.818 6.51156 16.818 6.50835C16.818 6.50514 16.818 6.50192 16.818 6.49872C16.818 6.49551 16.818 6.4923 16.818 6.48909C16.818 6.48589 16.818 6.48268 16.818 6.47948C16.818 6.47628 16.818 6.47308 16.818 6.46988C16.818 6.46668 16.818 6.46348 16.818 6.46029C16.818 6.45709 16.818 6.4539 16.818 6.45071C16.818 6.44751 16.818 6.44432 16.818 6.44113C16.818 6.43795 16.818 6.43476 16.818 6.43157C16.818 6.42839 16.818 6.42521 16.818 6.42202C16.818 6.41884 16.818 6.41566 16.818 6.41249C16.818 6.40931 16.818 6.40613 16.818 6.40296C16.818 6.39978 16.818 6.39661 16.818 6.39344C16.818 6.39027 16.818 6.3871 16.818 6.38394C16.818 6.38077 16.818 6.37761 16.818 6.37444C16.818 6.37128 16.818 6.36812 16.818 6.36496C16.818 6.36181 16.818 6.35865 16.818 6.3555C16.818 6.35234 16.818 6.34919 16.818 6.34604C16.818 6.34289 16.818 6.33974 16.818 6.3366C16.818 6.33345 16.818 6.33031 16.818 6.32717C16.818 6.32402 16.818 6.32088 16.818 6.31775C16.818 6.31461 16.818 6.31148 16.818 6.30834C16.818 6.30521 16.818 6.30208 16.818 6.29895C16.818 6.29582 16.818 6.2927 16.818 6.28957C16.818 6.28645 16.818 6.28333 16.818 6.28021C16.818 6.27709 16.818 6.27397 16.818 6.27086C16.818 6.26775 16.818 6.26463 16.818 6.26152C16.818 6.25841 16.818 6.25531 16.818 6.2522C16.818 6.2491 16.818 6.24599 16.818 6.24289C16.818 6.23979 16.818 6.2367 16.818 6.2336C16.818 6.23051 16.818 6.22741 16.818 6.22432C16.818 6.22123 16.818 6.21815 16.818 6.21506C16.818 6.21198 16.818 6.20889 16.818 6.20581C16.818 6.20273 16.818 6.19966 16.818 6.19658C16.818 6.19351 16.818 6.19043 16.818 6.18737C16.818 6.1843 16.818 6.18123 16.818 6.17816C16.818 6.1751 16.818 6.17204 16.818 6.16898C16.818 6.16592 16.818 6.16287 16.818 6.15981C16.818 6.15676 16.818 6.15371 16.818 6.15066C16.818 6.14761 16.818 6.14457 16.818 6.14152C16.818 6.13848 16.818 6.13544 16.818 6.13241C16.818 6.12937 16.818 6.12634 16.818 6.1233C16.818 6.12027 16.818 6.11724 16.818 6.11422C16.818 6.11119 16.818 6.10817 16.818 6.10515C16.818 6.10213 16.818 6.09912 16.818 6.0961C16.818 6.09309 16.818 6.09008 16.818 6.08707C16.818 6.08406 16.818 6.08106 16.818 6.07806C16.818 6.07505 16.818 6.07206 16.818 6.06906C16.818 6.06606 16.818 6.06307 16.818 6.06008C16.818 6.05709 16.818 6.05411 16.818 6.05112C16.818 6.04814 16.818 6.04516 16.818 6.04218C16.818 6.03921 16.818 6.03623 16.818 6.03326C16.818 6.03029 16.818 6.02732 16.818 6.02436C16.818 6.02139 16.818 6.01843 16.818 6.01547C16.818 6.01252 16.818 6.00956 16.818 6.00661C16.818 6.00366 16.818 6.00071 16.818 5.99777C16.818 5.99482 16.818 5.99188 16.818 5.98894C16.818 5.986 16.818 5.98307 16.818 5.98014C16.818 5.97721 16.818 5.97428 16.818 5.97135C16.818 5.96843 16.818 5.96551 16.818 5.96259C16.818 5.95967 16.818 5.95676 16.818 5.95385C16.818 5.95093 16.818 5.94803 16.818 5.94512C16.818 5.94222 16.818 5.93932 16.818 5.93642C16.818 5.93352 16.818 5.93063 16.818 5.92774C16.818 5.92485 16.818 5.92196 16.818 5.91908C16.818 5.9162 16.818 5.91332 16.818 5.91044C16.818 5.90757 16.818 5.9047 16.818 5.90183C16.818 5.89896 16.818 5.89609 16.818 5.89323C16.818 5.89037 16.818 5.88752 16.818 5.88466C16.818 5.88181 16.818 5.87896 16.818 5.87611C16.818 5.87327 16.818 5.87042 16.818 5.86758C16.818 5.86475 16.818 5.86191 16.818 5.85908C16.818 5.85625 16.818 5.85342 16.818 5.8506C16.818 5.84777 16.818 5.84496 16.818 5.84214C16.818 5.83932 16.818 5.83651 16.818 5.8337C16.818 5.8309 16.818 5.82809 16.818 5.82529C16.818 5.82249 16.818 5.8197 16.818 5.8169C16.818 5.81411 16.818 5.81132 16.818 5.80854C16.818 5.80576 16.818 5.80298 16.818 5.8002C16.818 5.79742 16.818 5.79465 16.818 5.79188C16.818 5.78911 16.818 5.78635 16.818 5.78359C16.818 5.78083 16.818 5.77808 16.818 5.77532C16.818 5.77257 16.818 5.76982 16.818 5.76708C16.818 5.76434 16.818 5.7616 16.818 5.75886C16.818 5.75613 16.818 5.7534 16.818 5.75067C16.818 5.74794 16.818 5.74522 16.818 5.7425C16.818 5.73979 16.818 5.73707 16.818 5.73436C16.818 5.73165 16.818 5.72895 16.818 5.72625C16.818 5.72355 16.818 5.72085 16.818 5.71816C16.818 5.71546 16.818 5.71278 16.818 5.71009C16.818 5.70741 16.818 5.70473 16.818 5.70205C16.818 5.69938 16.818 5.69671 16.818 5.69404C16.818 5.69138 16.818 5.68872 16.818 5.68606C16.818 5.6834 16.818 5.68075 16.818 5.6781C16.818 5.67545 16.818 5.67281 16.818 5.67017C16.818 5.66753 16.818 5.6649 16.818 5.66227C16.818 5.65964 16.818 5.65701 16.818 5.65439C16.818 5.65177 16.818 5.64915 16.818 5.64654C16.818 5.64393 16.818 5.64132 16.818 5.63872C16.818 5.63612 16.818 5.63352 16.818 5.63093C16.818 5.62834 16.818 5.62575 16.818 5.62317C16.818 5.62058 16.818 5.618 16.818 5.61543C16.818 5.61286 16.818 5.61029 16.818 5.60772C16.818 5.60516 16.818 5.6026 16.818 5.60004C16.818 5.59749 16.818 5.59494 16.818 5.59239C16.818 5.58985 16.818 5.58731 16.818 5.58477C16.818 5.58224 16.818 5.57971 16.818 5.57718C16.818 5.57466 16.818 5.57214 16.818 5.56962C16.818 5.56711 16.818 5.5646 16.818 5.56209C16.818 5.55958 16.818 5.55708 16.818 5.55459C16.818 5.55209 16.818 5.5496 16.818 5.54712C16.818 5.54463 16.818 5.54215 16.818 5.53967C16.818 5.5372 16.818 5.53473 16.818 5.53226C16.818 5.5298 16.818 5.52734 16.818 5.52488C16.818 5.52243 16.818 5.51998 16.818 5.51753C16.818 5.51509 16.818 5.51265 16.818 5.51022C16.818 5.50778 16.818 5.50535 16.818 5.50293C16.818 5.5005 16.818 5.49809 16.818 5.49567C16.818 5.49326 16.818 5.49085 16.818 5.48845C16.818 5.48604 16.818 5.48365 16.818 5.48126C16.818 5.47886 16.818 5.47648 16.818 5.4741C16.818 5.47171 16.818 5.46934 16.818 5.46697C16.818 5.4646 16.818 5.46223 16.818 5.45987C16.818 5.45751 16.818 5.45516 16.818 5.45281C16.818 5.45046 16.818 5.44812 16.818 5.44578C16.818 5.44344 16.818 5.44111 16.818 5.43878C16.818 5.43645 16.818 5.43413 16.818 5.43182C16.818 5.4295 16.818 5.42719 16.818 5.42488C16.818 5.42258 16.818 5.42028 16.818 5.41799C16.818 5.41569 16.818 5.41341 16.818 5.41112C16.818 5.40884 16.818 5.40656 16.818 5.40429C16.818 5.40202 16.818 5.39976 16.818 5.3975C16.818 5.39524 16.818 5.39298 16.818 5.39074C16.818 5.38849 16.818 5.38625 16.818 5.38401C16.818 5.38177 16.818 5.37954 16.818 5.37732C16.818 5.37509 16.818 5.37287 16.818 5.37066C16.818 5.36845 16.818 5.36624 16.818 5.36404C16.818 5.36184 16.818 5.35964 16.818 5.35745C16.818 5.35526 16.818 5.35308 16.818 5.3509C16.818 5.34872 16.818 5.34655 16.818 5.34438C16.818 5.34222 16.818 5.34006 16.818 5.3379C16.818 5.33575 16.818 5.3336 16.818 5.33146C16.818 5.32932 16.818 5.32718 16.818 5.32505C16.818 5.32292 16.818 5.3208 16.818 5.31868C16.818 5.31656 16.818 5.31445 16.818 5.31234C16.818 5.31024 16.818 5.30814 16.818 5.30604C16.818 5.30395 16.818 5.30186 16.818 5.29978C16.818 5.2977 16.818 5.29563 16.818 5.29356C16.818 5.29149 16.818 5.28943 16.818 5.28737C16.818 5.28532 16.818 5.28327 16.818 5.28122C16.818 5.27918 16.818 5.27714 16.818 5.27511C16.818 5.27308 16.818 5.27106 16.818 5.26904C16.818 5.26702 16.818 5.26501 16.818 5.263C16.818 5.261 16.818 5.259 16.818 5.257C16.818 5.25501 16.818 5.25302 16.818 5.25104C16.818 5.24906 16.818 5.24709 16.818 5.24512C16.818 5.24316 16.818 5.2412 16.818 5.23924C16.818 5.23729 16.818 5.23534 16.818 5.2334C16.818 5.23146 16.818 5.22953 16.818 5.2276C16.818 5.22567 16.818 5.22375 16.818 5.22183C16.818 5.21992 16.818 5.21801 16.818 5.21611C16.818 5.21421 16.818 5.21231 16.818 5.21043C16.818 5.20854 16.818 5.20666 16.818 5.20478C16.818 5.20291 16.818 5.20104 16.818 5.19918C16.818 5.19732 16.818 5.19546 16.818 5.19361C16.818 5.19177 16.818 5.18993 16.818 5.18809C16.818 5.18626 16.818 5.18443 16.818 5.18261C16.818 5.18079 16.818 5.17897 16.818 5.17717C16.818 5.17536 16.818 5.17356 16.818 5.17177C16.818 5.16997 16.818 5.16819 16.818 5.16641C16.818 5.16463 16.818 5.16286 16.818 5.16109C16.818 5.15933 16.818 5.15757 16.818 5.15582C16.818 5.15406 16.818 5.15232 16.818 5.15058C16.818 5.14884 16.818 5.14711 16.818 5.14539C16.818 5.14367 16.818 5.14195 16.818 5.14024C16.818 5.13853 16.818 5.13683 16.818 5.13513C16.818 5.13344 16.818 5.13175 16.818 5.13007C16.818 5.12839 16.818 5.12672 16.818 5.12505C16.818 5.12338 16.818 5.12172 16.818 5.12007C16.818 5.11842 16.818 5.11677 16.818 5.11514C16.818 5.1135 16.818 5.11187 16.818 5.11024C16.818 5.10862 16.818 5.10701 16.818 5.1054C16.818 5.10379 16.818 5.10219 16.818 5.10059C16.818 5.099 16.818 5.09741 16.818 5.09583C16.818 5.09425 16.818 5.09268 16.818 5.09112C16.818 5.08955 16.818 5.08799 16.818 5.08644C16.818 5.0849 16.818 5.08335 16.818 5.08182C16.818 5.08028 16.818 5.07876 16.818 5.07724C16.818 5.07572 16.818 5.0742 16.818 5.0727C16.818 5.07119 16.818 5.0697 16.818 5.06821C16.818 5.06672 16.818 5.06523 16.818 5.06376C16.818 5.06228 16.818 5.06082 16.818 5.05936C16.818 5.0579 16.818 5.05645 16.818 5.055C16.818 5.05356 16.818 5.05212 16.818 5.05069C16.818 5.04926 16.818 5.04784 16.818 5.04643C16.818 5.04502 16.818 5.04361 16.818 5.04221C16.818 5.04081 16.818 5.03942 16.818 5.03804C16.818 5.03666 16.818 5.03528 16.818 5.03392C16.818 5.03255 16.818 5.03119 16.818 5.02984C16.818 5.02849 16.818 5.02715 16.818 5.02581C16.818 5.02448 16.818 5.02315 16.818 5.02183C16.818 5.02051 16.818 5.0192 16.818 5.01789C16.818 5.01659 16.818 5.01529 16.818 5.014C16.818 5.01272 16.818 5.01144 16.818 5.01016C16.818 5.00889 16.818 5.00763 16.818 5.00637C16.818 5.00512 16.818 5.00387 16.818 5.00263C16.818 5.00139 16.818 5.00016 16.818 4.99893C16.818 4.99771 16.818 4.99649 16.818 4.99529H14.818C14.818 4.99649 14.818 4.99771 14.818 4.99893C14.818 5.00016 14.818 5.00139 14.818 5.00263C14.818 5.00387 14.818 5.00512 14.818 5.00637C14.818 5.00763 14.818 5.00889 14.818 5.01016C14.818 5.01144 14.818 5.01272 14.818 5.014C14.818 5.01529 14.818 5.01659 14.818 5.01789C14.818 5.0192 14.818 5.02051 14.818 5.02183C14.818 5.02315 14.818 5.02448 14.818 5.02581C14.818 5.02715 14.818 5.02849 14.818 5.02984C14.818 5.03119 14.818 5.03255 14.818 5.03392C14.818 5.03528 14.818 5.03666 14.818 5.03804C14.818 5.03942 14.818 5.04081 14.818 5.04221C14.818 5.04361 14.818 5.04502 14.818 5.04643C14.818 5.04784 14.818 5.04926 14.818 5.05069C14.818 5.05212 14.818 5.05356 14.818 5.055C14.818 5.05645 14.818 5.0579 14.818 5.05936C14.818 5.06082 14.818 5.06228 14.818 5.06376C14.818 5.06523 14.818 5.06672 14.818 5.06821C14.818 5.0697 14.818 5.07119 14.818 5.0727C14.818 5.0742 14.818 5.07572 14.818 5.07724C14.818 5.07876 14.818 5.08028 14.818 5.08182C14.818 5.08335 14.818 5.0849 14.818 5.08644C14.818 5.08799 14.818 5.08955 14.818 5.09112C14.818 5.09268 14.818 5.09425 14.818 5.09583C14.818 5.09741 14.818 5.099 14.818 5.10059C14.818 5.10219 14.818 5.10379 14.818 5.1054C14.818 5.10701 14.818 5.10862 14.818 5.11024C14.818 5.11187 14.818 5.1135 14.818 5.11514C14.818 5.11677 14.818 5.11842 14.818 5.12007C14.818 5.12172 14.818 5.12338 14.818 5.12505C14.818 5.12672 14.818 5.12839 14.818 5.13007C14.818 5.13175 14.818 5.13344 14.818 5.13513C14.818 5.13683 14.818 5.13853 14.818 5.14024C14.818 5.14195 14.818 5.14367 14.818 5.14539C14.818 5.14711 14.818 5.14884 14.818 5.15058C14.818 5.15232 14.818 5.15406 14.818 5.15582C14.818 5.15757 14.818 5.15933 14.818 5.16109C14.818 5.16286 14.818 5.16463 14.818 5.16641C14.818 5.16819 14.818 5.16997 14.818 5.17177C14.818 5.17356 14.818 5.17536 14.818 5.17717C14.818 5.17897 14.818 5.18079 14.818 5.18261C14.818 5.18443 14.818 5.18626 14.818 5.18809C14.818 5.18993 14.818 5.19177 14.818 5.19361C14.818 5.19546 14.818 5.19732 14.818 5.19918C14.818 5.20104 14.818 5.20291 14.818 5.20478C14.818 5.20666 14.818 5.20854 14.818 5.21043C14.818 5.21231 14.818 5.21421 14.818 5.21611C14.818 5.21801 14.818 5.21992 14.818 5.22183C14.818 5.22375 14.818 5.22567 14.818 5.2276C14.818 5.22953 14.818 5.23146 14.818 5.2334C14.818 5.23534 14.818 5.23729 14.818 5.23924C14.818 5.2412 14.818 5.24316 14.818 5.24512C14.818 5.24709 14.818 5.24906 14.818 5.25104C14.818 5.25302 14.818 5.25501 14.818 5.257C14.818 5.259 14.818 5.261 14.818 5.263C14.818 5.26501 14.818 5.26702 14.818 5.26904C14.818 5.27106 14.818 5.27308 14.818 5.27511C14.818 5.27714 14.818 5.27918 14.818 5.28122C14.818 5.28327 14.818 5.28532 14.818 5.28737C14.818 5.28943 14.818 5.29149 14.818 5.29356C14.818 5.29563 14.818 5.2977 14.818 5.29978C14.818 5.30186 14.818 5.30395 14.818 5.30604C14.818 5.30814 14.818 5.31024 14.818 5.31234C14.818 5.31445 14.818 5.31656 14.818 5.31868C14.818 5.3208 14.818 5.32292 14.818 5.32505C14.818 5.32718 14.818 5.32932 14.818 5.33146C14.818 5.3336 14.818 5.33575 14.818 5.3379C14.818 5.34006 14.818 5.34222 14.818 5.34438C14.818 5.34655 14.818 5.34872 14.818 5.3509C14.818 5.35308 14.818 5.35526 14.818 5.35745C14.818 5.35964 14.818 5.36184 14.818 5.36404C14.818 5.36624 14.818 5.36845 14.818 5.37066C14.818 5.37287 14.818 5.37509 14.818 5.37732C14.818 5.37954 14.818 5.38177 14.818 5.38401C14.818 5.38625 14.818 5.38849 14.818 5.39074C14.818 5.39298 14.818 5.39524 14.818 5.3975C14.818 5.39976 14.818 5.40202 14.818 5.40429C14.818 5.40656 14.818 5.40884 14.818 5.41112C14.818 5.41341 14.818 5.41569 14.818 5.41799C14.818 5.42028 14.818 5.42258 14.818 5.42488C14.818 5.42719 14.818 5.4295 14.818 5.43182C14.818 5.43413 14.818 5.43645 14.818 5.43878C14.818 5.44111 14.818 5.44344 14.818 5.44578C14.818 5.44812 14.818 5.45046 14.818 5.45281C14.818 5.45516 14.818 5.45751 14.818 5.45987C14.818 5.46223 14.818 5.4646 14.818 5.46697C14.818 5.46934 14.818 5.47171 14.818 5.4741C14.818 5.47648 14.818 5.47886 14.818 5.48126C14.818 5.48365 14.818 5.48604 14.818 5.48845C14.818 5.49085 14.818 5.49326 14.818 5.49567C14.818 5.49809 14.818 5.5005 14.818 5.50293C14.818 5.50535 14.818 5.50778 14.818 5.51022C14.818 5.51265 14.818 5.51509 14.818 5.51753C14.818 5.51998 14.818 5.52243 14.818 5.52488C14.818 5.52734 14.818 5.5298 14.818 5.53226C14.818 5.53473 14.818 5.5372 14.818 5.53967C14.818 5.54215 14.818 5.54463 14.818 5.54712C14.818 5.5496 14.818 5.55209 14.818 5.55459C14.818 5.55708 14.818 5.55958 14.818 5.56209C14.818 5.5646 14.818 5.56711 14.818 5.56962C14.818 5.57214 14.818 5.57466 14.818 5.57718C14.818 5.57971 14.818 5.58224 14.818 5.58477C14.818 5.58731 14.818 5.58985 14.818 5.59239C14.818 5.59494 14.818 5.59749 14.818 5.60004C14.818 5.6026 14.818 5.60516 14.818 5.60772C14.818 5.61029 14.818 5.61286 14.818 5.61543C14.818 5.618 14.818 5.62058 14.818 5.62317C14.818 5.62575 14.818 5.62834 14.818 5.63093C14.818 5.63352 14.818 5.63612 14.818 5.63872C14.818 5.64132 14.818 5.64393 14.818 5.64654C14.818 5.64915 14.818 5.65177 14.818 5.65439C14.818 5.65701 14.818 5.65964 14.818 5.66227C14.818 5.6649 14.818 5.66753 14.818 5.67017C14.818 5.67281 14.818 5.67545 14.818 5.6781C14.818 5.68075 14.818 5.6834 14.818 5.68606C14.818 5.68872 14.818 5.69138 14.818 5.69404C14.818 5.69671 14.818 5.69938 14.818 5.70205C14.818 5.70473 14.818 5.70741 14.818 5.71009C14.818 5.71278 14.818 5.71546 14.818 5.71816C14.818 5.72085 14.818 5.72355 14.818 5.72625C14.818 5.72895 14.818 5.73165 14.818 5.73436C14.818 5.73707 14.818 5.73979 14.818 5.7425C14.818 5.74522 14.818 5.74794 14.818 5.75067C14.818 5.7534 14.818 5.75613 14.818 5.75886C14.818 5.7616 14.818 5.76434 14.818 5.76708C14.818 5.76982 14.818 5.77257 14.818 5.77532C14.818 5.77808 14.818 5.78083 14.818 5.78359C14.818 5.78635 14.818 5.78911 14.818 5.79188C14.818 5.79465 14.818 5.79742 14.818 5.8002C14.818 5.80298 14.818 5.80576 14.818 5.80854C14.818 5.81132 14.818 5.81411 14.818 5.8169C14.818 5.8197 14.818 5.82249 14.818 5.82529C14.818 5.82809 14.818 5.8309 14.818 5.8337C14.818 5.83651 14.818 5.83932 14.818 5.84214C14.818 5.84496 14.818 5.84777 14.818 5.8506C14.818 5.85342 14.818 5.85625 14.818 5.85908C14.818 5.86191 14.818 5.86475 14.818 5.86758C14.818 5.87042 14.818 5.87327 14.818 5.87611C14.818 5.87896 14.818 5.88181 14.818 5.88466C14.818 5.88752 14.818 5.89037 14.818 5.89323C14.818 5.89609 14.818 5.89896 14.818 5.90183C14.818 5.9047 14.818 5.90757 14.818 5.91044C14.818 5.91332 14.818 5.9162 14.818 5.91908C14.818 5.92196 14.818 5.92485 14.818 5.92774C14.818 5.93063 14.818 5.93352 14.818 5.93642C14.818 5.93932 14.818 5.94222 14.818 5.94512C14.818 5.94803 14.818 5.95093 14.818 5.95385C14.818 5.95676 14.818 5.95967 14.818 5.96259C14.818 5.96551 14.818 5.96843 14.818 5.97135C14.818 5.97428 14.818 5.97721 14.818 5.98014C14.818 5.98307 14.818 5.986 14.818 5.98894C14.818 5.99188 14.818 5.99482 14.818 5.99777C14.818 6.00071 14.818 6.00366 14.818 6.00661C14.818 6.00956 14.818 6.01252 14.818 6.01547C14.818 6.01843 14.818 6.02139 14.818 6.02436C14.818 6.02732 14.818 6.03029 14.818 6.03326C14.818 6.03623 14.818 6.03921 14.818 6.04218C14.818 6.04516 14.818 6.04814 14.818 6.05112C14.818 6.05411 14.818 6.05709 14.818 6.06008C14.818 6.06307 14.818 6.06606 14.818 6.06906C14.818 6.07206 14.818 6.07505 14.818 6.07806C14.818 6.08106 14.818 6.08406 14.818 6.08707C14.818 6.09008 14.818 6.09309 14.818 6.0961C14.818 6.09912 14.818 6.10213 14.818 6.10515C14.818 6.10817 14.818 6.11119 14.818 6.11422C14.818 6.11724 14.818 6.12027 14.818 6.1233C14.818 6.12634 14.818 6.12937 14.818 6.13241C14.818 6.13544 14.818 6.13848 14.818 6.14152C14.818 6.14457 14.818 6.14761 14.818 6.15066C14.818 6.15371 14.818 6.15676 14.818 6.15981C14.818 6.16287 14.818 6.16592 14.818 6.16898C14.818 6.17204 14.818 6.1751 14.818 6.17816C14.818 6.18123 14.818 6.1843 14.818 6.18737C14.818 6.19043 14.818 6.19351 14.818 6.19658C14.818 6.19966 14.818 6.20273 14.818 6.20581C14.818 6.20889 14.818 6.21198 14.818 6.21506C14.818 6.21815 14.818 6.22123 14.818 6.22432C14.818 6.22741 14.818 6.23051 14.818 6.2336C14.818 6.2367 14.818 6.23979 14.818 6.24289C14.818 6.24599 14.818 6.2491 14.818 6.2522C14.818 6.25531 14.818 6.25841 14.818 6.26152C14.818 6.26463 14.818 6.26775 14.818 6.27086C14.818 6.27397 14.818 6.27709 14.818 6.28021C14.818 6.28333 14.818 6.28645 14.818 6.28957C14.818 6.2927 14.818 6.29582 14.818 6.29895C14.818 6.30208 14.818 6.30521 14.818 6.30834C14.818 6.31148 14.818 6.31461 14.818 6.31775C14.818 6.32088 14.818 6.32402 14.818 6.32717C14.818 6.33031 14.818 6.33345 14.818 6.3366C14.818 6.33974 14.818 6.34289 14.818 6.34604C14.818 6.34919 14.818 6.35234 14.818 6.3555C14.818 6.35865 14.818 6.36181 14.818 6.36496C14.818 6.36812 14.818 6.37128 14.818 6.37444C14.818 6.37761 14.818 6.38077 14.818 6.38394C14.818 6.3871 14.818 6.39027 14.818 6.39344C14.818 6.39661 14.818 6.39978 14.818 6.40296C14.818 6.40613 14.818 6.40931 14.818 6.41249C14.818 6.41566 14.818 6.41884 14.818 6.42202C14.818 6.42521 14.818 6.42839 14.818 6.43157C14.818 6.43476 14.818 6.43795 14.818 6.44113C14.818 6.44432 14.818 6.44751 14.818 6.45071C14.818 6.4539 14.818 6.45709 14.818 6.46029C14.818 6.46348 14.818 6.46668 14.818 6.46988C14.818 6.47308 14.818 6.47628 14.818 6.47948C14.818 6.48268 14.818 6.48589 14.818 6.48909C14.818 6.4923 14.818 6.49551 14.818 6.49872C14.818 6.50192 14.818 6.50514 14.818 6.50835C14.818 6.51156 14.818 6.51477 14.818 6.51799C14.818 6.5212 14.818 6.52442 14.818 6.52764C14.818 6.53086 14.818 6.53408 14.818 6.5373C14.818 6.54052 14.818 6.54374 14.818 6.54696C14.818 6.55019 14.818 6.55341 14.818 6.55664C14.818 6.55987 14.818 6.5631 14.818 6.56632C14.818 6.56955 14.818 6.57279 14.818 6.57602C14.818 6.57925 14.818 6.58248 14.818 6.58572C14.818 6.58895 14.818 6.59219 14.818 6.59543C14.818 6.59866 14.818 6.6019 14.818 6.60514C14.818 6.60838 14.818 6.61162 14.818 6.61487C14.818 6.61811 14.818 6.62135 14.818 6.6246C14.818 6.62784 14.818 6.63109 14.818 6.63434C14.818 6.63758 14.818 6.64083 14.818 6.64408C14.818 6.64733 14.818 6.65058 14.818 6.65383C14.818 6.65708 14.818 6.66034 14.818 6.66359C14.818 6.66684 14.818 6.6701 14.818 6.67335C14.818 6.67661 14.818 6.67987 14.818 6.68312C14.818 6.68638 14.818 6.68964 14.818 6.6929C14.818 6.69616 14.818 6.69942 14.818 6.70268C14.818 6.70594 14.818 6.70921 14.818 6.71247C14.818 6.71573 14.818 6.719 14.818 6.72226C14.818 6.72553 14.818 6.72879 14.818 6.73206C14.818 6.73533 14.818 6.73859 14.818 6.74186C14.818 6.74513 14.818 6.7484 14.818 6.75167C14.818 6.75494 14.818 6.75821 14.818 6.76148C14.818 6.76475 14.818 6.76802 14.818 6.7713C14.818 6.77457 14.818 6.77784 14.818 6.78112C14.818 6.78439 14.818 6.78767 14.818 6.79094C14.818 6.79422 14.818 6.79749 14.818 6.80077C14.818 6.80405 14.818 6.80733 14.818 6.8106C14.818 6.81388 14.818 6.81716 14.818 6.82044C14.818 6.82372 14.818 6.827 14.818 6.83028C14.818 6.83356 14.818 6.83684 14.818 6.84012C14.818 6.8434 14.818 6.84668 14.818 6.84996C14.818 6.85325 14.818 6.85653 14.818 6.85981C14.818 6.86309 14.818 6.86638 14.818 6.86966C14.818 6.87295 14.818 6.87623 14.818 6.87951C14.818 6.8828 14.818 6.88608 14.818 6.88937C14.818 6.89265 14.818 6.89594 14.818 6.89922C14.818 6.90251 14.818 6.9058 14.818 6.90908C14.818 6.91237 14.818 6.91565 14.818 6.91894C14.818 6.92223 14.818 6.92552 14.818 6.9288C14.818 6.93209 14.818 6.93538 14.818 6.93866C14.818 6.94195 14.818 6.94524 14.818 6.94853C14.818 6.95181 14.818 6.9551 14.818 6.95839C14.818 6.96168 14.818 6.96497 14.818 6.96825C14.818 6.97154 14.818 6.97483 14.818 6.97812C14.818 6.98141 14.818 6.9847 14.818 6.98798C14.818 6.99127 14.818 6.99456 14.818 6.99785C14.818 7.00114 14.818 7.00442 14.818 7.00771C14.818 7.011 14.818 7.01429 14.818 7.01758C14.818 7.02086 14.818 7.02415 14.818 7.02744C14.818 7.03073 14.818 7.03402 14.818 7.0373C14.818 7.04059 14.818 7.04388 14.818 7.04716C14.818 7.05045 14.818 7.05374 14.818 7.05703C14.818 7.06031 14.818 7.0636 14.818 7.06688C14.818 7.07017 14.818 7.07346 14.818 7.07674C14.818 7.08003 14.818 7.08331 14.818 7.0866C14.818 7.08988 14.818 7.09317 14.818 7.09645C14.818 7.09974 14.818 7.10302 14.818 7.10631C14.818 7.10959 14.818 7.11287 14.818 7.11616C14.818 7.11944 14.818 7.12272 14.818 7.126C14.818 7.12928 14.818 7.13257 14.818 7.13585C14.818 7.13913 14.818 7.14241 14.818 7.14569C14.818 7.14897 14.818 7.15225 14.818 7.15553C14.818 7.15881 14.818 7.16209 14.818 7.16536C14.818 7.16864 14.818 7.17192 14.818 7.1752C14.818 7.17847 14.818 7.18175 14.818 7.18502C14.818 7.1883 14.818 7.19157 14.818 7.19485C14.818 7.19812 14.818 7.2014 14.818 7.20467C14.818 7.20794 14.818 7.21121 14.818 7.21449C14.818 7.21776 14.818 7.22103 14.818 7.2243C14.818 7.22757 14.818 7.23084 14.818 7.23411C14.818 7.23737 14.818 7.24064 14.818 7.24391C14.818 7.24718 14.818 7.25044 14.818 7.25371C14.818 7.25697 14.818 7.26024 14.818 7.2635C14.818 7.26676 14.818 7.27002 14.818 7.27329C14.818 7.27655 14.818 7.27981 14.818 7.28307C14.818 7.28633 14.818 7.28959 14.818 7.29284C14.818 7.2961 14.818 7.29936 14.818 7.30261C14.818 7.30587 14.818 7.30912 14.818 7.31238C14.818 7.31563 14.818 7.31888 14.818 7.32214C14.818 7.32539 14.818 7.32864 14.818 7.33189C14.818 7.33514 14.818 7.33839 14.818 7.34163C14.818 7.34488 14.818 7.34813 14.818 7.35137C14.818 7.35462 14.818 7.35786 14.818 7.3611C14.818 7.36434 14.818 7.36758 14.818 7.37082C14.818 7.37406 14.818 7.3773 14.818 7.38054C14.818 7.38378 14.818 7.38701 14.818 7.39025C14.818 7.39348 14.818 7.39672 14.818 7.39995C14.818 7.40318 14.818 7.40641 14.818 7.40964C14.818 7.41287 14.818 7.4161 14.818 7.41933C14.818 7.42255 14.818 7.42578 14.818 7.429C14.818 7.43223 14.818 7.43545 14.818 7.43867C14.818 7.44189 14.818 7.44511 14.818 7.44833C14.818 7.45155 14.818 7.45476 14.818 7.45798C14.818 7.46119 14.818 7.46441 14.818 7.46762C14.818 7.47083 14.818 7.47404 14.818 7.47725C14.818 7.48046 14.818 7.48367 14.818 7.48687C14.818 7.49008 14.818 7.49328 14.818 7.49649C14.818 7.49969 14.818 7.50289 14.818 7.50609C14.818 7.50929 14.818 7.51248 14.818 7.51568C14.818 7.51888 14.818 7.52207 14.818 7.52526C14.818 7.52845 14.818 7.53164 14.818 7.53483C14.818 7.53802 14.818 7.54121 14.818 7.54439C14.818 7.54758 14.818 7.55076 14.818 7.55394C14.818 7.55712 14.818 7.5603 14.818 7.56348C14.818 7.56666 14.818 7.56984 14.818 7.57301C14.818 7.57618 14.818 7.57936 14.818 7.58253C14.818 7.5857 14.818 7.58886 14.818 7.59203C14.818 7.5952 14.818 7.59836 14.818 7.60152C14.818 7.60468 14.818 7.60784 14.818 7.611C14.818 7.61416 14.818 7.61732 14.818 7.62047C14.818 7.62363 14.818 7.62678 14.818 7.62993C14.818 7.63308 14.818 7.63623 14.818 7.63937C14.818 7.64252 14.818 7.64566 14.818 7.6488C14.818 7.65194 14.818 7.65508 14.818 7.65822C14.818 7.66136 14.818 7.66449 14.818 7.66762C14.818 7.67076 14.818 7.67389 14.818 7.67702C14.818 7.68014 14.818 7.68327 14.818 7.68639C14.818 7.68952 14.818 7.69264 14.818 7.69576C14.818 7.69888 14.818 7.70199 14.818 7.70511C14.818 7.70822 14.818 7.71133 14.818 7.71444C14.818 7.71755 14.818 7.72066 14.818 7.72377C14.818 7.72687 14.818 7.72997 14.818 7.73307C14.818 7.73617 14.818 7.73927 14.818 7.74237C14.818 7.74546 14.818 7.74855 14.818 7.75164C14.818 7.75473 14.818 7.75782 14.818 7.76091C14.818 7.76399 14.818 7.76707 14.818 7.77015C14.818 7.77323 14.818 7.77631 14.818 7.77939C14.818 7.78246 14.818 7.78553 14.818 7.7886C14.818 7.79167 14.818 7.79474 14.818 7.7978C14.818 7.80087 14.818 7.80393 14.818 7.80699C14.818 7.81005 14.818 7.8131 14.818 7.81616C14.818 7.81921 14.818 7.82226 14.818 7.82531C14.818 7.82836 14.818 7.8314 14.818 7.83444C14.818 7.83749 14.818 7.84052 14.818 7.84356C14.818 7.8466 14.818 7.84963 14.818 7.85266C14.818 7.85569 14.818 7.85872 14.818 7.86175C14.818 7.86477 14.818 7.8678 14.818 7.87082C14.818 7.87383 14.818 7.87685 14.818 7.87986C14.818 7.88288 14.818 7.88589 14.818 7.8889C14.818 7.8919 14.818 7.89491 14.818 7.89791C14.818 7.90091 14.818 7.90391 14.818 7.90691C14.818 7.9099 14.818 7.9129 14.818 7.91588C14.818 7.91887 14.818 7.92186 14.818 7.92484C14.818 7.92783 14.818 7.93081 14.818 7.93378C14.818 7.93676 14.818 7.93974 14.818 7.94271C14.818 7.94568 14.818 7.94864 14.818 7.95161C14.818 7.95457 14.818 7.95753 14.818 7.96049C14.818 7.96345 14.818 7.9664 14.818 7.96936C14.818 7.97231 14.818 7.97526 14.818 7.9782C14.818 7.98115 14.818 7.98409 14.818 7.98703C14.818 7.98996 14.818 7.9929 14.818 7.99583C14.818 7.99876 14.818 8.00169 14.818 8.00461C14.818 8.00754 14.818 8.01046 14.818 8.01338C14.818 8.0163 14.818 8.01921 14.818 8.02212C14.818 8.02503 14.818 8.02794 14.818 8.03084C14.818 8.03375 14.818 8.03665 14.818 8.03955C14.818 8.04244 14.818 8.04534 14.818 8.04823C14.818 8.05112 14.818 8.054 14.818 8.05689C14.818 8.05977 14.818 8.06265 14.818 8.06552C14.818 8.0684 14.818 8.07127 14.818 8.07414C14.818 8.07701 14.818 8.07987 14.818 8.08273C14.818 8.08559 14.818 8.08845 14.818 8.09131C14.818 8.09416 14.818 8.09701 14.818 8.09986C14.818 8.1027 14.818 8.10554 14.818 8.10838C14.818 8.11122 14.818 8.11406 14.818 8.11689C14.818 8.11972 14.818 8.12255 14.818 8.12537C14.818 8.12819 14.818 8.13101 14.818 8.13383C14.818 8.13664 14.818 8.13945 14.818 8.14226C14.818 8.14507 14.818 8.14787 14.818 8.15067C14.818 8.15347 14.818 8.15627 14.818 8.15906C14.818 8.16186 14.818 8.16464 14.818 8.16743C14.818 8.17021 14.818 8.17299 14.818 8.17577C14.818 8.17854 14.818 8.18132 14.818 8.18408C14.818 8.18685 14.818 8.18962 14.818 8.19238C14.818 8.19514 14.818 8.19789 14.818 8.20064C14.818 8.2034 14.818 8.20614 14.818 8.20889C14.818 8.21163 14.818 8.21437 14.818 8.2171C14.818 8.21984 14.818 8.22257 14.818 8.2253C14.818 8.22802 14.818 8.23075 14.818 8.23346C14.818 8.23618 14.818 8.2389 14.818 8.24161C14.818 8.24431 14.818 8.24702 14.818 8.24972C14.818 8.25242 14.818 8.25512 14.818 8.25781C14.818 8.2605 14.818 8.26319 14.818 8.26587C14.818 8.26856 14.818 8.27124 14.818 8.27391C14.818 8.27659 14.818 8.27926 14.818 8.28192C14.818 8.28459 14.818 8.28725 14.818 8.28991C14.818 8.29257 14.818 8.29522 14.818 8.29787C14.818 8.30051 14.818 8.30316 14.818 8.3058C14.818 8.30844 14.818 8.31107 14.818 8.3137C14.818 8.31633 14.818 8.31895 14.818 8.32158C14.818 8.3242 14.818 8.32681 14.818 8.32942C14.818 8.33204 14.818 8.33464 14.818 8.33724C14.818 8.33985 14.818 8.34244 14.818 8.34504C14.818 8.34763 14.818 8.35022 14.818 8.3528C14.818 8.35538 14.818 8.35796 14.818 8.36054C14.818 8.36311 14.818 8.36568 14.818 8.36824C14.818 8.37081 14.818 8.37337 14.818 8.37592C14.818 8.37848 14.818 8.38103 14.818 8.38357C14.818 8.38612 14.818 8.38866 14.818 8.39119C14.818 8.39373 14.818 8.39626 14.818 8.39878C14.818 8.40131 14.818 8.40383 14.818 8.40635C14.818 8.40886 14.818 8.41137 14.818 8.41388C14.818 8.41638 14.818 8.41888 14.818 8.42138C14.818 8.42387 14.818 8.42637 14.818 8.42885C14.818 8.43134 14.818 8.43382 14.818 8.43629C14.818 8.43877 14.818 8.44124 14.818 8.4437C14.818 8.44617 14.818 8.44863 14.818 8.45108C14.818 8.45354 14.818 8.45599 14.818 8.45843C14.818 8.46088 14.818 8.46332 14.818 8.46575C14.818 8.46819 14.818 8.47062 14.818 8.47304C14.818 8.47546 14.818 8.47788 14.818 8.4803C14.818 8.48271 14.818 8.48512 14.818 8.48752C14.818 8.48992 14.818 8.49232 14.818 8.49471C14.818 8.4971 14.818 8.49949 14.818 8.50187C14.818 8.50425 14.818 8.50663 14.818 8.509C14.818 8.51137 14.818 8.51374 14.818 8.5161C14.818 8.51846 14.818 8.52081 14.818 8.52316C14.818 8.52551 14.818 8.52785 14.818 8.53019C14.818 8.53253 14.818 8.53486 14.818 8.53719C14.818 8.53951 14.818 8.54184 14.818 8.54415C14.818 8.54647 14.818 8.54878 14.818 8.55108C14.818 8.55339 14.818 8.55569 14.818 8.55798C14.818 8.56027 14.818 8.56256 14.818 8.56484C14.818 8.56713 14.818 8.5694 14.818 8.57167C14.818 8.57395 14.818 8.57621 14.818 8.57847C14.818 8.58073 14.818 8.58298 14.818 8.58523C14.818 8.58748 14.818 8.58972 14.818 8.59196C14.818 8.59419 14.818 8.59643 14.818 8.59865C14.818 8.60087 14.818 8.60309 14.818 8.60531C14.818 8.60752 14.818 8.60973 14.818 8.61193C14.818 8.61413 14.818 8.61633 14.818 8.61852C14.818 8.62071 14.818 8.62289 14.818 8.62507C14.818 8.62725 14.818 8.62942 14.818 8.63159C14.818 8.63375 14.818 8.63591 14.818 8.63807C14.818 8.64022 14.818 8.64237 14.818 8.64451C14.818 8.64665 14.818 8.64879 14.818 8.65092C14.818 8.65305 14.818 8.65517 14.818 8.65729C14.818 8.65941 14.818 8.66152 14.818 8.66362C14.818 8.66573 14.818 8.66783 14.818 8.66992C14.818 8.67202 14.818 8.6741 14.818 8.67618C14.818 8.67827 14.818 8.68034 14.818 8.68241C14.818 8.68448 14.818 8.68654 14.818 8.6886C14.818 8.69065 14.818 8.6927 14.818 8.69475C14.818 8.69679 14.818 8.69883 14.818 8.70086C14.818 8.70289 14.818 8.70491 14.818 8.70693C14.818 8.70895 14.818 8.71096 14.818 8.71297C14.818 8.71497 14.818 8.71697 14.818 8.71896C14.818 8.72096 14.818 8.72294 14.818 8.72492C14.818 8.7269 14.818 8.72888 14.818 8.73084C14.818 8.73281 14.818 8.73477 14.818 8.73672C14.818 8.73868 14.818 8.74063 14.818 8.74257C14.818 8.74451 14.818 8.74644 14.818 8.74837C14.818 8.7503 14.818 8.75222 14.818 8.75413C14.818 8.75605 14.818 8.75796 14.818 8.75986C14.818 8.76176 14.818 8.76365 14.818 8.76554C14.818 8.76743 14.818 8.76931 14.818 8.77119C14.818 8.77306 14.818 8.77493 14.818 8.77679C14.818 8.77865 14.818 8.78051 14.818 8.78235C14.818 8.7842 14.818 8.78604 14.818 8.78788C14.818 8.78971 14.818 8.79154 14.818 8.79336C14.818 8.79518 14.818 8.79699 14.818 8.7988C14.818 8.80061 14.818 8.80241 14.818 8.8042C14.818 8.80599 14.818 8.80778 14.818 8.80956C14.818 8.81134 14.818 8.81311 14.818 8.81488C14.818 8.81664 14.818 8.8184 14.818 8.82015C14.818 8.8219 14.818 8.82365 14.818 8.82539C14.818 8.82712 14.818 8.82885 14.818 8.83058C14.818 8.8323 14.818 8.83402 14.818 8.83573C14.818 8.83744 14.818 8.83914 14.818 8.84083C14.818 8.84253 14.818 8.84422 14.818 8.8459C14.818 8.84758 14.818 8.84925 14.818 8.85092C14.818 8.85258 14.818 8.85424 14.818 8.8559C14.818 8.85755 14.818 8.85919 14.818 8.86083C14.818 8.86247 14.818 8.8641 14.818 8.86572C14.818 8.86735 14.818 8.86896 14.818 8.87057C14.818 8.87218 14.818 8.87378 14.818 8.87537C14.818 8.87697 14.818 8.87856 14.818 8.88014C14.818 8.88171 14.818 8.88329 14.818 8.88485C14.818 8.88642 14.818 8.88797 14.818 8.88952C14.818 8.89107 14.818 8.89261 14.818 8.89415C14.818 8.89568 14.818 8.89721 14.818 8.89873C14.818 8.90025 14.818 8.90176 14.818 8.90327C14.818 8.90477 14.818 8.90627 14.818 8.90776C14.818 8.90925 14.818 8.91073 14.818 8.91221C14.818 8.91368 14.818 8.91515 14.818 8.91661C14.818 8.91807 14.818 8.91952 14.818 8.92096C14.818 8.92241 14.818 8.92385 14.818 8.92527C14.818 8.9267 14.818 8.92812 14.818 8.92954C14.818 8.93095 14.818 8.93236 14.818 8.93375C14.818 8.93515 14.818 8.93654 14.818 8.93793C14.818 8.93931 14.818 8.94068 14.818 8.94205C14.818 8.94342 14.818 8.94478 14.818 8.94613C14.818 8.94748 14.818 8.94882 14.818 8.95016C14.818 8.95149 14.818 8.95282 14.818 8.95414C14.818 8.95546 14.818 8.95677 14.818 8.95807C14.818 8.95938 14.818 8.96067 14.818 8.96196C14.818 8.96325 14.818 8.96453 14.818 8.9658C14.818 8.96707 14.818 8.96834 14.818 8.96959C14.818 8.97085 14.818 8.9721 14.818 8.97334C14.818 8.97458 14.818 8.97581 14.818 8.97703C14.818 8.97826 14.818 8.97947 14.818 8.98068H16.818ZM16.818 4.99529C16.818 1.93464 14.2609 -0.488281 11.1785 -0.488281V1.51172C13.2213 1.51172 14.818 3.10309 14.818 4.99529H16.818ZM11.1785 -0.488281C8.0962 -0.488281 5.53906 1.93464 5.53906 4.99529H7.53906C7.53906 3.10309 9.13579 1.51172 11.1785 1.51172V-0.488281ZM5.53906 4.99529C5.53906 4.99649 5.53906 4.99771 5.53906 4.99893C5.53906 5.00016 5.53906 5.00139 5.53906 5.00263C5.53906 5.00387 5.53906 5.00512 5.53906 5.00637C5.53906 5.00763 5.53906 5.00889 5.53906 5.01016C5.53906 5.01144 5.53906 5.01272 5.53906 5.014C5.53906 5.01529 5.53906 5.01659 5.53906 5.01789C5.53906 5.0192 5.53906 5.02051 5.53906 5.02183C5.53906 5.02315 5.53906 5.02448 5.53906 5.02581C5.53906 5.02715 5.53906 5.02849 5.53906 5.02984C5.53906 5.03119 5.53906 5.03255 5.53906 5.03392C5.53906 5.03528 5.53906 5.03666 5.53906 5.03804C5.53906 5.03942 5.53906 5.04081 5.53906 5.04221C5.53906 5.04361 5.53906 5.04502 5.53906 5.04643C5.53906 5.04784 5.53906 5.04926 5.53906 5.05069C5.53906 5.05212 5.53906 5.05356 5.53906 5.055C5.53906 5.05645 5.53906 5.0579 5.53906 5.05936C5.53906 5.06082 5.53906 5.06228 5.53906 5.06376C5.53906 5.06523 5.53906 5.06672 5.53906 5.06821C5.53906 5.0697 5.53906 5.07119 5.53906 5.0727C5.53906 5.0742 5.53906 5.07572 5.53906 5.07724C5.53906 5.07876 5.53906 5.08028 5.53906 5.08182C5.53906 5.08335 5.53906 5.0849 5.53906 5.08644C5.53906 5.08799 5.53906 5.08955 5.53906 5.09112C5.53906 5.09268 5.53906 5.09425 5.53906 5.09583C5.53906 5.09741 5.53906 5.099 5.53906 5.10059C5.53906 5.10219 5.53906 5.10379 5.53906 5.1054C5.53906 5.10701 5.53906 5.10862 5.53906 5.11024C5.53906 5.11187 5.53906 5.1135 5.53906 5.11514C5.53906 5.11677 5.53906 5.11842 5.53906 5.12007C5.53906 5.12172 5.53906 5.12338 5.53906 5.12505C5.53906 5.12672 5.53906 5.12839 5.53906 5.13007C5.53906 5.13175 5.53906 5.13344 5.53906 5.13513C5.53906 5.13683 5.53906 5.13853 5.53906 5.14024C5.53906 5.14195 5.53906 5.14367 5.53906 5.14539C5.53906 5.14711 5.53906 5.14884 5.53906 5.15058C5.53906 5.15232 5.53906 5.15406 5.53906 5.15582C5.53906 5.15757 5.53906 5.15933 5.53906 5.16109C5.53906 5.16286 5.53906 5.16463 5.53906 5.16641C5.53906 5.16819 5.53906 5.16997 5.53906 5.17177C5.53906 5.17356 5.53906 5.17536 5.53906 5.17717C5.53906 5.17897 5.53906 5.18079 5.53906 5.18261C5.53906 5.18443 5.53906 5.18626 5.53906 5.18809C5.53906 5.18993 5.53906 5.19177 5.53906 5.19361C5.53906 5.19546 5.53906 5.19732 5.53906 5.19918C5.53906 5.20104 5.53906 5.20291 5.53906 5.20478C5.53906 5.20666 5.53906 5.20854 5.53906 5.21043C5.53906 5.21231 5.53906 5.21421 5.53906 5.21611C5.53906 5.21801 5.53906 5.21992 5.53906 5.22183C5.53906 5.22375 5.53906 5.22567 5.53906 5.2276C5.53906 5.22953 5.53906 5.23146 5.53906 5.2334C5.53906 5.23534 5.53906 5.23729 5.53906 5.23924C5.53906 5.2412 5.53906 5.24316 5.53906 5.24512C5.53906 5.24709 5.53906 5.24906 5.53906 5.25104C5.53906 5.25302 5.53906 5.25501 5.53906 5.257C5.53906 5.259 5.53906 5.261 5.53906 5.263C5.53906 5.26501 5.53906 5.26702 5.53906 5.26904C5.53906 5.27106 5.53906 5.27308 5.53906 5.27511C5.53906 5.27714 5.53906 5.27918 5.53906 5.28122C5.53906 5.28327 5.53906 5.28532 5.53906 5.28737C5.53906 5.28943 5.53906 5.29149 5.53906 5.29356C5.53906 5.29563 5.53906 5.2977 5.53906 5.29978C5.53906 5.30186 5.53906 5.30395 5.53906 5.30604C5.53906 5.30814 5.53906 5.31024 5.53906 5.31234C5.53906 5.31445 5.53906 5.31656 5.53906 5.31868C5.53906 5.3208 5.53906 5.32292 5.53906 5.32505C5.53906 5.32718 5.53906 5.32932 5.53906 5.33146C5.53906 5.3336 5.53906 5.33575 5.53906 5.3379C5.53906 5.34006 5.53906 5.34222 5.53906 5.34438C5.53906 5.34655 5.53906 5.34872 5.53906 5.3509C5.53906 5.35308 5.53906 5.35526 5.53906 5.35745C5.53906 5.35964 5.53906 5.36184 5.53906 5.36404C5.53906 5.36624 5.53906 5.36845 5.53906 5.37066C5.53906 5.37287 5.53906 5.37509 5.53906 5.37732C5.53906 5.37954 5.53906 5.38177 5.53906 5.38401C5.53906 5.38625 5.53906 5.38849 5.53906 5.39074C5.53906 5.39298 5.53906 5.39524 5.53906 5.3975C5.53906 5.39976 5.53906 5.40202 5.53906 5.40429C5.53906 5.40656 5.53906 5.40884 5.53906 5.41112C5.53906 5.41341 5.53906 5.41569 5.53906 5.41799C5.53906 5.42028 5.53906 5.42258 5.53906 5.42488C5.53906 5.42719 5.53906 5.4295 5.53906 5.43182C5.53906 5.43413 5.53906 5.43645 5.53906 5.43878C5.53906 5.44111 5.53906 5.44344 5.53906 5.44578C5.53906 5.44812 5.53906 5.45046 5.53906 5.45281C5.53906 5.45516 5.53906 5.45751 5.53906 5.45987C5.53906 5.46223 5.53906 5.4646 5.53906 5.46697C5.53906 5.46934 5.53906 5.47171 5.53906 5.4741C5.53906 5.47648 5.53906 5.47886 5.53906 5.48126C5.53906 5.48365 5.53906 5.48604 5.53906 5.48845C5.53906 5.49085 5.53906 5.49326 5.53906 5.49567C5.53906 5.49809 5.53906 5.5005 5.53906 5.50293C5.53906 5.50535 5.53906 5.50778 5.53906 5.51022C5.53906 5.51265 5.53906 5.51509 5.53906 5.51753C5.53906 5.51998 5.53906 5.52243 5.53906 5.52488C5.53906 5.52734 5.53906 5.5298 5.53906 5.53226C5.53906 5.53473 5.53906 5.5372 5.53906 5.53967C5.53906 5.54215 5.53906 5.54463 5.53906 5.54712C5.53906 5.5496 5.53906 5.55209 5.53906 5.55459C5.53906 5.55708 5.53906 5.55958 5.53906 5.56209C5.53906 5.5646 5.53906 5.56711 5.53906 5.56962C5.53906 5.57214 5.53906 5.57466 5.53906 5.57718C5.53906 5.57971 5.53906 5.58224 5.53906 5.58477C5.53906 5.58731 5.53906 5.58985 5.53906 5.59239C5.53906 5.59494 5.53906 5.59749 5.53906 5.60004C5.53906 5.6026 5.53906 5.60516 5.53906 5.60772C5.53906 5.61029 5.53906 5.61286 5.53906 5.61543C5.53906 5.618 5.53906 5.62058 5.53906 5.62317C5.53906 5.62575 5.53906 5.62834 5.53906 5.63093C5.53906 5.63352 5.53906 5.63612 5.53906 5.63872C5.53906 5.64132 5.53906 5.64393 5.53906 5.64654C5.53906 5.64915 5.53906 5.65177 5.53906 5.65439C5.53906 5.65701 5.53906 5.65964 5.53906 5.66227C5.53906 5.6649 5.53906 5.66753 5.53906 5.67017C5.53906 5.67281 5.53906 5.67545 5.53906 5.6781C5.53906 5.68075 5.53906 5.6834 5.53906 5.68606C5.53906 5.68872 5.53906 5.69138 5.53906 5.69404C5.53906 5.69671 5.53906 5.69938 5.53906 5.70205C5.53906 5.70473 5.53906 5.70741 5.53906 5.71009C5.53906 5.71278 5.53906 5.71546 5.53906 5.71816C5.53906 5.72085 5.53906 5.72355 5.53906 5.72625C5.53906 5.72895 5.53906 5.73165 5.53906 5.73436C5.53906 5.73707 5.53906 5.73979 5.53906 5.7425C5.53906 5.74522 5.53906 5.74794 5.53906 5.75067C5.53906 5.7534 5.53906 5.75613 5.53906 5.75886C5.53906 5.7616 5.53906 5.76434 5.53906 5.76708C5.53906 5.76982 5.53906 5.77257 5.53906 5.77532C5.53906 5.77808 5.53906 5.78083 5.53906 5.78359C5.53906 5.78635 5.53906 5.78911 5.53906 5.79188C5.53906 5.79465 5.53906 5.79742 5.53906 5.8002C5.53906 5.80298 5.53906 5.80576 5.53906 5.80854C5.53906 5.81132 5.53906 5.81411 5.53906 5.8169C5.53906 5.8197 5.53906 5.82249 5.53906 5.82529C5.53906 5.82809 5.53906 5.8309 5.53906 5.8337C5.53906 5.83651 5.53906 5.83932 5.53906 5.84214C5.53906 5.84496 5.53906 5.84777 5.53906 5.8506C5.53906 5.85342 5.53906 5.85625 5.53906 5.85908C5.53906 5.86191 5.53906 5.86475 5.53906 5.86758C5.53906 5.87042 5.53906 5.87327 5.53906 5.87611C5.53906 5.87896 5.53906 5.88181 5.53906 5.88466C5.53906 5.88752 5.53906 5.89037 5.53906 5.89323C5.53906 5.89609 5.53906 5.89896 5.53906 5.90183C5.53906 5.9047 5.53906 5.90757 5.53906 5.91044C5.53906 5.91332 5.53906 5.9162 5.53906 5.91908C5.53906 5.92196 5.53906 5.92485 5.53906 5.92774C5.53906 5.93063 5.53906 5.93352 5.53906 5.93642C5.53906 5.93932 5.53906 5.94222 5.53906 5.94512C5.53906 5.94803 5.53906 5.95093 5.53906 5.95385C5.53906 5.95676 5.53906 5.95967 5.53906 5.96259C5.53906 5.96551 5.53906 5.96843 5.53906 5.97135C5.53906 5.97428 5.53906 5.97721 5.53906 5.98014C5.53906 5.98307 5.53906 5.986 5.53906 5.98894C5.53906 5.99188 5.53906 5.99482 5.53906 5.99777C5.53906 6.00071 5.53906 6.00366 5.53906 6.00661C5.53906 6.00956 5.53906 6.01252 5.53906 6.01547C5.53906 6.01843 5.53906 6.02139 5.53906 6.02436C5.53906 6.02732 5.53906 6.03029 5.53906 6.03326C5.53906 6.03623 5.53906 6.03921 5.53906 6.04218C5.53906 6.04516 5.53906 6.04814 5.53906 6.05112C5.53906 6.05411 5.53906 6.05709 5.53906 6.06008C5.53906 6.06307 5.53906 6.06606 5.53906 6.06906C5.53906 6.07206 5.53906 6.07505 5.53906 6.07806C5.53906 6.08106 5.53906 6.08406 5.53906 6.08707C5.53906 6.09008 5.53906 6.09309 5.53906 6.0961C5.53906 6.09912 5.53906 6.10213 5.53906 6.10515C5.53906 6.10817 5.53906 6.11119 5.53906 6.11422C5.53906 6.11724 5.53906 6.12027 5.53906 6.1233C5.53906 6.12634 5.53906 6.12937 5.53906 6.13241C5.53906 6.13544 5.53906 6.13848 5.53906 6.14152C5.53906 6.14457 5.53906 6.14761 5.53906 6.15066C5.53906 6.15371 5.53906 6.15676 5.53906 6.15981C5.53906 6.16287 5.53906 6.16592 5.53906 6.16898C5.53906 6.17204 5.53906 6.1751 5.53906 6.17816C5.53906 6.18123 5.53906 6.1843 5.53906 6.18737C5.53906 6.19043 5.53906 6.19351 5.53906 6.19658C5.53906 6.19966 5.53906 6.20273 5.53906 6.20581C5.53906 6.20889 5.53906 6.21198 5.53906 6.21506C5.53906 6.21815 5.53906 6.22123 5.53906 6.22432C5.53906 6.22741 5.53906 6.23051 5.53906 6.2336C5.53906 6.2367 5.53906 6.23979 5.53906 6.24289C5.53906 6.24599 5.53906 6.2491 5.53906 6.2522C5.53906 6.25531 5.53906 6.25841 5.53906 6.26152C5.53906 6.26463 5.53906 6.26775 5.53906 6.27086C5.53906 6.27397 5.53906 6.27709 5.53906 6.28021C5.53906 6.28333 5.53906 6.28645 5.53906 6.28957C5.53906 6.2927 5.53906 6.29582 5.53906 6.29895C5.53906 6.30208 5.53906 6.30521 5.53906 6.30834C5.53906 6.31148 5.53906 6.31461 5.53906 6.31775C5.53906 6.32088 5.53906 6.32402 5.53906 6.32717C5.53906 6.33031 5.53906 6.33345 5.53906 6.3366C5.53906 6.33974 5.53906 6.34289 5.53906 6.34604C5.53906 6.34919 5.53906 6.35234 5.53906 6.3555C5.53906 6.35865 5.53906 6.36181 5.53906 6.36496C5.53906 6.36812 5.53906 6.37128 5.53906 6.37444C5.53906 6.37761 5.53906 6.38077 5.53906 6.38394C5.53906 6.3871 5.53906 6.39027 5.53906 6.39344C5.53906 6.39661 5.53906 6.39978 5.53906 6.40296C5.53906 6.40613 5.53906 6.40931 5.53906 6.41249C5.53906 6.41566 5.53906 6.41884 5.53906 6.42202C5.53906 6.42521 5.53906 6.42839 5.53906 6.43157C5.53906 6.43476 5.53906 6.43795 5.53906 6.44113C5.53906 6.44432 5.53906 6.44751 5.53906 6.45071C5.53906 6.4539 5.53906 6.45709 5.53906 6.46029C5.53906 6.46348 5.53906 6.46668 5.53906 6.46988C5.53906 6.47308 5.53906 6.47628 5.53906 6.47948C5.53906 6.48268 5.53906 6.48589 5.53906 6.48909C5.53906 6.4923 5.53906 6.49551 5.53906 6.49872C5.53906 6.50192 5.53906 6.50514 5.53906 6.50835C5.53906 6.51156 5.53906 6.51477 5.53906 6.51799C5.53906 6.5212 5.53906 6.52442 5.53906 6.52764C5.53906 6.53086 5.53906 6.53408 5.53906 6.5373C5.53906 6.54052 5.53906 6.54374 5.53906 6.54696C5.53906 6.55019 5.53906 6.55341 5.53906 6.55664C5.53906 6.55987 5.53906 6.5631 5.53906 6.56632C5.53906 6.56955 5.53906 6.57279 5.53906 6.57602C5.53906 6.57925 5.53906 6.58248 5.53906 6.58572C5.53906 6.58895 5.53906 6.59219 5.53906 6.59543C5.53906 6.59866 5.53906 6.6019 5.53906 6.60514C5.53906 6.60838 5.53906 6.61162 5.53906 6.61487C5.53906 6.61811 5.53906 6.62135 5.53906 6.6246C5.53906 6.62784 5.53906 6.63109 5.53906 6.63434C5.53906 6.63758 5.53906 6.64083 5.53906 6.64408C5.53906 6.64733 5.53906 6.65058 5.53906 6.65383C5.53906 6.65708 5.53906 6.66034 5.53906 6.66359C5.53906 6.66684 5.53906 6.6701 5.53906 6.67335C5.53906 6.67661 5.53906 6.67987 5.53906 6.68312C5.53906 6.68638 5.53906 6.68964 5.53906 6.6929C5.53906 6.69616 5.53906 6.69942 5.53906 6.70268C5.53906 6.70594 5.53906 6.70921 5.53906 6.71247C5.53906 6.71573 5.53906 6.719 5.53906 6.72226C5.53906 6.72553 5.53906 6.72879 5.53906 6.73206C5.53906 6.73533 5.53906 6.73859 5.53906 6.74186C5.53906 6.74513 5.53906 6.7484 5.53906 6.75167C5.53906 6.75494 5.53906 6.75821 5.53906 6.76148C5.53906 6.76475 5.53906 6.76802 5.53906 6.7713C5.53906 6.77457 5.53906 6.77784 5.53906 6.78112C5.53906 6.78439 5.53906 6.78767 5.53906 6.79094C5.53906 6.79422 5.53906 6.79749 5.53906 6.80077C5.53906 6.80405 5.53906 6.80733 5.53906 6.8106C5.53906 6.81388 5.53906 6.81716 5.53906 6.82044C5.53906 6.82372 5.53906 6.827 5.53906 6.83028C5.53906 6.83356 5.53906 6.83684 5.53906 6.84012C5.53906 6.8434 5.53906 6.84668 5.53906 6.84996C5.53906 6.85325 5.53906 6.85653 5.53906 6.85981C5.53906 6.86309 5.53906 6.86638 5.53906 6.86966C5.53906 6.87295 5.53906 6.87623 5.53906 6.87951C5.53906 6.8828 5.53906 6.88608 5.53906 6.88937C5.53906 6.89265 5.53906 6.89594 5.53906 6.89922C5.53906 6.90251 5.53906 6.9058 5.53906 6.90908C5.53906 6.91237 5.53906 6.91565 5.53906 6.91894C5.53906 6.92223 5.53906 6.92552 5.53906 6.9288C5.53906 6.93209 5.53906 6.93538 5.53906 6.93866C5.53906 6.94195 5.53906 6.94524 5.53906 6.94853C5.53906 6.95181 5.53906 6.9551 5.53906 6.95839C5.53906 6.96168 5.53906 6.96497 5.53906 6.96825C5.53906 6.97154 5.53906 6.97483 5.53906 6.97812C5.53906 6.98141 5.53906 6.9847 5.53906 6.98798C5.53906 6.99127 5.53906 6.99456 5.53906 6.99785C5.53906 7.00114 5.53906 7.00442 5.53906 7.00771C5.53906 7.011 5.53906 7.01429 5.53906 7.01758C5.53906 7.02086 5.53906 7.02415 5.53906 7.02744C5.53906 7.03073 5.53906 7.03402 5.53906 7.0373C5.53906 7.04059 5.53906 7.04388 5.53906 7.04716C5.53906 7.05045 5.53906 7.05374 5.53906 7.05703C5.53906 7.06031 5.53906 7.0636 5.53906 7.06688C5.53906 7.07017 5.53906 7.07346 5.53906 7.07674C5.53906 7.08003 5.53906 7.08331 5.53906 7.0866C5.53906 7.08988 5.53906 7.09317 5.53906 7.09645C5.53906 7.09974 5.53906 7.10302 5.53906 7.10631C5.53906 7.10959 5.53906 7.11287 5.53906 7.11616C5.53906 7.11944 5.53906 7.12272 5.53906 7.126C5.53906 7.12928 5.53906 7.13257 5.53906 7.13585C5.53906 7.13913 5.53906 7.14241 5.53906 7.14569C5.53906 7.14897 5.53906 7.15225 5.53906 7.15553C5.53906 7.15881 5.53906 7.16209 5.53906 7.16536C5.53906 7.16864 5.53906 7.17192 5.53906 7.1752C5.53906 7.17847 5.53906 7.18175 5.53906 7.18502C5.53906 7.1883 5.53906 7.19157 5.53906 7.19485C5.53906 7.19812 5.53906 7.2014 5.53906 7.20467C5.53906 7.20794 5.53906 7.21121 5.53906 7.21449C5.53906 7.21776 5.53906 7.22103 5.53906 7.2243C5.53906 7.22757 5.53906 7.23084 5.53906 7.23411C5.53906 7.23737 5.53906 7.24064 5.53906 7.24391C5.53906 7.24718 5.53906 7.25044 5.53906 7.25371C5.53906 7.25697 5.53906 7.26024 5.53906 7.2635C5.53906 7.26676 5.53906 7.27002 5.53906 7.27329C5.53906 7.27655 5.53906 7.27981 5.53906 7.28307C5.53906 7.28633 5.53906 7.28959 5.53906 7.29284C5.53906 7.2961 5.53906 7.29936 5.53906 7.30261C5.53906 7.30587 5.53906 7.30912 5.53906 7.31238C5.53906 7.31563 5.53906 7.31888 5.53906 7.32214C5.53906 7.32539 5.53906 7.32864 5.53906 7.33189C5.53906 7.33514 5.53906 7.33839 5.53906 7.34163C5.53906 7.34488 5.53906 7.34813 5.53906 7.35137C5.53906 7.35462 5.53906 7.35786 5.53906 7.3611C5.53906 7.36434 5.53906 7.36758 5.53906 7.37082C5.53906 7.37406 5.53906 7.3773 5.53906 7.38054C5.53906 7.38378 5.53906 7.38701 5.53906 7.39025C5.53906 7.39348 5.53906 7.39672 5.53906 7.39995C5.53906 7.40318 5.53906 7.40641 5.53906 7.40964C5.53906 7.41287 5.53906 7.4161 5.53906 7.41933C5.53906 7.42255 5.53906 7.42578 5.53906 7.429C5.53906 7.43223 5.53906 7.43545 5.53906 7.43867C5.53906 7.44189 5.53906 7.44511 5.53906 7.44833C5.53906 7.45155 5.53906 7.45476 5.53906 7.45798C5.53906 7.46119 5.53906 7.46441 5.53906 7.46762C5.53906 7.47083 5.53906 7.47404 5.53906 7.47725C5.53906 7.48046 5.53906 7.48367 5.53906 7.48687C5.53906 7.49008 5.53906 7.49328 5.53906 7.49649C5.53906 7.49969 5.53906 7.50289 5.53906 7.50609C5.53906 7.50929 5.53906 7.51248 5.53906 7.51568C5.53906 7.51888 5.53906 7.52207 5.53906 7.52526C5.53906 7.52845 5.53906 7.53164 5.53906 7.53483C5.53906 7.53802 5.53906 7.54121 5.53906 7.54439C5.53906 7.54758 5.53906 7.55076 5.53906 7.55394C5.53906 7.55712 5.53906 7.5603 5.53906 7.56348C5.53906 7.56666 5.53906 7.56984 5.53906 7.57301C5.53906 7.57618 5.53906 7.57936 5.53906 7.58253C5.53906 7.5857 5.53906 7.58886 5.53906 7.59203C5.53906 7.5952 5.53906 7.59836 5.53906 7.60152C5.53906 7.60468 5.53906 7.60784 5.53906 7.611C5.53906 7.61416 5.53906 7.61732 5.53906 7.62047C5.53906 7.62363 5.53906 7.62678 5.53906 7.62993C5.53906 7.63308 5.53906 7.63623 5.53906 7.63937C5.53906 7.64252 5.53906 7.64566 5.53906 7.6488C5.53906 7.65194 5.53906 7.65508 5.53906 7.65822C5.53906 7.66136 5.53906 7.66449 5.53906 7.66762C5.53906 7.67076 5.53906 7.67389 5.53906 7.67702C5.53906 7.68014 5.53906 7.68327 5.53906 7.68639C5.53906 7.68952 5.53906 7.69264 5.53906 7.69576C5.53906 7.69888 5.53906 7.70199 5.53906 7.70511C5.53906 7.70822 5.53906 7.71133 5.53906 7.71444C5.53906 7.71755 5.53906 7.72066 5.53906 7.72377C5.53906 7.72687 5.53906 7.72997 5.53906 7.73307C5.53906 7.73617 5.53906 7.73927 5.53906 7.74237C5.53906 7.74546 5.53906 7.74855 5.53906 7.75164C5.53906 7.75473 5.53906 7.75782 5.53906 7.76091C5.53906 7.76399 5.53906 7.76707 5.53906 7.77015C5.53906 7.77323 5.53906 7.77631 5.53906 7.77939C5.53906 7.78246 5.53906 7.78553 5.53906 7.7886C5.53906 7.79167 5.53906 7.79474 5.53906 7.7978C5.53906 7.80087 5.53906 7.80393 5.53906 7.80699C5.53906 7.81005 5.53906 7.8131 5.53906 7.81616C5.53906 7.81921 5.53906 7.82226 5.53906 7.82531C5.53906 7.82836 5.53906 7.8314 5.53906 7.83444C5.53906 7.83749 5.53906 7.84052 5.53906 7.84356C5.53906 7.8466 5.53906 7.84963 5.53906 7.85266C5.53906 7.85569 5.53906 7.85872 5.53906 7.86175C5.53906 7.86477 5.53906 7.8678 5.53906 7.87082C5.53906 7.87383 5.53906 7.87685 5.53906 7.87986C5.53906 7.88288 5.53906 7.88589 5.53906 7.8889C5.53906 7.8919 5.53906 7.89491 5.53906 7.89791C5.53906 7.90091 5.53906 7.90391 5.53906 7.90691C5.53906 7.9099 5.53906 7.9129 5.53906 7.91588C5.53906 7.91887 5.53906 7.92186 5.53906 7.92484C5.53906 7.92783 5.53906 7.93081 5.53906 7.93378C5.53906 7.93676 5.53906 7.93974 5.53906 7.94271C5.53906 7.94568 5.53906 7.94864 5.53906 7.95161C5.53906 7.95457 5.53906 7.95753 5.53906 7.96049C5.53906 7.96345 5.53906 7.9664 5.53906 7.96936C5.53906 7.97231 5.53906 7.97526 5.53906 7.9782C5.53906 7.98115 5.53906 7.98409 5.53906 7.98703C5.53906 7.98996 5.53906 7.9929 5.53906 7.99583C5.53906 7.99876 5.53906 8.00169 5.53906 8.00461C5.53906 8.00754 5.53906 8.01046 5.53906 8.01338C5.53906 8.0163 5.53906 8.01921 5.53906 8.02212C5.53906 8.02503 5.53906 8.02794 5.53906 8.03084C5.53906 8.03375 5.53906 8.03665 5.53906 8.03955C5.53906 8.04244 5.53906 8.04534 5.53906 8.04823C5.53906 8.05112 5.53906 8.054 5.53906 8.05689C5.53906 8.05977 5.53906 8.06265 5.53906 8.06552C5.53906 8.0684 5.53906 8.07127 5.53906 8.07414C5.53906 8.07701 5.53906 8.07987 5.53906 8.08273C5.53906 8.08559 5.53906 8.08845 5.53906 8.09131C5.53906 8.09416 5.53906 8.09701 5.53906 8.09986C5.53906 8.1027 5.53906 8.10554 5.53906 8.10838C5.53906 8.11122 5.53906 8.11406 5.53906 8.11689C5.53906 8.11972 5.53906 8.12255 5.53906 8.12537C5.53906 8.12819 5.53906 8.13101 5.53906 8.13383C5.53906 8.13664 5.53906 8.13945 5.53906 8.14226C5.53906 8.14507 5.53906 8.14787 5.53906 8.15067C5.53906 8.15347 5.53906 8.15627 5.53906 8.15906C5.53906 8.16186 5.53906 8.16464 5.53906 8.16743C5.53906 8.17021 5.53906 8.17299 5.53906 8.17577C5.53906 8.17854 5.53906 8.18132 5.53906 8.18408C5.53906 8.18685 5.53906 8.18962 5.53906 8.19238C5.53906 8.19514 5.53906 8.19789 5.53906 8.20064C5.53906 8.2034 5.53906 8.20614 5.53906 8.20889C5.53906 8.21163 5.53906 8.21437 5.53906 8.2171C5.53906 8.21984 5.53906 8.22257 5.53906 8.2253C5.53906 8.22802 5.53906 8.23075 5.53906 8.23346C5.53906 8.23618 5.53906 8.2389 5.53906 8.24161C5.53906 8.24431 5.53906 8.24702 5.53906 8.24972C5.53906 8.25242 5.53906 8.25512 5.53906 8.25781C5.53906 8.2605 5.53906 8.26319 5.53906 8.26587C5.53906 8.26856 5.53906 8.27124 5.53906 8.27391C5.53906 8.27659 5.53906 8.27926 5.53906 8.28192C5.53906 8.28459 5.53906 8.28725 5.53906 8.28991C5.53906 8.29257 5.53906 8.29522 5.53906 8.29787C5.53906 8.30051 5.53906 8.30316 5.53906 8.3058C5.53906 8.30844 5.53906 8.31107 5.53906 8.3137C5.53906 8.31633 5.53906 8.31895 5.53906 8.32158C5.53906 8.3242 5.53906 8.32681 5.53906 8.32942C5.53906 8.33204 5.53906 8.33464 5.53906 8.33724C5.53906 8.33985 5.53906 8.34244 5.53906 8.34504C5.53906 8.34763 5.53906 8.35022 5.53906 8.3528C5.53906 8.35538 5.53906 8.35796 5.53906 8.36054C5.53906 8.36311 5.53906 8.36568 5.53906 8.36824C5.53906 8.37081 5.53906 8.37337 5.53906 8.37592C5.53906 8.37848 5.53906 8.38103 5.53906 8.38357C5.53906 8.38612 5.53906 8.38866 5.53906 8.39119C5.53906 8.39373 5.53906 8.39626 5.53906 8.39878C5.53906 8.40131 5.53906 8.40383 5.53906 8.40635C5.53906 8.40886 5.53906 8.41137 5.53906 8.41388C5.53906 8.41638 5.53906 8.41888 5.53906 8.42138C5.53906 8.42387 5.53906 8.42637 5.53906 8.42885C5.53906 8.43134 5.53906 8.43382 5.53906 8.43629C5.53906 8.43877 5.53906 8.44124 5.53906 8.4437C5.53906 8.44617 5.53906 8.44863 5.53906 8.45108C5.53906 8.45354 5.53906 8.45599 5.53906 8.45843C5.53906 8.46088 5.53906 8.46332 5.53906 8.46575C5.53906 8.46819 5.53906 8.47062 5.53906 8.47304C5.53906 8.47546 5.53906 8.47788 5.53906 8.4803C5.53906 8.48271 5.53906 8.48512 5.53906 8.48752C5.53906 8.48992 5.53906 8.49232 5.53906 8.49471C5.53906 8.4971 5.53906 8.49949 5.53906 8.50187C5.53906 8.50425 5.53906 8.50663 5.53906 8.509C5.53906 8.51137 5.53906 8.51374 5.53906 8.5161C5.53906 8.51846 5.53906 8.52081 5.53906 8.52316C5.53906 8.52551 5.53906 8.52785 5.53906 8.53019C5.53906 8.53253 5.53906 8.53486 5.53906 8.53719C5.53906 8.53951 5.53906 8.54184 5.53906 8.54415C5.53906 8.54647 5.53906 8.54878 5.53906 8.55108C5.53906 8.55339 5.53906 8.55569 5.53906 8.55798C5.53906 8.56027 5.53906 8.56256 5.53906 8.56484C5.53906 8.56713 5.53906 8.5694 5.53906 8.57167C5.53906 8.57395 5.53906 8.57621 5.53906 8.57847C5.53906 8.58073 5.53906 8.58298 5.53906 8.58523C5.53906 8.58748 5.53906 8.58972 5.53906 8.59196C5.53906 8.59419 5.53906 8.59643 5.53906 8.59865C5.53906 8.60087 5.53906 8.60309 5.53906 8.60531C5.53906 8.60752 5.53906 8.60973 5.53906 8.61193C5.53906 8.61413 5.53906 8.61633 5.53906 8.61852C5.53906 8.62071 5.53906 8.62289 5.53906 8.62507C5.53906 8.62725 5.53906 8.62942 5.53906 8.63159C5.53906 8.63375 5.53906 8.63591 5.53906 8.63807C5.53906 8.64022 5.53906 8.64237 5.53906 8.64451C5.53906 8.64665 5.53906 8.64879 5.53906 8.65092C5.53906 8.65305 5.53906 8.65517 5.53906 8.65729C5.53906 8.65941 5.53906 8.66152 5.53906 8.66362C5.53906 8.66573 5.53906 8.66783 5.53906 8.66992C5.53906 8.67202 5.53906 8.6741 5.53906 8.67618C5.53906 8.67827 5.53906 8.68034 5.53906 8.68241C5.53906 8.68448 5.53906 8.68654 5.53906 8.6886C5.53906 8.69065 5.53906 8.6927 5.53906 8.69475C5.53906 8.69679 5.53906 8.69883 5.53906 8.70086C5.53906 8.70289 5.53906 8.70491 5.53906 8.70693C5.53906 8.70895 5.53906 8.71096 5.53906 8.71297C5.53906 8.71497 5.53906 8.71697 5.53906 8.71896C5.53906 8.72096 5.53906 8.72294 5.53906 8.72492C5.53906 8.7269 5.53906 8.72888 5.53906 8.73084C5.53906 8.73281 5.53906 8.73477 5.53906 8.73672C5.53906 8.73868 5.53906 8.74063 5.53906 8.74257C5.53906 8.74451 5.53906 8.74644 5.53906 8.74837C5.53906 8.7503 5.53906 8.75222 5.53906 8.75413C5.53906 8.75605 5.53906 8.75796 5.53906 8.75986C5.53906 8.76176 5.53906 8.76365 5.53906 8.76554C5.53906 8.76743 5.53906 8.76931 5.53906 8.77119C5.53906 8.77306 5.53906 8.77493 5.53906 8.77679C5.53906 8.77865 5.53906 8.78051 5.53906 8.78235C5.53906 8.7842 5.53906 8.78604 5.53906 8.78788C5.53906 8.78971 5.53906 8.79154 5.53906 8.79336C5.53906 8.79518 5.53906 8.79699 5.53906 8.7988C5.53906 8.80061 5.53906 8.80241 5.53906 8.8042C5.53906 8.80599 5.53906 8.80778 5.53906 8.80956C5.53906 8.81134 5.53906 8.81311 5.53906 8.81488C5.53906 8.81664 5.53906 8.8184 5.53906 8.82015C5.53906 8.8219 5.53906 8.82365 5.53906 8.82539C5.53906 8.82712 5.53906 8.82885 5.53906 8.83058C5.53906 8.8323 5.53906 8.83402 5.53906 8.83573C5.53906 8.83744 5.53906 8.83914 5.53906 8.84083C5.53906 8.84253 5.53906 8.84422 5.53906 8.8459C5.53906 8.84758 5.53906 8.84925 5.53906 8.85092C5.53906 8.85258 5.53906 8.85424 5.53906 8.8559C5.53906 8.85755 5.53906 8.85919 5.53906 8.86083C5.53906 8.86247 5.53906 8.8641 5.53906 8.86572C5.53906 8.86735 5.53906 8.86896 5.53906 8.87057C5.53906 8.87218 5.53906 8.87378 5.53906 8.87537C5.53906 8.87697 5.53906 8.87856 5.53906 8.88014C5.53906 8.88171 5.53906 8.88329 5.53906 8.88485C5.53906 8.88642 5.53906 8.88797 5.53906 8.88952C5.53906 8.89107 5.53906 8.89261 5.53906 8.89415C5.53906 8.89568 5.53906 8.89721 5.53906 8.89873C5.53906 8.90025 5.53906 8.90176 5.53906 8.90327C5.53906 8.90477 5.53906 8.90627 5.53906 8.90776C5.53906 8.90925 5.53906 8.91073 5.53906 8.91221C5.53906 8.91368 5.53906 8.91515 5.53906 8.91661C5.53906 8.91807 5.53906 8.91952 5.53906 8.92096C5.53906 8.92241 5.53906 8.92385 5.53906 8.92527C5.53906 8.9267 5.53906 8.92812 5.53906 8.92954C5.53906 8.93095 5.53906 8.93236 5.53906 8.93375C5.53906 8.93515 5.53906 8.93654 5.53906 8.93793C5.53906 8.93931 5.53906 8.94068 5.53906 8.94205C5.53906 8.94342 5.53906 8.94478 5.53906 8.94613C5.53906 8.94748 5.53906 8.94882 5.53906 8.95016C5.53906 8.95149 5.53906 8.95282 5.53906 8.95414C5.53906 8.95546 5.53906 8.95677 5.53906 8.95807C5.53906 8.95938 5.53906 8.96067 5.53906 8.96196C5.53906 8.96325 5.53906 8.96453 5.53906 8.9658C5.53906 8.96707 5.53906 8.96834 5.53906 8.96959C5.53906 8.97085 5.53906 8.9721 5.53906 8.97334C5.53906 8.97458 5.53906 8.97581 5.53906 8.97703C5.53906 8.97826 5.53906 8.97947 5.53906 8.98068H7.53906C7.53906 8.97947 7.53906 8.97826 7.53906 8.97703C7.53906 8.97581 7.53906 8.97458 7.53906 8.97334C7.53906 8.9721 7.53906 8.97085 7.53906 8.96959C7.53906 8.96834 7.53906 8.96707 7.53906 8.9658C7.53906 8.96453 7.53906 8.96325 7.53906 8.96196C7.53906 8.96067 7.53906 8.95938 7.53906 8.95807C7.53906 8.95677 7.53906 8.95546 7.53906 8.95414C7.53906 8.95282 7.53906 8.95149 7.53906 8.95016C7.53906 8.94882 7.53906 8.94748 7.53906 8.94613C7.53906 8.94478 7.53906 8.94342 7.53906 8.94205C7.53906 8.94068 7.53906 8.93931 7.53906 8.93793C7.53906 8.93654 7.53906 8.93515 7.53906 8.93375C7.53906 8.93236 7.53906 8.93095 7.53906 8.92954C7.53906 8.92812 7.53906 8.9267 7.53906 8.92527C7.53906 8.92385 7.53906 8.92241 7.53906 8.92096C7.53906 8.91952 7.53906 8.91807 7.53906 8.91661C7.53906 8.91515 7.53906 8.91368 7.53906 8.91221C7.53906 8.91073 7.53906 8.90925 7.53906 8.90776C7.53906 8.90627 7.53906 8.90477 7.53906 8.90327C7.53906 8.90176 7.53906 8.90025 7.53906 8.89873C7.53906 8.89721 7.53906 8.89568 7.53906 8.89415C7.53906 8.89261 7.53906 8.89107 7.53906 8.88952C7.53906 8.88797 7.53906 8.88642 7.53906 8.88485C7.53906 8.88329 7.53906 8.88171 7.53906 8.88014C7.53906 8.87856 7.53906 8.87697 7.53906 8.87537C7.53906 8.87378 7.53906 8.87218 7.53906 8.87057C7.53906 8.86896 7.53906 8.86735 7.53906 8.86572C7.53906 8.8641 7.53906 8.86247 7.53906 8.86083C7.53906 8.85919 7.53906 8.85755 7.53906 8.8559C7.53906 8.85424 7.53906 8.85258 7.53906 8.85092C7.53906 8.84925 7.53906 8.84758 7.53906 8.8459C7.53906 8.84422 7.53906 8.84253 7.53906 8.84083C7.53906 8.83914 7.53906 8.83744 7.53906 8.83573C7.53906 8.83402 7.53906 8.8323 7.53906 8.83058C7.53906 8.82885 7.53906 8.82712 7.53906 8.82539C7.53906 8.82365 7.53906 8.8219 7.53906 8.82015C7.53906 8.8184 7.53906 8.81664 7.53906 8.81488C7.53906 8.81311 7.53906 8.81134 7.53906 8.80956C7.53906 8.80778 7.53906 8.80599 7.53906 8.8042C7.53906 8.80241 7.53906 8.80061 7.53906 8.7988C7.53906 8.79699 7.53906 8.79518 7.53906 8.79336C7.53906 8.79154 7.53906 8.78971 7.53906 8.78788C7.53906 8.78604 7.53906 8.7842 7.53906 8.78235C7.53906 8.78051 7.53906 8.77865 7.53906 8.77679C7.53906 8.77493 7.53906 8.77306 7.53906 8.77119C7.53906 8.76931 7.53906 8.76743 7.53906 8.76554C7.53906 8.76365 7.53906 8.76176 7.53906 8.75986C7.53906 8.75796 7.53906 8.75605 7.53906 8.75413C7.53906 8.75222 7.53906 8.7503 7.53906 8.74837C7.53906 8.74644 7.53906 8.74451 7.53906 8.74257C7.53906 8.74063 7.53906 8.73868 7.53906 8.73672C7.53906 8.73477 7.53906 8.73281 7.53906 8.73084C7.53906 8.72888 7.53906 8.7269 7.53906 8.72492C7.53906 8.72294 7.53906 8.72096 7.53906 8.71896C7.53906 8.71697 7.53906 8.71497 7.53906 8.71297C7.53906 8.71096 7.53906 8.70895 7.53906 8.70693C7.53906 8.70491 7.53906 8.70289 7.53906 8.70086C7.53906 8.69883 7.53906 8.69679 7.53906 8.69475C7.53906 8.6927 7.53906 8.69065 7.53906 8.6886C7.53906 8.68654 7.53906 8.68448 7.53906 8.68241C7.53906 8.68034 7.53906 8.67827 7.53906 8.67618C7.53906 8.6741 7.53906 8.67202 7.53906 8.66992C7.53906 8.66783 7.53906 8.66573 7.53906 8.66362C7.53906 8.66152 7.53906 8.65941 7.53906 8.65729C7.53906 8.65517 7.53906 8.65305 7.53906 8.65092C7.53906 8.64879 7.53906 8.64665 7.53906 8.64451C7.53906 8.64237 7.53906 8.64022 7.53906 8.63807C7.53906 8.63591 7.53906 8.63375 7.53906 8.63159C7.53906 8.62942 7.53906 8.62725 7.53906 8.62507C7.53906 8.62289 7.53906 8.62071 7.53906 8.61852C7.53906 8.61633 7.53906 8.61413 7.53906 8.61193C7.53906 8.60973 7.53906 8.60752 7.53906 8.60531C7.53906 8.60309 7.53906 8.60087 7.53906 8.59865C7.53906 8.59643 7.53906 8.59419 7.53906 8.59196C7.53906 8.58972 7.53906 8.58748 7.53906 8.58523C7.53906 8.58298 7.53906 8.58073 7.53906 8.57847C7.53906 8.57621 7.53906 8.57395 7.53906 8.57167C7.53906 8.5694 7.53906 8.56713 7.53906 8.56484C7.53906 8.56256 7.53906 8.56027 7.53906 8.55798C7.53906 8.55569 7.53906 8.55339 7.53906 8.55108C7.53906 8.54878 7.53906 8.54647 7.53906 8.54415C7.53906 8.54184 7.53906 8.53951 7.53906 8.53719C7.53906 8.53486 7.53906 8.53253 7.53906 8.53019C7.53906 8.52785 7.53906 8.52551 7.53906 8.52316C7.53906 8.52081 7.53906 8.51846 7.53906 8.5161C7.53906 8.51374 7.53906 8.51137 7.53906 8.509C7.53906 8.50663 7.53906 8.50425 7.53906 8.50187C7.53906 8.49949 7.53906 8.4971 7.53906 8.49471C7.53906 8.49232 7.53906 8.48992 7.53906 8.48752C7.53906 8.48512 7.53906 8.48271 7.53906 8.4803C7.53906 8.47788 7.53906 8.47546 7.53906 8.47304C7.53906 8.47062 7.53906 8.46819 7.53906 8.46575C7.53906 8.46332 7.53906 8.46088 7.53906 8.45843C7.53906 8.45599 7.53906 8.45354 7.53906 8.45108C7.53906 8.44863 7.53906 8.44617 7.53906 8.4437C7.53906 8.44124 7.53906 8.43877 7.53906 8.43629C7.53906 8.43382 7.53906 8.43134 7.53906 8.42885C7.53906 8.42637 7.53906 8.42387 7.53906 8.42138C7.53906 8.41888 7.53906 8.41638 7.53906 8.41388C7.53906 8.41137 7.53906 8.40886 7.53906 8.40635C7.53906 8.40383 7.53906 8.40131 7.53906 8.39878C7.53906 8.39626 7.53906 8.39373 7.53906 8.39119C7.53906 8.38866 7.53906 8.38612 7.53906 8.38357C7.53906 8.38103 7.53906 8.37848 7.53906 8.37592C7.53906 8.37337 7.53906 8.37081 7.53906 8.36824C7.53906 8.36568 7.53906 8.36311 7.53906 8.36054C7.53906 8.35796 7.53906 8.35538 7.53906 8.3528C7.53906 8.35022 7.53906 8.34763 7.53906 8.34504C7.53906 8.34244 7.53906 8.33985 7.53906 8.33724C7.53906 8.33464 7.53906 8.33204 7.53906 8.32942C7.53906 8.32681 7.53906 8.3242 7.53906 8.32158C7.53906 8.31895 7.53906 8.31633 7.53906 8.3137C7.53906 8.31107 7.53906 8.30844 7.53906 8.3058C7.53906 8.30316 7.53906 8.30051 7.53906 8.29787C7.53906 8.29522 7.53906 8.29257 7.53906 8.28991C7.53906 8.28725 7.53906 8.28459 7.53906 8.28192C7.53906 8.27926 7.53906 8.27659 7.53906 8.27391C7.53906 8.27124 7.53906 8.26856 7.53906 8.26587C7.53906 8.26319 7.53906 8.2605 7.53906 8.25781C7.53906 8.25512 7.53906 8.25242 7.53906 8.24972C7.53906 8.24702 7.53906 8.24431 7.53906 8.24161C7.53906 8.2389 7.53906 8.23618 7.53906 8.23346C7.53906 8.23075 7.53906 8.22802 7.53906 8.2253C7.53906 8.22257 7.53906 8.21984 7.53906 8.2171C7.53906 8.21437 7.53906 8.21163 7.53906 8.20889C7.53906 8.20614 7.53906 8.2034 7.53906 8.20064C7.53906 8.19789 7.53906 8.19514 7.53906 8.19238C7.53906 8.18962 7.53906 8.18685 7.53906 8.18408C7.53906 8.18132 7.53906 8.17854 7.53906 8.17577C7.53906 8.17299 7.53906 8.17021 7.53906 8.16743C7.53906 8.16464 7.53906 8.16186 7.53906 8.15906C7.53906 8.15627 7.53906 8.15347 7.53906 8.15067C7.53906 8.14787 7.53906 8.14507 7.53906 8.14226C7.53906 8.13945 7.53906 8.13664 7.53906 8.13383C7.53906 8.13101 7.53906 8.12819 7.53906 8.12537C7.53906 8.12255 7.53906 8.11972 7.53906 8.11689C7.53906 8.11406 7.53906 8.11122 7.53906 8.10838C7.53906 8.10554 7.53906 8.1027 7.53906 8.09986C7.53906 8.09701 7.53906 8.09416 7.53906 8.09131C7.53906 8.08845 7.53906 8.08559 7.53906 8.08273C7.53906 8.07987 7.53906 8.07701 7.53906 8.07414C7.53906 8.07127 7.53906 8.0684 7.53906 8.06552C7.53906 8.06265 7.53906 8.05977 7.53906 8.05689C7.53906 8.054 7.53906 8.05112 7.53906 8.04823C7.53906 8.04534 7.53906 8.04244 7.53906 8.03955C7.53906 8.03665 7.53906 8.03375 7.53906 8.03084C7.53906 8.02794 7.53906 8.02503 7.53906 8.02212C7.53906 8.01921 7.53906 8.0163 7.53906 8.01338C7.53906 8.01046 7.53906 8.00754 7.53906 8.00461C7.53906 8.00169 7.53906 7.99876 7.53906 7.99583C7.53906 7.9929 7.53906 7.98996 7.53906 7.98703C7.53906 7.98409 7.53906 7.98115 7.53906 7.9782C7.53906 7.97526 7.53906 7.97231 7.53906 7.96936C7.53906 7.9664 7.53906 7.96345 7.53906 7.96049C7.53906 7.95753 7.53906 7.95457 7.53906 7.95161C7.53906 7.94864 7.53906 7.94568 7.53906 7.94271C7.53906 7.93974 7.53906 7.93676 7.53906 7.93378C7.53906 7.93081 7.53906 7.92783 7.53906 7.92484C7.53906 7.92186 7.53906 7.91887 7.53906 7.91588C7.53906 7.9129 7.53906 7.9099 7.53906 7.90691C7.53906 7.90391 7.53906 7.90091 7.53906 7.89791C7.53906 7.89491 7.53906 7.8919 7.53906 7.8889C7.53906 7.88589 7.53906 7.88288 7.53906 7.87986C7.53906 7.87685 7.53906 7.87383 7.53906 7.87082C7.53906 7.8678 7.53906 7.86477 7.53906 7.86175C7.53906 7.85872 7.53906 7.85569 7.53906 7.85266C7.53906 7.84963 7.53906 7.8466 7.53906 7.84356C7.53906 7.84052 7.53906 7.83749 7.53906 7.83444C7.53906 7.8314 7.53906 7.82836 7.53906 7.82531C7.53906 7.82226 7.53906 7.81921 7.53906 7.81616C7.53906 7.8131 7.53906 7.81005 7.53906 7.80699C7.53906 7.80393 7.53906 7.80087 7.53906 7.7978C7.53906 7.79474 7.53906 7.79167 7.53906 7.7886C7.53906 7.78553 7.53906 7.78246 7.53906 7.77939C7.53906 7.77631 7.53906 7.77323 7.53906 7.77015C7.53906 7.76707 7.53906 7.76399 7.53906 7.76091C7.53906 7.75782 7.53906 7.75473 7.53906 7.75164C7.53906 7.74855 7.53906 7.74546 7.53906 7.74237C7.53906 7.73927 7.53906 7.73617 7.53906 7.73307C7.53906 7.72997 7.53906 7.72687 7.53906 7.72377C7.53906 7.72066 7.53906 7.71755 7.53906 7.71444C7.53906 7.71133 7.53906 7.70822 7.53906 7.70511C7.53906 7.70199 7.53906 7.69888 7.53906 7.69576C7.53906 7.69264 7.53906 7.68952 7.53906 7.68639C7.53906 7.68327 7.53906 7.68014 7.53906 7.67702C7.53906 7.67389 7.53906 7.67076 7.53906 7.66762C7.53906 7.66449 7.53906 7.66136 7.53906 7.65822C7.53906 7.65508 7.53906 7.65194 7.53906 7.6488C7.53906 7.64566 7.53906 7.64252 7.53906 7.63937C7.53906 7.63623 7.53906 7.63308 7.53906 7.62993C7.53906 7.62678 7.53906 7.62363 7.53906 7.62047C7.53906 7.61732 7.53906 7.61416 7.53906 7.611C7.53906 7.60784 7.53906 7.60468 7.53906 7.60152C7.53906 7.59836 7.53906 7.5952 7.53906 7.59203C7.53906 7.58886 7.53906 7.5857 7.53906 7.58253C7.53906 7.57936 7.53906 7.57618 7.53906 7.57301C7.53906 7.56984 7.53906 7.56666 7.53906 7.56348C7.53906 7.5603 7.53906 7.55712 7.53906 7.55394C7.53906 7.55076 7.53906 7.54758 7.53906 7.54439C7.53906 7.54121 7.53906 7.53802 7.53906 7.53483C7.53906 7.53164 7.53906 7.52845 7.53906 7.52526C7.53906 7.52207 7.53906 7.51888 7.53906 7.51568C7.53906 7.51248 7.53906 7.50929 7.53906 7.50609C7.53906 7.50289 7.53906 7.49969 7.53906 7.49649C7.53906 7.49328 7.53906 7.49008 7.53906 7.48687C7.53906 7.48367 7.53906 7.48046 7.53906 7.47725C7.53906 7.47404 7.53906 7.47083 7.53906 7.46762C7.53906 7.46441 7.53906 7.46119 7.53906 7.45798C7.53906 7.45476 7.53906 7.45155 7.53906 7.44833C7.53906 7.44511 7.53906 7.44189 7.53906 7.43867C7.53906 7.43545 7.53906 7.43223 7.53906 7.429C7.53906 7.42578 7.53906 7.42255 7.53906 7.41933C7.53906 7.4161 7.53906 7.41287 7.53906 7.40964C7.53906 7.40641 7.53906 7.40318 7.53906 7.39995C7.53906 7.39672 7.53906 7.39348 7.53906 7.39025C7.53906 7.38701 7.53906 7.38378 7.53906 7.38054C7.53906 7.3773 7.53906 7.37406 7.53906 7.37082C7.53906 7.36758 7.53906 7.36434 7.53906 7.3611C7.53906 7.35786 7.53906 7.35462 7.53906 7.35137C7.53906 7.34813 7.53906 7.34488 7.53906 7.34163C7.53906 7.33839 7.53906 7.33514 7.53906 7.33189C7.53906 7.32864 7.53906 7.32539 7.53906 7.32214C7.53906 7.31888 7.53906 7.31563 7.53906 7.31238C7.53906 7.30912 7.53906 7.30587 7.53906 7.30261C7.53906 7.29936 7.53906 7.2961 7.53906 7.29284C7.53906 7.28959 7.53906 7.28633 7.53906 7.28307C7.53906 7.27981 7.53906 7.27655 7.53906 7.27329C7.53906 7.27002 7.53906 7.26676 7.53906 7.2635C7.53906 7.26024 7.53906 7.25697 7.53906 7.25371C7.53906 7.25044 7.53906 7.24718 7.53906 7.24391C7.53906 7.24064 7.53906 7.23737 7.53906 7.23411C7.53906 7.23084 7.53906 7.22757 7.53906 7.2243C7.53906 7.22103 7.53906 7.21776 7.53906 7.21449C7.53906 7.21121 7.53906 7.20794 7.53906 7.20467C7.53906 7.2014 7.53906 7.19812 7.53906 7.19485C7.53906 7.19157 7.53906 7.1883 7.53906 7.18502C7.53906 7.18175 7.53906 7.17847 7.53906 7.1752C7.53906 7.17192 7.53906 7.16864 7.53906 7.16536C7.53906 7.16209 7.53906 7.15881 7.53906 7.15553C7.53906 7.15225 7.53906 7.14897 7.53906 7.14569C7.53906 7.14241 7.53906 7.13913 7.53906 7.13585C7.53906 7.13257 7.53906 7.12928 7.53906 7.126C7.53906 7.12272 7.53906 7.11944 7.53906 7.11616C7.53906 7.11287 7.53906 7.10959 7.53906 7.10631C7.53906 7.10302 7.53906 7.09974 7.53906 7.09645C7.53906 7.09317 7.53906 7.08988 7.53906 7.0866C7.53906 7.08331 7.53906 7.08003 7.53906 7.07674C7.53906 7.07346 7.53906 7.07017 7.53906 7.06688C7.53906 7.0636 7.53906 7.06031 7.53906 7.05703C7.53906 7.05374 7.53906 7.05045 7.53906 7.04716C7.53906 7.04388 7.53906 7.04059 7.53906 7.0373C7.53906 7.03402 7.53906 7.03073 7.53906 7.02744C7.53906 7.02415 7.53906 7.02086 7.53906 7.01758C7.53906 7.01429 7.53906 7.011 7.53906 7.00771C7.53906 7.00442 7.53906 7.00114 7.53906 6.99785C7.53906 6.99456 7.53906 6.99127 7.53906 6.98798C7.53906 6.9847 7.53906 6.98141 7.53906 6.97812C7.53906 6.97483 7.53906 6.97154 7.53906 6.96825C7.53906 6.96497 7.53906 6.96168 7.53906 6.95839C7.53906 6.9551 7.53906 6.95181 7.53906 6.94853C7.53906 6.94524 7.53906 6.94195 7.53906 6.93866C7.53906 6.93538 7.53906 6.93209 7.53906 6.9288C7.53906 6.92552 7.53906 6.92223 7.53906 6.91894C7.53906 6.91565 7.53906 6.91237 7.53906 6.90908C7.53906 6.9058 7.53906 6.90251 7.53906 6.89922C7.53906 6.89594 7.53906 6.89265 7.53906 6.88937C7.53906 6.88608 7.53906 6.8828 7.53906 6.87951C7.53906 6.87623 7.53906 6.87295 7.53906 6.86966C7.53906 6.86638 7.53906 6.86309 7.53906 6.85981C7.53906 6.85653 7.53906 6.85325 7.53906 6.84996C7.53906 6.84668 7.53906 6.8434 7.53906 6.84012C7.53906 6.83684 7.53906 6.83356 7.53906 6.83028C7.53906 6.827 7.53906 6.82372 7.53906 6.82044C7.53906 6.81716 7.53906 6.81388 7.53906 6.8106C7.53906 6.80733 7.53906 6.80405 7.53906 6.80077C7.53906 6.79749 7.53906 6.79422 7.53906 6.79094C7.53906 6.78767 7.53906 6.78439 7.53906 6.78112C7.53906 6.77784 7.53906 6.77457 7.53906 6.7713C7.53906 6.76802 7.53906 6.76475 7.53906 6.76148C7.53906 6.75821 7.53906 6.75494 7.53906 6.75167C7.53906 6.7484 7.53906 6.74513 7.53906 6.74186C7.53906 6.73859 7.53906 6.73533 7.53906 6.73206C7.53906 6.72879 7.53906 6.72553 7.53906 6.72226C7.53906 6.719 7.53906 6.71573 7.53906 6.71247C7.53906 6.70921 7.53906 6.70594 7.53906 6.70268C7.53906 6.69942 7.53906 6.69616 7.53906 6.6929C7.53906 6.68964 7.53906 6.68638 7.53906 6.68312C7.53906 6.67987 7.53906 6.67661 7.53906 6.67335C7.53906 6.6701 7.53906 6.66684 7.53906 6.66359C7.53906 6.66034 7.53906 6.65708 7.53906 6.65383C7.53906 6.65058 7.53906 6.64733 7.53906 6.64408C7.53906 6.64083 7.53906 6.63758 7.53906 6.63434C7.53906 6.63109 7.53906 6.62784 7.53906 6.6246C7.53906 6.62135 7.53906 6.61811 7.53906 6.61487C7.53906 6.61162 7.53906 6.60838 7.53906 6.60514C7.53906 6.6019 7.53906 6.59866 7.53906 6.59543C7.53906 6.59219 7.53906 6.58895 7.53906 6.58572C7.53906 6.58248 7.53906 6.57925 7.53906 6.57602C7.53906 6.57279 7.53906 6.56955 7.53906 6.56632C7.53906 6.5631 7.53906 6.55987 7.53906 6.55664C7.53906 6.55341 7.53906 6.55019 7.53906 6.54696C7.53906 6.54374 7.53906 6.54052 7.53906 6.5373C7.53906 6.53408 7.53906 6.53086 7.53906 6.52764C7.53906 6.52442 7.53906 6.5212 7.53906 6.51799C7.53906 6.51477 7.53906 6.51156 7.53906 6.50835C7.53906 6.50514 7.53906 6.50192 7.53906 6.49872C7.53906 6.49551 7.53906 6.4923 7.53906 6.48909C7.53906 6.48589 7.53906 6.48268 7.53906 6.47948C7.53906 6.47628 7.53906 6.47308 7.53906 6.46988C7.53906 6.46668 7.53906 6.46348 7.53906 6.46029C7.53906 6.45709 7.53906 6.4539 7.53906 6.45071C7.53906 6.44751 7.53906 6.44432 7.53906 6.44113C7.53906 6.43795 7.53906 6.43476 7.53906 6.43157C7.53906 6.42839 7.53906 6.42521 7.53906 6.42202C7.53906 6.41884 7.53906 6.41566 7.53906 6.41249C7.53906 6.40931 7.53906 6.40613 7.53906 6.40296C7.53906 6.39978 7.53906 6.39661 7.53906 6.39344C7.53906 6.39027 7.53906 6.3871 7.53906 6.38394C7.53906 6.38077 7.53906 6.37761 7.53906 6.37444C7.53906 6.37128 7.53906 6.36812 7.53906 6.36496C7.53906 6.36181 7.53906 6.35865 7.53906 6.3555C7.53906 6.35234 7.53906 6.34919 7.53906 6.34604C7.53906 6.34289 7.53906 6.33974 7.53906 6.3366C7.53906 6.33345 7.53906 6.33031 7.53906 6.32717C7.53906 6.32402 7.53906 6.32088 7.53906 6.31775C7.53906 6.31461 7.53906 6.31148 7.53906 6.30834C7.53906 6.30521 7.53906 6.30208 7.53906 6.29895C7.53906 6.29582 7.53906 6.2927 7.53906 6.28957C7.53906 6.28645 7.53906 6.28333 7.53906 6.28021C7.53906 6.27709 7.53906 6.27397 7.53906 6.27086C7.53906 6.26775 7.53906 6.26463 7.53906 6.26152C7.53906 6.25841 7.53906 6.25531 7.53906 6.2522C7.53906 6.2491 7.53906 6.24599 7.53906 6.24289C7.53906 6.23979 7.53906 6.2367 7.53906 6.2336C7.53906 6.23051 7.53906 6.22741 7.53906 6.22432C7.53906 6.22123 7.53906 6.21815 7.53906 6.21506C7.53906 6.21198 7.53906 6.20889 7.53906 6.20581C7.53906 6.20273 7.53906 6.19966 7.53906 6.19658C7.53906 6.19351 7.53906 6.19043 7.53906 6.18737C7.53906 6.1843 7.53906 6.18123 7.53906 6.17816C7.53906 6.1751 7.53906 6.17204 7.53906 6.16898C7.53906 6.16592 7.53906 6.16287 7.53906 6.15981C7.53906 6.15676 7.53906 6.15371 7.53906 6.15066C7.53906 6.14761 7.53906 6.14457 7.53906 6.14152C7.53906 6.13848 7.53906 6.13544 7.53906 6.13241C7.53906 6.12937 7.53906 6.12634 7.53906 6.1233C7.53906 6.12027 7.53906 6.11724 7.53906 6.11422C7.53906 6.11119 7.53906 6.10817 7.53906 6.10515C7.53906 6.10213 7.53906 6.09912 7.53906 6.0961C7.53906 6.09309 7.53906 6.09008 7.53906 6.08707C7.53906 6.08406 7.53906 6.08106 7.53906 6.07806C7.53906 6.07505 7.53906 6.07206 7.53906 6.06906C7.53906 6.06606 7.53906 6.06307 7.53906 6.06008C7.53906 6.05709 7.53906 6.05411 7.53906 6.05112C7.53906 6.04814 7.53906 6.04516 7.53906 6.04218C7.53906 6.03921 7.53906 6.03623 7.53906 6.03326C7.53906 6.03029 7.53906 6.02732 7.53906 6.02436C7.53906 6.02139 7.53906 6.01843 7.53906 6.01547C7.53906 6.01252 7.53906 6.00956 7.53906 6.00661C7.53906 6.00366 7.53906 6.00071 7.53906 5.99777C7.53906 5.99482 7.53906 5.99188 7.53906 5.98894C7.53906 5.986 7.53906 5.98307 7.53906 5.98014C7.53906 5.97721 7.53906 5.97428 7.53906 5.97135C7.53906 5.96843 7.53906 5.96551 7.53906 5.96259C7.53906 5.95967 7.53906 5.95676 7.53906 5.95385C7.53906 5.95093 7.53906 5.94803 7.53906 5.94512C7.53906 5.94222 7.53906 5.93932 7.53906 5.93642C7.53906 5.93352 7.53906 5.93063 7.53906 5.92774C7.53906 5.92485 7.53906 5.92196 7.53906 5.91908C7.53906 5.9162 7.53906 5.91332 7.53906 5.91044C7.53906 5.90757 7.53906 5.9047 7.53906 5.90183C7.53906 5.89896 7.53906 5.89609 7.53906 5.89323C7.53906 5.89037 7.53906 5.88752 7.53906 5.88466C7.53906 5.88181 7.53906 5.87896 7.53906 5.87611C7.53906 5.87327 7.53906 5.87042 7.53906 5.86758C7.53906 5.86475 7.53906 5.86191 7.53906 5.85908C7.53906 5.85625 7.53906 5.85342 7.53906 5.8506C7.53906 5.84777 7.53906 5.84496 7.53906 5.84214C7.53906 5.83932 7.53906 5.83651 7.53906 5.8337C7.53906 5.8309 7.53906 5.82809 7.53906 5.82529C7.53906 5.82249 7.53906 5.8197 7.53906 5.8169C7.53906 5.81411 7.53906 5.81132 7.53906 5.80854C7.53906 5.80576 7.53906 5.80298 7.53906 5.8002C7.53906 5.79742 7.53906 5.79465 7.53906 5.79188C7.53906 5.78911 7.53906 5.78635 7.53906 5.78359C7.53906 5.78083 7.53906 5.77808 7.53906 5.77532C7.53906 5.77257 7.53906 5.76982 7.53906 5.76708C7.53906 5.76434 7.53906 5.7616 7.53906 5.75886C7.53906 5.75613 7.53906 5.7534 7.53906 5.75067C7.53906 5.74794 7.53906 5.74522 7.53906 5.7425C7.53906 5.73979 7.53906 5.73707 7.53906 5.73436C7.53906 5.73165 7.53906 5.72895 7.53906 5.72625C7.53906 5.72355 7.53906 5.72085 7.53906 5.71816C7.53906 5.71546 7.53906 5.71278 7.53906 5.71009C7.53906 5.70741 7.53906 5.70473 7.53906 5.70205C7.53906 5.69938 7.53906 5.69671 7.53906 5.69404C7.53906 5.69138 7.53906 5.68872 7.53906 5.68606C7.53906 5.6834 7.53906 5.68075 7.53906 5.6781C7.53906 5.67545 7.53906 5.67281 7.53906 5.67017C7.53906 5.66753 7.53906 5.6649 7.53906 5.66227C7.53906 5.65964 7.53906 5.65701 7.53906 5.65439C7.53906 5.65177 7.53906 5.64915 7.53906 5.64654C7.53906 5.64393 7.53906 5.64132 7.53906 5.63872C7.53906 5.63612 7.53906 5.63352 7.53906 5.63093C7.53906 5.62834 7.53906 5.62575 7.53906 5.62317C7.53906 5.62058 7.53906 5.618 7.53906 5.61543C7.53906 5.61286 7.53906 5.61029 7.53906 5.60772C7.53906 5.60516 7.53906 5.6026 7.53906 5.60004C7.53906 5.59749 7.53906 5.59494 7.53906 5.59239C7.53906 5.58985 7.53906 5.58731 7.53906 5.58477C7.53906 5.58224 7.53906 5.57971 7.53906 5.57718C7.53906 5.57466 7.53906 5.57214 7.53906 5.56962C7.53906 5.56711 7.53906 5.5646 7.53906 5.56209C7.53906 5.55958 7.53906 5.55708 7.53906 5.55459C7.53906 5.55209 7.53906 5.5496 7.53906 5.54712C7.53906 5.54463 7.53906 5.54215 7.53906 5.53967C7.53906 5.5372 7.53906 5.53473 7.53906 5.53226C7.53906 5.5298 7.53906 5.52734 7.53906 5.52488C7.53906 5.52243 7.53906 5.51998 7.53906 5.51753C7.53906 5.51509 7.53906 5.51265 7.53906 5.51022C7.53906 5.50778 7.53906 5.50535 7.53906 5.50293C7.53906 5.5005 7.53906 5.49809 7.53906 5.49567C7.53906 5.49326 7.53906 5.49085 7.53906 5.48845C7.53906 5.48604 7.53906 5.48365 7.53906 5.48126C7.53906 5.47886 7.53906 5.47648 7.53906 5.4741C7.53906 5.47171 7.53906 5.46934 7.53906 5.46697C7.53906 5.4646 7.53906 5.46223 7.53906 5.45987C7.53906 5.45751 7.53906 5.45516 7.53906 5.45281C7.53906 5.45046 7.53906 5.44812 7.53906 5.44578C7.53906 5.44344 7.53906 5.44111 7.53906 5.43878C7.53906 5.43645 7.53906 5.43413 7.53906 5.43182C7.53906 5.4295 7.53906 5.42719 7.53906 5.42488C7.53906 5.42258 7.53906 5.42028 7.53906 5.41799C7.53906 5.41569 7.53906 5.41341 7.53906 5.41112C7.53906 5.40884 7.53906 5.40656 7.53906 5.40429C7.53906 5.40202 7.53906 5.39976 7.53906 5.3975C7.53906 5.39524 7.53906 5.39298 7.53906 5.39074C7.53906 5.38849 7.53906 5.38625 7.53906 5.38401C7.53906 5.38177 7.53906 5.37954 7.53906 5.37732C7.53906 5.37509 7.53906 5.37287 7.53906 5.37066C7.53906 5.36845 7.53906 5.36624 7.53906 5.36404C7.53906 5.36184 7.53906 5.35964 7.53906 5.35745C7.53906 5.35526 7.53906 5.35308 7.53906 5.3509C7.53906 5.34872 7.53906 5.34655 7.53906 5.34438C7.53906 5.34222 7.53906 5.34006 7.53906 5.3379C7.53906 5.33575 7.53906 5.3336 7.53906 5.33146C7.53906 5.32932 7.53906 5.32718 7.53906 5.32505C7.53906 5.32292 7.53906 5.3208 7.53906 5.31868C7.53906 5.31656 7.53906 5.31445 7.53906 5.31234C7.53906 5.31024 7.53906 5.30814 7.53906 5.30604C7.53906 5.30395 7.53906 5.30186 7.53906 5.29978C7.53906 5.2977 7.53906 5.29563 7.53906 5.29356C7.53906 5.29149 7.53906 5.28943 7.53906 5.28737C7.53906 5.28532 7.53906 5.28327 7.53906 5.28122C7.53906 5.27918 7.53906 5.27714 7.53906 5.27511C7.53906 5.27308 7.53906 5.27106 7.53906 5.26904C7.53906 5.26702 7.53906 5.26501 7.53906 5.263C7.53906 5.261 7.53906 5.259 7.53906 5.257C7.53906 5.25501 7.53906 5.25302 7.53906 5.25104C7.53906 5.24906 7.53906 5.24709 7.53906 5.24512C7.53906 5.24316 7.53906 5.2412 7.53906 5.23924C7.53906 5.23729 7.53906 5.23534 7.53906 5.2334C7.53906 5.23146 7.53906 5.22953 7.53906 5.2276C7.53906 5.22567 7.53906 5.22375 7.53906 5.22183C7.53906 5.21992 7.53906 5.21801 7.53906 5.21611C7.53906 5.21421 7.53906 5.21231 7.53906 5.21043C7.53906 5.20854 7.53906 5.20666 7.53906 5.20478C7.53906 5.20291 7.53906 5.20104 7.53906 5.19918C7.53906 5.19732 7.53906 5.19546 7.53906 5.19361C7.53906 5.19177 7.53906 5.18993 7.53906 5.18809C7.53906 5.18626 7.53906 5.18443 7.53906 5.18261C7.53906 5.18079 7.53906 5.17897 7.53906 5.17717C7.53906 5.17536 7.53906 5.17356 7.53906 5.17177C7.53906 5.16997 7.53906 5.16819 7.53906 5.16641C7.53906 5.16463 7.53906 5.16286 7.53906 5.16109C7.53906 5.15933 7.53906 5.15757 7.53906 5.15582C7.53906 5.15406 7.53906 5.15232 7.53906 5.15058C7.53906 5.14884 7.53906 5.14711 7.53906 5.14539C7.53906 5.14367 7.53906 5.14195 7.53906 5.14024C7.53906 5.13853 7.53906 5.13683 7.53906 5.13513C7.53906 5.13344 7.53906 5.13175 7.53906 5.13007C7.53906 5.12839 7.53906 5.12672 7.53906 5.12505C7.53906 5.12338 7.53906 5.12172 7.53906 5.12007C7.53906 5.11842 7.53906 5.11677 7.53906 5.11514C7.53906 5.1135 7.53906 5.11187 7.53906 5.11024C7.53906 5.10862 7.53906 5.10701 7.53906 5.1054C7.53906 5.10379 7.53906 5.10219 7.53906 5.10059C7.53906 5.099 7.53906 5.09741 7.53906 5.09583C7.53906 5.09425 7.53906 5.09268 7.53906 5.09112C7.53906 5.08955 7.53906 5.08799 7.53906 5.08644C7.53906 5.0849 7.53906 5.08335 7.53906 5.08182C7.53906 5.08028 7.53906 5.07876 7.53906 5.07724C7.53906 5.07572 7.53906 5.0742 7.53906 5.0727C7.53906 5.07119 7.53906 5.0697 7.53906 5.06821C7.53906 5.06672 7.53906 5.06523 7.53906 5.06376C7.53906 5.06228 7.53906 5.06082 7.53906 5.05936C7.53906 5.0579 7.53906 5.05645 7.53906 5.055C7.53906 5.05356 7.53906 5.05212 7.53906 5.05069C7.53906 5.04926 7.53906 5.04784 7.53906 5.04643C7.53906 5.04502 7.53906 5.04361 7.53906 5.04221C7.53906 5.04081 7.53906 5.03942 7.53906 5.03804C7.53906 5.03666 7.53906 5.03528 7.53906 5.03392C7.53906 5.03255 7.53906 5.03119 7.53906 5.02984C7.53906 5.02849 7.53906 5.02715 7.53906 5.02581C7.53906 5.02448 7.53906 5.02315 7.53906 5.02183C7.53906 5.02051 7.53906 5.0192 7.53906 5.01789C7.53906 5.01659 7.53906 5.01529 7.53906 5.014C7.53906 5.01272 7.53906 5.01144 7.53906 5.01016C7.53906 5.00889 7.53906 5.00763 7.53906 5.00637C7.53906 5.00512 7.53906 5.00387 7.53906 5.00263C7.53906 5.00139 7.53906 5.00016 7.53906 4.99893C7.53906 4.99771 7.53906 4.99649 7.53906 4.99529H5.53906Z" fill="white" mask="url(#path-2-inside-1)"/>
<path d="M15.8162 9.97707C16.3856 9.97707 16.8472 9.53099 16.8472 8.98072C16.8472 8.43045 16.3856 7.98438 15.8162 7.98438C15.2468 7.98438 14.7852 8.43045 14.7852 8.98072C14.7852 9.53099 15.2468 9.97707 15.8162 9.97707Z" fill="white"/>
<path d="M6.53491 9.97707C7.10432 9.97707 7.56591 9.53099 7.56591 8.98072C7.56591 8.43045 7.10432 7.98438 6.53491 7.98438C5.9655 7.98438 5.50391 8.43045 5.50391 8.98072C5.50391 9.53099 5.9655 9.97707 6.53491 9.97707Z" fill="white"/>
</svg>
