<svg width="22" height="24" viewBox="0 0 22 24" fill="none" xmlns="http://www.w3.org/2000/svg">
<path d="M16.4123 12.6304L16.0316 13.0269L16.4623 13.3685C17.9016 14.5101 19.0506 15.8857 19.8839 17.4658C20.852 19.3017 21.345 21.3283 21.346 23.4955C21.3451 23.4961 21.344 23.4968 21.3426 23.4973C21.3414 23.4978 21.3398 23.4983 21.3378 23.4987C21.3361 23.499 21.334 23.4992 21.3316 23.4992C21.3263 23.4992 21.3229 23.4982 21.3206 23.4973C21.3193 23.4968 21.3182 23.4961 21.3173 23.4955C21.3154 19.3932 19.5442 15.7705 16.3259 13.2694L16.0153 13.028L15.7076 13.2731C15.202 13.6757 14.6384 14.0136 14.0306 14.2731C16.5352 13.1936 18.2953 10.77 18.2953 7.93935C18.2953 5.04861 16.4597 2.58238 13.8701 1.53863C16.4891 2.58405 18.3241 5.06911 18.324 7.93934C18.324 9.74444 17.6009 11.3927 16.4123 12.6304ZM8.18263 14.2715C7.57613 14.012 7.01369 13.6746 6.50904 13.2727L6.20131 13.0276L5.89069 13.269C2.67278 15.7703 0.901724 19.3931 0.899833 23.4955C0.898938 23.4961 0.89782 23.4968 0.896476 23.4973C0.894219 23.4982 0.890766 23.4992 0.885463 23.4992C0.880159 23.4992 0.876706 23.4982 0.874449 23.4973C0.873107 23.4968 0.87199 23.4961 0.871095 23.4955C0.87209 21.3284 1.36507 19.3017 2.33297 17.4658L1.89067 17.2326L2.33297 17.4658C3.16609 15.8855 4.31503 14.5098 5.75436 13.3679L6.18491 13.0264L5.80427 12.6299C4.61591 11.3923 3.89301 9.74421 3.89301 7.93935C3.89301 5.06912 5.72801 2.58406 8.347 1.53863C5.75743 2.58239 3.92175 5.04861 3.92175 7.93935C3.92175 10.7685 5.68009 13.1911 8.18263 14.2715Z" fill="white" stroke="white"/>
</svg>
