<svg width="17" height="19" viewBox="0 0 17 19" fill="none" xmlns="http://www.w3.org/2000/svg">
<mask id="path-1-inside-1" fill="white">
<path d="M15.7969 13.5262C15.1109 12.1968 14.1653 11.0409 12.9841 10.0835C13.9913 9.01173 14.6077 7.57969 14.6077 6.00852C14.6078 2.69544 11.8678 0 8.5 0C5.13217 0 2.39222 2.69544 2.39222 6.00852C2.39222 7.57949 3.00854 9.01138 4.01551 10.0831C2.83437 11.0406 1.88883 12.1967 1.20293 13.5262C0.404743 15.0734 0 16.7797 0 18.5979C0 18.82 0.182317 19 0.407186 19C0.632054 19 0.814371 18.82 0.814371 18.5979C0.814371 15.4013 2.16058 12.5867 4.61234 10.6392C5.66925 11.4994 7.02436 12.017 8.5 12.017C9.97549 12.017 11.3304 11.4996 12.3873 10.6396C14.8393 12.5869 16.1856 15.4014 16.1856 18.5979C16.1856 18.82 16.3679 19 16.5928 19C16.8177 19 17 18.82 17 18.5979C17 16.7797 16.5952 15.0733 15.7969 13.5262ZM3.20659 6.00852C3.20659 3.13887 5.58119 0.804233 8.5 0.804233C11.4188 0.804233 13.7934 3.13887 13.7934 6.00852C13.7934 8.87818 11.4188 11.2128 8.5 11.2128C5.58119 11.2128 3.20659 8.87813 3.20659 6.00852Z"/>
</mask>
<path d="M15.7969 13.5262C15.1109 12.1968 14.1653 11.0409 12.9841 10.0835C13.9913 9.01173 14.6077 7.57969 14.6077 6.00852C14.6078 2.69544 11.8678 0 8.5 0C5.13217 0 2.39222 2.69544 2.39222 6.00852C2.39222 7.57949 3.00854 9.01138 4.01551 10.0831C2.83437 11.0406 1.88883 12.1967 1.20293 13.5262C0.404743 15.0734 0 16.7797 0 18.5979C0 18.82 0.182317 19 0.407186 19C0.632054 19 0.814371 18.82 0.814371 18.5979C0.814371 15.4013 2.16058 12.5867 4.61234 10.6392C5.66925 11.4994 7.02436 12.017 8.5 12.017C9.97549 12.017 11.3304 11.4996 12.3873 10.6396C14.8393 12.5869 16.1856 15.4014 16.1856 18.5979C16.1856 18.82 16.3679 19 16.5928 19C16.8177 19 17 18.82 17 18.5979C17 16.7797 16.5952 15.0733 15.7969 13.5262ZM3.20659 6.00852C3.20659 3.13887 5.58119 0.804233 8.5 0.804233C11.4188 0.804233 13.7934 3.13887 13.7934 6.00852C13.7934 8.87818 11.4188 11.2128 8.5 11.2128C5.58119 11.2128 3.20659 8.87813 3.20659 6.00852Z" fill="white"/>
<path d="M15.7969 13.5262L16.6856 13.0677L16.6856 13.0676L15.7969 13.5262ZM12.9841 10.0835L12.2554 9.39866L11.5185 10.1828L12.3544 10.8603L12.9841 10.0835ZM14.6077 6.00852L13.6077 6.00851V6.00852H14.6077ZM4.01551 10.0831L4.64526 10.8599L5.48098 10.1824L4.74428 9.39831L4.01551 10.0831ZM1.20293 13.5262L2.09163 13.9847L2.09163 13.9847L1.20293 13.5262ZM4.61234 10.6392L5.24358 9.86365L4.61997 9.35612L3.99037 9.85621L4.61234 10.6392ZM12.3873 10.6396L13.0092 9.8565L12.3797 9.35657L11.7562 9.86393L12.3873 10.6396ZM16.6856 13.0676C15.9348 11.6128 14.9001 10.3492 13.6137 9.30661L12.3544 10.8603C13.4305 11.7325 14.2869 12.7809 14.9083 13.9848L16.6856 13.0676ZM13.7128 10.7683C14.8851 9.52079 15.6077 7.84715 15.6077 6.00852H13.6077C13.6077 7.31223 13.0974 8.50267 12.2554 9.39866L13.7128 10.7683ZM15.6077 6.00854C15.6078 2.12777 12.4046 -1 8.5 -1V1C11.3311 1 13.6078 3.2631 13.6077 6.00851L15.6077 6.00854ZM8.5 -1C4.59539 -1 1.39222 2.12777 1.39222 6.00852H3.39222C3.39222 3.2631 5.66894 1 8.5 1V-1ZM1.39222 6.00852C1.39222 7.84692 2.11463 9.52038 3.28674 10.7678L4.74428 9.39831C3.90245 8.50237 3.39222 7.31206 3.39222 6.00852H1.39222ZM3.38577 9.30627C2.09953 10.349 1.06486 11.6127 0.314222 13.0678L2.09163 13.9847C2.71281 12.7806 3.56921 11.7322 4.64526 10.8599L3.38577 9.30627ZM0.314228 13.0678C-0.560369 14.763 -1 16.6275 -1 18.5979H1C1 16.9319 1.36985 15.3838 2.09163 13.9847L0.314228 13.0678ZM-1 18.5979C-1 19.384 -0.35812 20 0.407186 20V18C0.722754 18 1 18.2559 1 18.5979H-1ZM0.407186 20C1.17249 20 1.81437 19.384 1.81437 18.5979H-0.185629C-0.185629 18.2559 0.0916168 18 0.407186 18V20ZM1.81437 18.5979C1.81437 15.6999 3.02633 13.1761 5.23432 11.4223L3.99037 9.85621C1.29483 11.9973 -0.185629 15.1027 -0.185629 18.5979H1.81437ZM3.98111 11.4148C5.21048 12.4154 6.78693 13.017 8.5 13.017V11.017C7.26179 11.017 6.12801 10.5835 5.24358 9.86365L3.98111 11.4148ZM8.5 13.017C10.2129 13.017 11.7891 12.4156 13.0184 11.4153L11.7562 9.86393C10.8717 10.5836 9.73809 11.017 8.5 11.017V13.017ZM11.7654 11.4227C13.9736 13.1764 15.1856 15.7 15.1856 18.5979H17.1856C17.1856 15.1027 15.705 11.9974 13.0092 9.8565L11.7654 11.4227ZM15.1856 18.5979C15.1856 19.384 15.8275 20 16.5928 20V18C16.9084 18 17.1856 18.2559 17.1856 18.5979H15.1856ZM16.5928 20C17.3581 20 18 19.384 18 18.5979H16C16 18.2559 16.2772 18 16.5928 18V20ZM18 18.5979C18 16.6274 17.5603 14.7629 16.6856 13.0677L14.9082 13.9848C15.6301 15.3838 16 16.9319 16 18.5979H18ZM4.20659 6.00852C4.20659 3.70709 6.1174 1.80423 8.5 1.80423V-0.195767C5.04498 -0.195767 2.20659 2.57065 2.20659 6.00852H4.20659ZM8.5 1.80423C10.8826 1.80423 12.7934 3.70709 12.7934 6.00852H14.7934C14.7934 2.57065 11.955 -0.195767 8.5 -0.195767V1.80423ZM12.7934 6.00852C12.7934 8.30995 10.8826 10.2128 8.5 10.2128V12.2128C11.955 12.2128 14.7934 9.4464 14.7934 6.00852H12.7934ZM8.5 10.2128C6.11741 10.2128 4.20659 8.30991 4.20659 6.00852H2.20659C2.20659 9.44634 5.04497 12.2128 8.5 12.2128V10.2128Z" fill="white" mask="url(#path-1-inside-1)"/>
</svg>
